<?xml version="1.0" standalone="no"?>
<!DOCTYPE svg PUBLIC "-//W3C//DTD SVG 1.1//EN" "http://www.w3.org/Graphics/SVG/1.1/DTD/svg11.dtd" >
<svg xmlns="http://www.w3.org/2000/svg" xmlns:xlink="http://www.w3.org/1999/xlink" version="1.1">
<metadata>
Created by FontForge 20161116 at Tue Nov 22 12:37:13 2016
 By Jimmy Wärting
Copyright 2011-2016 Severin Meyer
</metadata>
<defs>
<font id="Xolonium-Bold" horiz-adv-x="680" >
  <font-face 
    font-family="Xolonium"
    font-weight="700"
    font-stretch="normal"
    units-per-em="1000"
    panose-1="2 0 8 3 0 0 0 0 0 0"
    ascent="790"
    descent="-210"
    x-height="490"
    cap-height="660"
    bbox="-165 -210 1530 890"
    underline-thickness="80"
    underline-position="-145"
    unicode-range="U+000D-1F680"
  />
<missing-glyph 
d="M95 0v660h490v-660h-490zM205 70h270v520h-270v-520z" />
    <glyph glyph-name=".notdef" 
d="M95 0v660h490v-660h-490zM205 70h270v520h-270v-520z" />
    <glyph glyph-name=".null" horiz-adv-x="0" 
 />
    <glyph glyph-name="nonmarkingreturn" unicode="&#xd;" horiz-adv-x="320" 
 />
    <glyph glyph-name="space" unicode=" " horiz-adv-x="320" 
 />
    <glyph glyph-name="exclam" unicode="!" horiz-adv-x="350" 
d="M75 0v150h200v-150h-200zM75 225v435h200v-435h-200z" />
    <glyph glyph-name="quotedbl" unicode="&#x22;" horiz-adv-x="560" 
d="M70 380v280h160v-280h-160zM330 380v280h160v-280h-160z" />
    <glyph glyph-name="numbersign" unicode="#" horiz-adv-x="810" 
d="M40 150v100h130v160h-130v100h130v150h160v-150h150v150h160v-150h130v-100h-130v-160h130v-100h-130v-150h-160v150h-150v-150h-160v150h-130zM330 250h150v160h-150v-160z" />
    <glyph glyph-name="dollar" unicode="$" horiz-adv-x="740" 
d="M50 0v120h405q35 0 35 28v109q0 28 -35 28h-235q-170 0 -170 136v103q0 136 170 136h85v120h130v-120h205v-120h-355q-35 0 -35 -28v-79q0 -28 35 -28h235q170 0 170 -136v-133q0 -136 -170 -136h-85v-120h-130v120h-255z" />
    <glyph glyph-name="percent" unicode="%" horiz-adv-x="1110" 
d="M40 364v212q0 84 105 84h170q105 0 105 -84v-212q0 -84 -105 -84h-170q-105 0 -105 84zM180 376q0 -16 20 -16h60q20 0 20 16v188q0 16 -20 16h-60q-20 0 -20 -16v-188zM295 0l362 660h158l-362 -660h-158zM690 84v212q0 84 105 84h170q105 0 105 -84v-212
q0 -84 -105 -84h-170q-105 0 -105 84zM830 96q0 -16 20 -16h60q20 0 20 16v188q0 16 -20 16h-60q-20 0 -20 -16v-188z" />
    <glyph glyph-name="ampersand" unicode="&#x26;" horiz-adv-x="840" 
d="M60 120v127q0 91 85 113q-55 29 -55 101v79q0 120 150 120h355v-105h-300q-25 0 -25 -20v-115q0 -20 25 -20h515v-105h-140v-295h-460q-150 0 -150 120zM240 125q0 -20 25 -20h225v190h-225q-25 0 -25 -20v-150z" />
    <glyph glyph-name="quotesingle" unicode="'" horiz-adv-x="300" 
d="M70 380v280h160v-280h-160z" />
    <glyph glyph-name="parenleft" unicode="(" horiz-adv-x="420" 
d="M70 225q0 243 155 435h155q-140 -192 -140 -435t140 -435h-155q-155 192 -155 435z" />
    <glyph glyph-name="parenright" unicode=")" horiz-adv-x="420" 
d="M40 -210q140 192 140 435t-140 435h155q155 -192 155 -435t-155 -435h-155z" />
    <glyph glyph-name="asterisk" unicode="*" horiz-adv-x="550" 
d="M30 434l42 127l133 -43v142h140v-142l133 43l42 -127l-137 -44l84 -116l-108 -79l-84 116l-84 -116l-108 79l84 116z" />
    <glyph glyph-name="plus" unicode="+" horiz-adv-x="740" 
d="M85 225v120h200v195h170v-195h200v-120h-200v-195h-170v195h-200z" />
    <glyph glyph-name="comma" unicode="," horiz-adv-x="340" 
d="M25 -130l70 280h180l-115 -280h-135z" />
    <glyph glyph-name="hyphen" unicode="-" horiz-adv-x="460" 
d="M40 225v120h380v-120h-380z" />
    <glyph glyph-name="period" unicode="." horiz-adv-x="340" 
d="M75 0v150h190v-150h-190z" />
    <glyph glyph-name="slash" unicode="/" horiz-adv-x="530" 
d="M20 0l317 660h173l-317 -660h-173z" />
    <glyph glyph-name="zero" unicode="0" horiz-adv-x="740" 
d="M60 136v388q0 136 170 136h280q170 0 170 -136v-388q0 -136 -170 -136h-280q-170 0 -170 136zM260 148q0 -28 35 -28h150q35 0 35 28v364q0 28 -35 28h-150q-35 0 -35 -28v-364z" />
    <glyph glyph-name="one" unicode="1" horiz-adv-x="740" 
d="M145 540v120h380v-660h-200v540h-180z" />
    <glyph glyph-name="two" unicode="2" horiz-adv-x="740" 
d="M60 0v269q0 136 170 136h215q35 0 35 28v79q0 28 -35 28h-335v120h400q170 0 170 -136v-103q0 -136 -170 -136h-215q-35 0 -35 -28v-137h420v-120h-620z" />
    <glyph glyph-name="three" unicode="3" horiz-adv-x="740" 
d="M80 0v120h365q35 0 35 28v109q0 28 -35 28h-275v120h275q35 0 35 28v79q0 28 -35 28h-365v120h430q170 0 170 -136v-55q0 -87 -71 -119q71 -32 71 -119v-95q0 -136 -170 -136h-430z" />
    <glyph glyph-name="four" unicode="4" horiz-adv-x="740" 
d="M60 120v120l375 420h245v-660h-200v120h-420zM283 240h197v222z" />
    <glyph glyph-name="five" unicode="5" horiz-adv-x="740" 
d="M60 0v120h385q35 0 35 28v109q0 28 -35 28h-385v375h580v-120h-380v-135h250q170 0 170 -136v-133q0 -136 -170 -136h-450z" />
    <glyph glyph-name="six" unicode="6" horiz-adv-x="740" 
d="M60 136v364q0 160 200 160h370v-120h-300q-70 0 -70 -56v-79h250q170 0 170 -136v-133q0 -136 -170 -136h-280q-170 0 -170 136zM260 148q0 -28 35 -28h150q35 0 35 28v109q0 28 -35 28h-185v-137z" />
    <glyph glyph-name="seven" unicode="7" horiz-adv-x="740" 
d="M60 540v120h620v-120l-295 -540h-219l295 540h-401z" />
    <glyph glyph-name="eight" unicode="8" horiz-adv-x="740" 
d="M60 136v95q0 87 71 119q-71 32 -71 119v55q0 136 170 136h280q170 0 170 -136v-55q0 -87 -71 -119q71 -32 71 -119v-95q0 -136 -170 -136h-280q-170 0 -170 136zM260 148q0 -28 35 -28h150q35 0 35 28v109q0 28 -35 28h-150q-35 0 -35 -28v-109zM260 433q0 -28 35 -28
h150q35 0 35 28v79q0 28 -35 28h-150q-35 0 -35 -28v-79z" />
    <glyph glyph-name="nine" unicode="9" horiz-adv-x="740" 
d="M60 421v103q0 136 170 136h280q170 0 170 -136v-364q0 -160 -200 -160h-380v120h310q70 0 70 56v109h-250q-170 0 -170 136zM260 433q0 -28 35 -28h185v107q0 28 -35 28h-150q-35 0 -35 -28v-79z" />
    <glyph glyph-name="colon" unicode=":" horiz-adv-x="340" 
d="M75 340v150h190v-150h-190zM75 0v150h190v-150h-190z" />
    <glyph glyph-name="semicolon" unicode=";" horiz-adv-x="340" 
d="M75 340v150h190v-150h-190zM10 -130l70 280h180l-115 -280h-135z" />
    <glyph glyph-name="less" unicode="&#x3c;" horiz-adv-x="740" 
d="M95 235v100l550 225v-138l-334 -137l334 -137v-138z" />
    <glyph glyph-name="equal" unicode="=" horiz-adv-x="740" 
d="M85 350v120h570v-120h-570zM85 100v120h570v-120h-570z" />
    <glyph glyph-name="greater" unicode="&#x3e;" horiz-adv-x="740" 
d="M95 10v138l334 137l-334 137v138l550 -225v-100z" />
    <glyph glyph-name="question" unicode="?" horiz-adv-x="730" 
d="M40 540v120h470q170 0 170 -136v-103q0 -136 -170 -136h-100v-60h-200v180h235q35 0 35 28v79q0 28 -35 28h-405zM210 0v150h200v-150h-200z" />
    <glyph glyph-name="at" unicode="@" horiz-adv-x="1110" 
d="M60 -31v587q0 104 130 104h730q130 0 130 -104v-501h-600q-150 0 -150 120v175q0 120 150 120h350v-310h90v380q0 20 -25 20h-620q-25 0 -25 -20v-555q0 -20 25 -20h745v-100h-800q-130 0 -130 104zM480 180q0 -20 25 -20h115v205h-115q-25 0 -25 -20v-165z" />
    <glyph glyph-name="A" unicode="A" horiz-adv-x="830" 
d="M5 0l285 660h250l285 -660h-196l-60 140h-308l-60 -140h-196zM313 260h204l-102 235z" />
    <glyph glyph-name="B" unicode="B" horiz-adv-x="800" 
d="M70 0v660h490q170 0 170 -136v-58q0 -84 -65 -116q75 -30 75 -121v-93q0 -136 -170 -136h-500zM270 120h235q35 0 35 28v109q0 28 -35 28h-235v-165zM270 405h225q35 0 35 28v79q0 28 -35 28h-225v-135z" />
    <glyph glyph-name="C" unicode="C" horiz-adv-x="760" 
d="M70 136v388q0 136 170 136h470v-120h-405q-35 0 -35 -28v-364q0 -28 35 -28h405v-120h-470q-170 0 -170 136z" />
    <glyph glyph-name="D" unicode="D" horiz-adv-x="820" 
d="M70 0v660h350q340 0 340 -272v-116q0 -272 -340 -272h-350zM270 120h110q180 0 180 144v132q0 144 -180 144h-110v-420z" />
    <glyph glyph-name="E" unicode="E" horiz-adv-x="760" 
d="M70 0v660h640v-120h-440v-135h390v-120h-390v-165h440v-120h-640z" />
    <glyph glyph-name="F" unicode="F" horiz-adv-x="730" 
d="M70 0v660h630v-120h-430v-145h380v-120h-380v-275h-200z" />
    <glyph glyph-name="G" unicode="G" horiz-adv-x="820" 
d="M70 136v388q0 136 170 136h470v-120h-405q-35 0 -35 -28v-364q0 -28 35 -28h245v170h-130v120h330v-410h-510q-170 0 -170 136z" />
    <glyph glyph-name="H" unicode="H" horiz-adv-x="830" 
d="M70 0v660h200v-255h290v255h200v-660h-200v285h-290v-285h-200z" />
    <glyph glyph-name="I" unicode="I" horiz-adv-x="340" 
d="M70 0v660h200v-660h-200z" />
    <glyph glyph-name="J" unicode="J" horiz-adv-x="750" 
d="M40 160v135h200v-119q0 -56 70 -56h135q35 0 35 28v512h200v-524q0 -136 -170 -136h-270q-200 0 -200 160z" />
    <glyph glyph-name="K" unicode="K" horiz-adv-x="800" 
d="M70 0v660h200v-255l265 255h245l-283 -273l293 -387h-224l-199 263l-97 -94v-169h-200z" />
    <glyph glyph-name="L" unicode="L" horiz-adv-x="700" 
d="M70 0v660h200v-540h410v-120h-610z" />
    <glyph glyph-name="M" unicode="M" horiz-adv-x="1040" 
d="M70 0v660h245l205 -461l205 461h245v-660h-200v348l-155 -348h-190l-155 348v-348h-200z" />
    <glyph glyph-name="N" unicode="N" horiz-adv-x="840" 
d="M70 0v660h215l285 -396v396h200v-660h-215l-285 396v-396h-200z" />
    <glyph glyph-name="O" unicode="O" horiz-adv-x="830" 
d="M70 136v388q0 136 170 136h350q170 0 170 -136v-388q0 -136 -170 -136h-350q-170 0 -170 136zM270 148q0 -28 35 -28h220q35 0 35 28v364q0 28 -35 28h-220q-35 0 -35 -28v-364z" />
    <glyph glyph-name="P" unicode="P" horiz-adv-x="780" 
d="M70 0v660h490q170 0 170 -136v-153q0 -136 -170 -136h-290v-235h-200zM270 355h225q35 0 35 28v129q0 28 -35 28h-225v-185z" />
    <glyph glyph-name="Q" unicode="Q" horiz-adv-x="830" 
d="M70 136v388q0 136 170 136h350q170 0 170 -136v-388q0 -136 -170 -136h-27l70 -160h-203l-70 160h-120q-170 0 -170 136zM270 148q0 -28 35 -28h220q35 0 35 28v364q0 28 -35 28h-220q-35 0 -35 -28v-364z" />
    <glyph glyph-name="R" unicode="R" horiz-adv-x="790" 
d="M70 0v660h490q170 0 170 -136v-138q0 -120 -135 -136l165 -250h-216l-165 250h-109v-250h-200zM270 370h225q35 0 35 28v114q0 28 -35 28h-225v-170z" />
    <glyph glyph-name="S" unicode="S" horiz-adv-x="780" 
d="M60 0v120h425q35 0 35 28v109q0 28 -35 28h-255q-170 0 -170 136v103q0 136 170 136h440v-120h-375q-35 0 -35 -28v-79q0 -28 35 -28h255q170 0 170 -136v-133q0 -136 -170 -136h-490z" />
    <glyph glyph-name="T" unicode="T" horiz-adv-x="780" 
d="M20 540v120h740v-120h-270v-540h-200v540h-270z" />
    <glyph glyph-name="U" unicode="U" horiz-adv-x="830" 
d="M70 136v524h200v-512q0 -28 35 -28h220q35 0 35 28v512h200v-524q0 -136 -170 -136h-350q-170 0 -170 136z" />
    <glyph glyph-name="V" unicode="V" horiz-adv-x="830" 
d="M5 660h203l207 -480l207 480h203l-285 -660h-250z" />
    <glyph glyph-name="W" unicode="W" horiz-adv-x="1200" 
d="M15 660h195l131 -465l154 465h210l154 -465l131 465h195l-185 -660h-255l-145 437l-145 -437h-255z" />
    <glyph glyph-name="X" unicode="X" horiz-adv-x="800" 
d="M10 0l278 336l-268 324h223l157 -189l157 189h223l-268 -324l278 -336h-223l-167 201l-167 -201h-223z" />
    <glyph glyph-name="Y" unicode="Y" horiz-adv-x="810" 
d="M5 660h216l184 -255l184 255h216l-300 -415v-245h-200v245z" />
    <glyph glyph-name="Z" unicode="Z" horiz-adv-x="750" 
d="M40 0v120l415 420h-405v120h650v-120l-415 -420h425v-120h-670z" />
    <glyph glyph-name="bracketleft" unicode="[" horiz-adv-x="460" 
d="M80 -210v870h330v-100h-160v-670h160v-100h-330z" />
    <glyph glyph-name="backslash" unicode="\" horiz-adv-x="530" 
d="M20 660h173l317 -660h-173z" />
    <glyph glyph-name="bracketright" unicode="]" horiz-adv-x="460" 
d="M50 -110h160v670h-160v100h330v-870h-330v100z" />
    <glyph glyph-name="asciicircum" unicode="^" horiz-adv-x="620" 
d="M30 280l200 380h160l200 -380h-159l-121 231l-121 -231h-159z" />
    <glyph glyph-name="underscore" unicode="_" horiz-adv-x="640" 
d="M0 -105h640v-105h-640v105z" />
    <glyph glyph-name="grave" unicode="`" horiz-adv-x="500" 
d="M75 710h160l110 -160h-130z" />
    <glyph glyph-name="a" unicode="a" horiz-adv-x="650" 
d="M50 120v65q0 120 150 120h210v60q0 20 -25 20h-295v105h350q150 0 150 -120v-370h-390q-150 0 -150 120zM230 125q0 -20 25 -20h155v95h-155q-25 0 -25 -20v-55z" />
    <glyph glyph-name="b" unicode="b" 
d="M60 0v660h180v-170h230q150 0 150 -120v-250q0 -120 -150 -120h-410zM240 105h175q25 0 25 20v240q0 20 -25 20h-175v-280z" />
    <glyph glyph-name="c" unicode="c" horiz-adv-x="610" 
d="M60 120v250q0 120 150 120h360v-105h-305q-25 0 -25 -20v-240q0 -20 25 -20h305v-105h-360q-150 0 -150 120z" />
    <glyph glyph-name="d" unicode="d" 
d="M60 120v250q0 120 150 120h230v170h180v-660h-410q-150 0 -150 120zM240 125q0 -20 25 -20h175v280h-175q-25 0 -25 -20v-240z" />
    <glyph glyph-name="e" unicode="e" horiz-adv-x="660" 
d="M60 120v250q0 120 150 120h240q150 0 150 -120v-170h-360v-75q0 -20 25 -20h315v-105h-370q-150 0 -150 120zM240 305h180v60q0 20 -25 20h-130q-25 0 -25 -20v-60z" />
    <glyph glyph-name="f" unicode="f" horiz-adv-x="440" 
d="M60 0v540q0 120 150 120h200v-105h-145q-25 0 -25 -20v-45h170v-105h-170v-385h-180z" />
    <glyph glyph-name="g" unicode="g" 
d="M60 120v250q0 120 150 120h410v-580q0 -120 -150 -120h-390v105h320q40 0 40 32v73h-230q-150 0 -150 120zM240 125q0 -20 25 -20h175v280h-175q-25 0 -25 -20v-240z" />
    <glyph glyph-name="h" unicode="h" 
d="M60 0v660h180v-170h230q150 0 150 -120v-370h-180v365q0 20 -25 20h-175v-385h-180z" />
    <glyph glyph-name="i" unicode="i" horiz-adv-x="300" 
d="M60 0v490h180v-490h-180zM60 560v100h180v-100h-180z" />
    <glyph glyph-name="j" unicode="j" horiz-adv-x="300" 
d="M-50 -105h70q40 0 40 32v563h180v-580q0 -120 -150 -120h-140v105zM60 560v100h180v-100h-180z" />
    <glyph glyph-name="k" unicode="k" horiz-adv-x="660" 
d="M60 0v660h180v-350l185 180h215l-211 -205l221 -285h-195l-137 177l-78 -76v-101h-180z" />
    <glyph glyph-name="l" unicode="l" horiz-adv-x="300" 
d="M60 0v660h180v-660h-180z" />
    <glyph glyph-name="m" unicode="m" horiz-adv-x="960" 
d="M60 0v490h690q150 0 150 -120v-370h-180v365q0 20 -25 20h-125v-385h-180v365q0 20 -25 20h-125v-385h-180z" />
    <glyph glyph-name="n" unicode="n" 
d="M60 0v490h410q150 0 150 -120v-370h-180v365q0 20 -25 20h-175v-385h-180z" />
    <glyph glyph-name="o" unicode="o" 
d="M60 120v250q0 120 150 120h260q150 0 150 -120v-250q0 -120 -150 -120h-260q-150 0 -150 120zM240 125q0 -20 25 -20h150q25 0 25 20v240q0 20 -25 20h-150q-25 0 -25 -20v-240z" />
    <glyph glyph-name="p" unicode="p" 
d="M60 -210v700h410q150 0 150 -120v-250q0 -120 -150 -120h-230v-210h-180zM240 105h175q25 0 25 20v240q0 20 -25 20h-175v-280z" />
    <glyph glyph-name="q" unicode="q" 
d="M60 120v250q0 120 150 120h410v-700h-180v210h-230q-150 0 -150 120zM240 125q0 -20 25 -20h175v280h-175q-25 0 -25 -20v-240z" />
    <glyph glyph-name="r" unicode="r" horiz-adv-x="440" 
d="M60 0v370q0 120 150 120h200v-105h-145q-25 0 -25 -20v-365h-180z" />
    <glyph glyph-name="s" unicode="s" horiz-adv-x="610" 
d="M50 0v105h305q25 0 25 20v55q0 20 -25 20h-155q-150 0 -150 120v50q0 120 150 120h320v-105h-265q-25 0 -25 -20v-40q0 -20 25 -20h155q150 0 150 -120v-65q0 -120 -150 -120h-360z" />
    <glyph glyph-name="t" unicode="t" horiz-adv-x="450" 
d="M60 120v540h180v-170h170v-105h-170v-260q0 -20 25 -20h145v-105h-200q-150 0 -150 120z" />
    <glyph glyph-name="u" unicode="u" 
d="M60 120v370h180v-365q0 -20 25 -20h175v385h180v-490h-410q-150 0 -150 120z" />
    <glyph glyph-name="v" unicode="v" 
d="M10 490h178l152 -332l152 332h178l-224 -490h-212z" />
    <glyph glyph-name="w" unicode="w" horiz-adv-x="930" 
d="M10 490h170l101 -320l101 320h166l101 -320l101 320h170l-155 -490h-205l-95 301l-95 -301h-205z" />
    <glyph glyph-name="x" unicode="x" horiz-adv-x="650" 
d="M10 0l215 248l-210 242h201l109 -126l109 126h201l-210 -242l215 -248h-201l-114 132l-114 -132h-201z" />
    <glyph glyph-name="y" unicode="y" 
d="M10 490h178l152 -332l152 332h178l-320 -700h-178l79 173z" />
    <glyph glyph-name="z" unicode="z" horiz-adv-x="620" 
d="M40 0v105l303 280h-293v105h520v-105l-303 -280h313v-105h-540z" />
    <glyph glyph-name="braceleft" unicode="{" horiz-adv-x="590" 
d="M50 170v110l160 97v163q0 120 150 120h180v-100h-135q-25 0 -25 -20v-215l-166 -100l166 -100v-215q0 -20 25 -20h135v-100h-180q-150 0 -150 120v163z" />
    <glyph glyph-name="bar" unicode="|" horiz-adv-x="320" 
d="M80 -210v870h160v-870h-160z" />
    <glyph glyph-name="braceright" unicode="}" horiz-adv-x="590" 
d="M50 -110h135q25 0 25 20v215l166 100l-166 100v215q0 20 -25 20h-135v100h180q150 0 150 -120v-163l160 -97v-110l-160 -97v-163q0 -120 -150 -120h-180v100z" />
    <glyph glyph-name="asciitilde" unicode="~" horiz-adv-x="740" 
d="M85 182v140l95 57q40 24 75 24t75 -24l125 -75q15 -9 30 -9t30 9l140 84v-140l-95 -57q-40 -24 -75 -24t-75 24l-125 75q-15 9 -30 9t-30 -9z" />
    <glyph glyph-name="uni00A0" unicode="&#xa0;" horiz-adv-x="320" 
 />
    <glyph glyph-name="exclamdown" unicode="&#xa1;" horiz-adv-x="350" 
d="M75 -180v445h200v-445h-200zM75 340v150h200v-150h-200z" />
    <glyph glyph-name="cent" unicode="&#xa2;" horiz-adv-x="740" 
d="M105 120v250q0 120 150 120h80v120h130v-120h150v-105h-305q-25 0 -25 -20v-240q0 -20 25 -20h305v-105h-150v-120h-130v120h-80q-150 0 -150 120z" />
    <glyph glyph-name="sterling" unicode="&#xa3;" horiz-adv-x="740" 
d="M30 0v120h100v175h-100v100h100v129q0 136 170 136h350v-120h-285q-35 0 -35 -28v-117h220v-100h-220v-175h360v-120h-660z" />
    <glyph glyph-name="currency" unicode="&#xa4;" horiz-adv-x="740" 
d="M90 140l155 155l100 -100l-155 -155zM90 500l100 100l155 -155l-100 -100zM395 195l100 100l155 -155l-100 -100zM395 445l155 155l100 -100l-155 -155z" />
    <glyph glyph-name="yen" unicode="&#xa5;" horiz-adv-x="740" 
d="M0 660h208l162 -249l162 249h208l-221 -340h111v-90h-160v-60h160v-90h-160v-80h-200v80h-160v90h160v60h-160v90h111z" />
    <glyph glyph-name="brokenbar" unicode="&#xa6;" horiz-adv-x="320" 
d="M80 155h160v-365h-160v365zM80 295v365h160v-365h-160z" />
    <glyph glyph-name="section" unicode="&#xa7;" horiz-adv-x="740" 
d="M70 185v130q0 69 50 99v126q0 120 150 120h350v-105h-295q-25 0 -25 -20v-80q0 -20 25 -20h195q150 0 150 -120v-130q0 -69 -50 -99v-126q0 -120 -150 -120h-350v105h295q25 0 25 20v80q0 20 -25 20h-195q-150 0 -150 120zM250 190q0 -20 25 -20h190q25 0 25 20v120
q0 20 -25 20h-190q-25 0 -25 -20v-120z" />
    <glyph glyph-name="dieresis" unicode="&#xa8;" horiz-adv-x="500" 
d="M65 570v120h140v-120h-140zM295 570v120h140v-120h-140z" />
    <glyph glyph-name="copyright" unicode="&#xa9;" horiz-adv-x="960" 
d="M60 84v492q0 84 105 84h630q105 0 105 -84v-492q0 -84 -105 -84h-630q-105 0 -105 84zM200 96q0 -16 20 -16h520q20 0 20 16v468q0 16 -20 16h-520q-20 0 -20 -16v-468zM280 224v212q0 84 105 84h285v-80h-230q-20 0 -20 -16v-188q0 -16 20 -16h230v-80h-285
q-105 0 -105 84z" />
    <glyph glyph-name="ordfeminine" unicode="&#xaa;" horiz-adv-x="450" 
d="M40 414v42q0 84 105 84h125v24q0 16 -20 16h-185v80h240q105 0 105 -84v-246h-265q-105 0 -105 84zM180 426q0 -16 20 -16h70v50h-70q-20 0 -20 -16v-18z" />
    <glyph glyph-name="guillemotleft" unicode="&#xab;" horiz-adv-x="750" 
d="M30 260l195 210h175l-185 -210l185 -210h-175zM340 260l195 210h175l-185 -210l185 -210h-175z" />
    <glyph glyph-name="logicalnot" unicode="&#xac;" horiz-adv-x="740" 
d="M80 290v120h570v-330h-130v210h-440z" />
    <glyph glyph-name="uni00AD" unicode="&#xad;" horiz-adv-x="460" 
d="M40 225v120h380v-120h-380z" />
    <glyph glyph-name="registered" unicode="&#xae;" horiz-adv-x="960" 
d="M60 84v492q0 84 105 84h630q105 0 105 -84v-492q0 -84 -105 -84h-630q-105 0 -105 84zM200 96q0 -16 20 -16h520q20 0 20 16v468q0 16 -20 16h-520q-20 0 -20 -16v-468zM280 140v380h295q105 0 105 -84v-77q0 -72 -77 -82l92 -137h-149l-90 135h-36v-135h-140zM420 355
h100q20 0 20 16v53q0 16 -20 16h-100v-85z" />
    <glyph glyph-name="macron" unicode="&#xaf;" horiz-adv-x="500" 
d="M75 580v95h350v-95h-350z" />
    <glyph glyph-name="degree" unicode="&#xb0;" horiz-adv-x="500" 
d="M50 424v152q0 84 105 84h190q105 0 105 -84v-152q0 -84 -105 -84h-190q-105 0 -105 84zM190 436q0 -16 20 -16h80q20 0 20 16v128q0 16 -20 16h-80q-20 0 -20 -16v-128z" />
    <glyph glyph-name="plusminus" unicode="&#xb1;" horiz-adv-x="740" 
d="M85 0v120h570v-120h-570zM85 330v120h200v170h170v-170h200v-120h-200v-170h-170v170h-200z" />
    <glyph glyph-name="uni00B2" unicode="&#xb2;" horiz-adv-x="460" 
d="M40 280v151q0 84 105 84h115q20 0 20 16v33q0 16 -20 16h-195v80h250q105 0 105 -84v-57q0 -84 -105 -84h-115q-20 0 -20 -16v-59h240v-80h-380z" />
    <glyph glyph-name="uni00B3" unicode="&#xb3;" horiz-adv-x="460" 
d="M50 280v80h210q20 0 20 16v43q0 16 -20 16h-160v80h160q20 0 20 16v33q0 16 -20 16h-210v80h265q105 0 105 -84v-25q0 -58 -50 -76q50 -18 50 -76v-35q0 -84 -105 -84h-265z" />
    <glyph glyph-name="acute" unicode="&#xb4;" horiz-adv-x="500" 
d="M155 550l110 160h160l-140 -160h-130z" />
    <glyph glyph-name="mu" unicode="&#xb5;" 
d="M60 -210v700h180v-385h175q25 0 25 20v365h180v-370q0 -120 -150 -120h-230v-210h-180z" />
    <glyph glyph-name="paragraph" unicode="&#xb6;" horiz-adv-x="670" 
d="M70 316v208q0 136 170 136h130v-480h-130q-170 0 -170 136zM430 -210v870h160v-870h-160z" />
    <glyph glyph-name="periodcentered" unicode="&#xb7;" horiz-adv-x="340" 
d="M75 210v150h190v-150h-190z" />
    <glyph glyph-name="cedilla" unicode="&#xb8;" horiz-adv-x="500" 
d="M125 -110h90q40 0 40 32v78h130v-85q0 -100 -125 -100h-135v75z" />
    <glyph glyph-name="uni00B9" unicode="&#xb9;" horiz-adv-x="460" 
d="M85 580v80h250v-380h-140v300h-110z" />
    <glyph glyph-name="ordmasculine" unicode="&#xba;" horiz-adv-x="460" 
d="M40 414v162q0 84 105 84h170q105 0 105 -84v-162q0 -84 -105 -84h-170q-105 0 -105 84zM180 426q0 -16 20 -16h60q20 0 20 16v138q0 16 -20 16h-60q-20 0 -20 -16v-138z" />
    <glyph glyph-name="guillemotright" unicode="&#xbb;" horiz-adv-x="750" 
d="M40 50l185 210l-185 210h175l195 -210l-195 -210h-175zM350 50l185 210l-185 210h175l195 -210l-195 -210h-175z" />
    <glyph glyph-name="onequarter" unicode="&#xbc;" horiz-adv-x="980" 
d="M40 580v80h250v-380h-140v300h-110zM225 0l362 660h158l-362 -660h-158zM560 65v80l205 235h175v-380h-140v65h-240zM708 145h92v105z" />
    <glyph glyph-name="onehalf" unicode="&#xbd;" horiz-adv-x="1040" 
d="M40 580v80h250v-380h-140v300h-110zM225 0l362 660h158l-362 -660h-158zM620 0v151q0 84 105 84h115q20 0 20 16v33q0 16 -20 16h-195v80h250q105 0 105 -84v-57q0 -84 -105 -84h-115q-20 0 -20 -16v-59h240v-80h-380z" />
    <glyph glyph-name="threequarters" unicode="&#xbe;" horiz-adv-x="1050" 
d="M50 280v80h210q20 0 20 16v43q0 16 -20 16h-160v80h160q20 0 20 16v33q0 16 -20 16h-210v80h265q105 0 105 -84v-25q0 -58 -50 -76q50 -18 50 -76v-35q0 -84 -105 -84h-265zM295 0l362 660h158l-362 -660h-158zM630 65v80l205 235h175v-380h-140v65h-240zM778 145h92v105
z" />
    <glyph glyph-name="questiondown" unicode="&#xbf;" horiz-adv-x="700" 
d="M50 -44v103q0 136 170 136h100v70h200v-190h-235q-35 0 -35 -28v-79q0 -28 35 -28h405v-120h-470q-170 0 -170 136zM320 340v150h200v-150h-200z" />
    <glyph glyph-name="Agrave" unicode="&#xc0;" horiz-adv-x="830" 
d="M5 0l285 660h250l285 -660h-196l-60 140h-308l-60 -140h-196zM313 260h204l-102 235zM240 880h160l110 -160h-130z" />
    <glyph glyph-name="Aacute" unicode="&#xc1;" horiz-adv-x="830" 
d="M5 0l285 660h250l285 -660h-196l-60 140h-308l-60 -140h-196zM313 260h204l-102 235zM320 720l110 160h160l-140 -160h-130z" />
    <glyph glyph-name="Acircumflex" unicode="&#xc2;" horiz-adv-x="830" 
d="M5 0l285 660h250l285 -660h-196l-60 140h-308l-60 -140h-196zM313 260h204l-102 235zM225 720l125 160h130l125 -160h-127l-63 75l-63 -75h-127z" />
    <glyph glyph-name="Atilde" unicode="&#xc3;" horiz-adv-x="830" 
d="M5 0l285 660h250l285 -660h-196l-60 140h-308l-60 -140h-196zM313 260h204l-102 235zM225 785l65 65q30 30 69 30q41 0 71 -30l24 -24q8 -8 16 -8t16 8l54 54l65 -65l-65 -65q-30 -30 -69 -30q-41 0 -71 30l-24 24q-8 8 -16 8t-16 -8l-54 -54z" />
    <glyph glyph-name="Adieresis" unicode="&#xc4;" horiz-adv-x="830" 
d="M5 0l285 660h250l285 -660h-196l-60 140h-308l-60 -140h-196zM313 260h204l-102 235zM230 740v120h140v-120h-140zM460 740v120h140v-120h-140z" />
    <glyph glyph-name="Aring" unicode="&#xc5;" horiz-adv-x="830" 
d="M5 0l285 660h250l285 -660h-196l-60 140h-308l-60 -140h-196zM313 260h204l-102 235zM265 757v61q0 72 90 72h120q90 0 90 -72v-61q0 -72 -90 -72h-120q-90 0 -90 72zM365 757q0 -12 15 -12h70q15 0 15 12v61q0 12 -15 12h-70q-15 0 -15 -12v-61z" />
    <glyph glyph-name="AE" unicode="&#xc6;" horiz-adv-x="1150" 
d="M5 0l285 660h810v-120h-400v-135h350v-120h-350v-165h400v-120h-600v140h-239l-60 -140h-196zM313 260h187v280h-66z" />
    <glyph glyph-name="Ccedilla" unicode="&#xc7;" horiz-adv-x="760" 
d="M70 136v388q0 136 170 136h470v-120h-405q-35 0 -35 -28v-364q0 -28 35 -28h405v-120h-470q-170 0 -170 136zM300 -110h90q40 0 40 32v78h130v-85q0 -100 -125 -100h-135v75z" />
    <glyph glyph-name="Egrave" unicode="&#xc8;" horiz-adv-x="760" 
d="M70 0v660h640v-120h-440v-135h390v-120h-390v-165h440v-120h-640zM215 880h160l110 -160h-130z" />
    <glyph glyph-name="Eacute" unicode="&#xc9;" horiz-adv-x="760" 
d="M70 0v660h640v-120h-440v-135h390v-120h-390v-165h440v-120h-640zM295 720l110 160h160l-140 -160h-130z" />
    <glyph glyph-name="Ecircumflex" unicode="&#xca;" horiz-adv-x="760" 
d="M70 0v660h640v-120h-440v-135h390v-120h-390v-165h440v-120h-640zM200 720l125 160h130l125 -160h-127l-63 75l-63 -75h-127z" />
    <glyph glyph-name="Edieresis" unicode="&#xcb;" horiz-adv-x="760" 
d="M70 0v660h640v-120h-440v-135h390v-120h-390v-165h440v-120h-640zM205 740v120h140v-120h-140zM435 740v120h140v-120h-140z" />
    <glyph glyph-name="Igrave" unicode="&#xcc;" horiz-adv-x="340" 
d="M70 0v660h200v-660h-200zM10 880h160l110 -160h-130z" />
    <glyph glyph-name="Iacute" unicode="&#xcd;" horiz-adv-x="340" 
d="M70 0v660h200v-660h-200zM60 720l110 160h160l-140 -160h-130z" />
    <glyph glyph-name="Icircumflex" unicode="&#xce;" horiz-adv-x="340" 
d="M70 0v660h200v-660h-200zM-20 720l125 160h130l125 -160h-127l-63 75l-63 -75h-127z" />
    <glyph glyph-name="Idieresis" unicode="&#xcf;" horiz-adv-x="340" 
d="M70 0v660h200v-660h-200zM-15 740v120h140v-120h-140zM215 740v120h140v-120h-140z" />
    <glyph glyph-name="Eth" unicode="&#xd0;" horiz-adv-x="840" 
d="M10 295v100h80v265h350q340 0 340 -272v-116q0 -272 -340 -272h-350v295h-80zM290 120h110q180 0 180 144v132q0 144 -180 144h-110v-145h150v-100h-150v-175z" />
    <glyph glyph-name="Ntilde" unicode="&#xd1;" horiz-adv-x="840" 
d="M70 0v660h215l285 -396v396h200v-660h-215l-285 396v-396h-200zM230 785l65 65q30 30 69 30q41 0 71 -30l24 -24q8 -8 16 -8t16 8l54 54l65 -65l-65 -65q-30 -30 -69 -30q-41 0 -71 30l-24 24q-8 8 -16 8t-16 -8l-54 -54z" />
    <glyph glyph-name="Ograve" unicode="&#xd2;" horiz-adv-x="830" 
d="M70 136v388q0 136 170 136h350q170 0 170 -136v-388q0 -136 -170 -136h-350q-170 0 -170 136zM270 148q0 -28 35 -28h220q35 0 35 28v364q0 28 -35 28h-220q-35 0 -35 -28v-364zM240 880h160l110 -160h-130z" />
    <glyph glyph-name="Oacute" unicode="&#xd3;" horiz-adv-x="830" 
d="M70 136v388q0 136 170 136h350q170 0 170 -136v-388q0 -136 -170 -136h-350q-170 0 -170 136zM270 148q0 -28 35 -28h220q35 0 35 28v364q0 28 -35 28h-220q-35 0 -35 -28v-364zM320 720l110 160h160l-140 -160h-130z" />
    <glyph glyph-name="Ocircumflex" unicode="&#xd4;" horiz-adv-x="830" 
d="M70 136v388q0 136 170 136h350q170 0 170 -136v-388q0 -136 -170 -136h-350q-170 0 -170 136zM270 148q0 -28 35 -28h220q35 0 35 28v364q0 28 -35 28h-220q-35 0 -35 -28v-364zM225 720l125 160h130l125 -160h-127l-63 75l-63 -75h-127z" />
    <glyph glyph-name="Otilde" unicode="&#xd5;" horiz-adv-x="830" 
d="M70 136v388q0 136 170 136h350q170 0 170 -136v-388q0 -136 -170 -136h-350q-170 0 -170 136zM270 148q0 -28 35 -28h220q35 0 35 28v364q0 28 -35 28h-220q-35 0 -35 -28v-364zM225 785l65 65q30 30 69 30q41 0 71 -30l24 -24q8 -8 16 -8t16 8l54 54l65 -65l-65 -65
q-30 -30 -69 -30q-41 0 -71 30l-24 24q-8 8 -16 8t-16 -8l-54 -54z" />
    <glyph glyph-name="Odieresis" unicode="&#xd6;" horiz-adv-x="830" 
d="M70 136v388q0 136 170 136h350q170 0 170 -136v-388q0 -136 -170 -136h-350q-170 0 -170 136zM270 148q0 -28 35 -28h220q35 0 35 28v364q0 28 -35 28h-220q-35 0 -35 -28v-364zM230 740v120h140v-120h-140zM460 740v120h140v-120h-140z" />
    <glyph glyph-name="multiply" unicode="&#xd7;" horiz-adv-x="740" 
d="M110 120l165 165l-165 165l95 95l165 -165l165 165l95 -95l-165 -165l165 -165l-95 -95l-165 165l-165 -165z" />
    <glyph glyph-name="Oslash" unicode="&#xd8;" horiz-adv-x="830" 
d="M70 136v388q0 136 170 136h350q170 0 170 -136v-388q0 -136 -170 -136h-350q-170 0 -170 136zM270 257l251 283h-216q-35 0 -35 -28v-255zM309 120h216q35 0 35 28v255z" />
    <glyph glyph-name="Ugrave" unicode="&#xd9;" horiz-adv-x="830" 
d="M70 136v524h200v-512q0 -28 35 -28h220q35 0 35 28v512h200v-524q0 -136 -170 -136h-350q-170 0 -170 136zM240 880h160l110 -160h-130z" />
    <glyph glyph-name="Uacute" unicode="&#xda;" horiz-adv-x="830" 
d="M70 136v524h200v-512q0 -28 35 -28h220q35 0 35 28v512h200v-524q0 -136 -170 -136h-350q-170 0 -170 136zM320 720l110 160h160l-140 -160h-130z" />
    <glyph glyph-name="Ucircumflex" unicode="&#xdb;" horiz-adv-x="830" 
d="M70 136v524h200v-512q0 -28 35 -28h220q35 0 35 28v512h200v-524q0 -136 -170 -136h-350q-170 0 -170 136zM225 720l125 160h130l125 -160h-127l-63 75l-63 -75h-127z" />
    <glyph glyph-name="Udieresis" unicode="&#xdc;" horiz-adv-x="830" 
d="M70 136v524h200v-512q0 -28 35 -28h220q35 0 35 28v512h200v-524q0 -136 -170 -136h-350q-170 0 -170 136zM230 740v120h140v-120h-140zM460 740v120h140v-120h-140z" />
    <glyph glyph-name="Yacute" unicode="&#xdd;" horiz-adv-x="810" 
d="M5 660h216l184 -255l184 255h216l-300 -415v-245h-200v245zM310 720l110 160h160l-140 -160h-130z" />
    <glyph glyph-name="Thorn" unicode="&#xde;" horiz-adv-x="780" 
d="M70 0v660h200v-105h290q170 0 170 -136v-153q0 -136 -170 -136h-290v-130h-200zM270 250h225q35 0 35 28v129q0 28 -35 28h-225v-185z" />
    <glyph glyph-name="germandbls" unicode="&#xdf;" 
d="M60 0v540q0 120 150 120h230q150 0 150 -120v-91q0 -70 -50 -99q80 -24 80 -111v-119q0 -120 -150 -120h-150v105h95q25 0 25 20v150q0 20 -25 20h-95v105h65q25 0 25 20v115q0 20 -25 20h-120q-25 0 -25 -20v-535h-180z" />
    <glyph glyph-name="agrave" unicode="&#xe0;" horiz-adv-x="650" 
d="M50 120v65q0 120 150 120h210v60q0 20 -25 20h-295v105h350q150 0 150 -120v-370h-390q-150 0 -150 120zM230 125q0 -20 25 -20h155v95h-155q-25 0 -25 -20v-55zM150 710h160l110 -160h-130z" />
    <glyph glyph-name="aacute" unicode="&#xe1;" horiz-adv-x="650" 
d="M50 120v65q0 120 150 120h210v60q0 20 -25 20h-295v105h350q150 0 150 -120v-370h-390q-150 0 -150 120zM230 125q0 -20 25 -20h155v95h-155q-25 0 -25 -20v-55zM230 550l110 160h160l-140 -160h-130z" />
    <glyph glyph-name="acircumflex" unicode="&#xe2;" horiz-adv-x="650" 
d="M50 120v65q0 120 150 120h210v60q0 20 -25 20h-295v105h350q150 0 150 -120v-370h-390q-150 0 -150 120zM230 125q0 -20 25 -20h155v95h-155q-25 0 -25 -20v-55zM135 550l125 160h130l125 -160h-127l-63 75l-63 -75h-127z" />
    <glyph glyph-name="atilde" unicode="&#xe3;" horiz-adv-x="650" 
d="M50 120v65q0 120 150 120h210v60q0 20 -25 20h-295v105h350q150 0 150 -120v-370h-390q-150 0 -150 120zM230 125q0 -20 25 -20h155v95h-155q-25 0 -25 -20v-55zM135 615l65 65q30 30 69 30q41 0 71 -30l24 -24q8 -8 16 -8t16 8l54 54l65 -65l-65 -65q-30 -30 -69 -30
q-41 0 -71 30l-24 24q-8 8 -16 8t-16 -8l-54 -54z" />
    <glyph glyph-name="adieresis" unicode="&#xe4;" horiz-adv-x="650" 
d="M50 120v65q0 120 150 120h210v60q0 20 -25 20h-295v105h350q150 0 150 -120v-370h-390q-150 0 -150 120zM230 125q0 -20 25 -20h155v95h-155q-25 0 -25 -20v-55zM140 570v120h140v-120h-140zM370 570v120h140v-120h-140z" />
    <glyph glyph-name="aring" unicode="&#xe5;" horiz-adv-x="650" 
d="M50 120v65q0 120 150 120h210v60q0 20 -25 20h-295v105h350q150 0 150 -120v-370h-390q-150 0 -150 120zM230 125q0 -20 25 -20h155v95h-155q-25 0 -25 -20v-55zM175 622v61q0 72 90 72h120q90 0 90 -72v-61q0 -72 -90 -72h-120q-90 0 -90 72zM275 622q0 -12 15 -12h70
q15 0 15 12v61q0 12 -15 12h-70q-15 0 -15 -12v-61z" />
    <glyph glyph-name="ae" unicode="&#xe6;" horiz-adv-x="1010" 
d="M50 120v65q0 120 150 120h210v60q0 20 -25 20h-295v105h710q150 0 150 -120v-170h-360v-75q0 -20 25 -20h315v-105h-730q-150 0 -150 120zM230 125q0 -20 25 -20h155v95h-155q-25 0 -25 -20v-55zM590 305h180v60q0 20 -25 20h-130q-25 0 -25 -20v-60z" />
    <glyph glyph-name="ccedilla" unicode="&#xe7;" horiz-adv-x="610" 
d="M60 120v250q0 120 150 120h360v-105h-305q-25 0 -25 -20v-240q0 -20 25 -20h305v-105h-360q-150 0 -150 120zM210 -110h90q40 0 40 32v78h130v-85q0 -100 -125 -100h-135v75z" />
    <glyph glyph-name="egrave" unicode="&#xe8;" horiz-adv-x="660" 
d="M60 120v250q0 120 150 120h240q150 0 150 -120v-170h-360v-75q0 -20 25 -20h315v-105h-370q-150 0 -150 120zM240 305h180v60q0 20 -25 20h-130q-25 0 -25 -20v-60zM155 710h160l110 -160h-130z" />
    <glyph glyph-name="eacute" unicode="&#xe9;" horiz-adv-x="660" 
d="M60 120v250q0 120 150 120h240q150 0 150 -120v-170h-360v-75q0 -20 25 -20h315v-105h-370q-150 0 -150 120zM240 305h180v60q0 20 -25 20h-130q-25 0 -25 -20v-60zM235 550l110 160h160l-140 -160h-130z" />
    <glyph glyph-name="ecircumflex" unicode="&#xea;" horiz-adv-x="660" 
d="M60 120v250q0 120 150 120h240q150 0 150 -120v-170h-360v-75q0 -20 25 -20h315v-105h-370q-150 0 -150 120zM240 305h180v60q0 20 -25 20h-130q-25 0 -25 -20v-60zM140 550l125 160h130l125 -160h-127l-63 75l-63 -75h-127z" />
    <glyph glyph-name="edieresis" unicode="&#xeb;" horiz-adv-x="660" 
d="M60 120v250q0 120 150 120h240q150 0 150 -120v-170h-360v-75q0 -20 25 -20h315v-105h-370q-150 0 -150 120zM240 305h180v60q0 20 -25 20h-130q-25 0 -25 -20v-60zM145 570v120h140v-120h-140zM375 570v120h140v-120h-140z" />
    <glyph glyph-name="igrave" unicode="&#xec;" horiz-adv-x="300" 
d="M60 0v490h180v-490h-180zM-20 710h160l110 -160h-130z" />
    <glyph glyph-name="iacute" unicode="&#xed;" horiz-adv-x="300" 
d="M60 0v490h180v-490h-180zM50 550l110 160h160l-140 -160h-130z" />
    <glyph glyph-name="icircumflex" unicode="&#xee;" horiz-adv-x="320" 
d="M70 0v490h180v-490h-180zM-30 550l125 160h130l125 -160h-127l-63 75l-63 -75h-127z" />
    <glyph glyph-name="idieresis" unicode="&#xef;" horiz-adv-x="320" 
d="M70 0v490h180v-490h-180zM-25 570v120h140v-120h-140zM205 570v120h140v-120h-140z" />
    <glyph glyph-name="eth" unicode="&#xf0;" 
d="M60 120v190q0 120 150 120h202l-34 68l-116 -34l-23 79l101 30l-43 87h178l20 -41l102 30l23 -79l-87 -26l57 -114q30 -60 30 -115v-195q0 -120 -150 -120h-260q-150 0 -150 120zM240 125q0 -20 25 -20h150q25 0 25 20v200h-175q-25 0 -25 -20v-180z" />
    <glyph glyph-name="ntilde" unicode="&#xf1;" 
d="M60 0v490h410q150 0 150 -120v-370h-180v365q0 20 -25 20h-175v-385h-180zM150 615l65 65q30 30 69 30q41 0 71 -30l24 -24q8 -8 16 -8t16 8l54 54l65 -65l-65 -65q-30 -30 -69 -30q-41 0 -71 30l-24 24q-8 8 -16 8t-16 -8l-54 -54z" />
    <glyph glyph-name="ograve" unicode="&#xf2;" 
d="M60 120v250q0 120 150 120h260q150 0 150 -120v-250q0 -120 -150 -120h-260q-150 0 -150 120zM240 125q0 -20 25 -20h150q25 0 25 20v240q0 20 -25 20h-150q-25 0 -25 -20v-240zM165 710h160l110 -160h-130z" />
    <glyph glyph-name="oacute" unicode="&#xf3;" 
d="M60 120v250q0 120 150 120h260q150 0 150 -120v-250q0 -120 -150 -120h-260q-150 0 -150 120zM240 125q0 -20 25 -20h150q25 0 25 20v240q0 20 -25 20h-150q-25 0 -25 -20v-240zM245 550l110 160h160l-140 -160h-130z" />
    <glyph glyph-name="ocircumflex" unicode="&#xf4;" 
d="M60 120v250q0 120 150 120h260q150 0 150 -120v-250q0 -120 -150 -120h-260q-150 0 -150 120zM240 125q0 -20 25 -20h150q25 0 25 20v240q0 20 -25 20h-150q-25 0 -25 -20v-240zM150 550l125 160h130l125 -160h-127l-63 75l-63 -75h-127z" />
    <glyph glyph-name="otilde" unicode="&#xf5;" 
d="M60 120v250q0 120 150 120h260q150 0 150 -120v-250q0 -120 -150 -120h-260q-150 0 -150 120zM240 125q0 -20 25 -20h150q25 0 25 20v240q0 20 -25 20h-150q-25 0 -25 -20v-240zM150 615l65 65q30 30 69 30q41 0 71 -30l24 -24q8 -8 16 -8t16 8l54 54l65 -65l-65 -65
q-30 -30 -69 -30q-41 0 -71 30l-24 24q-8 8 -16 8t-16 -8l-54 -54z" />
    <glyph glyph-name="odieresis" unicode="&#xf6;" 
d="M60 120v250q0 120 150 120h260q150 0 150 -120v-250q0 -120 -150 -120h-260q-150 0 -150 120zM240 125q0 -20 25 -20h150q25 0 25 20v240q0 20 -25 20h-150q-25 0 -25 -20v-240zM155 570v120h140v-120h-140zM385 570v120h140v-120h-140z" />
    <glyph glyph-name="divide" unicode="&#xf7;" horiz-adv-x="740" 
d="M85 225v120h570v-120h-570zM290 30v125h160v-125h-160zM290 415v125h160v-125h-160z" />
    <glyph glyph-name="oslash" unicode="&#xf8;" 
d="M60 120v250q0 120 150 120h260q150 0 150 -120v-250q0 -120 -150 -120h-260q-150 0 -150 120zM240 216l174 169h-149q-25 0 -25 -20v-149zM266 105h149q25 0 25 20v149z" />
    <glyph glyph-name="ugrave" unicode="&#xf9;" 
d="M60 120v370h180v-365q0 -20 25 -20h175v385h180v-490h-410q-150 0 -150 120zM165 710h160l110 -160h-130z" />
    <glyph glyph-name="uacute" unicode="&#xfa;" 
d="M60 120v370h180v-365q0 -20 25 -20h175v385h180v-490h-410q-150 0 -150 120zM245 550l110 160h160l-140 -160h-130z" />
    <glyph glyph-name="ucircumflex" unicode="&#xfb;" 
d="M60 120v370h180v-365q0 -20 25 -20h175v385h180v-490h-410q-150 0 -150 120zM150 550l125 160h130l125 -160h-127l-63 75l-63 -75h-127z" />
    <glyph glyph-name="udieresis" unicode="&#xfc;" 
d="M60 120v370h180v-365q0 -20 25 -20h175v385h180v-490h-410q-150 0 -150 120zM155 570v120h140v-120h-140zM385 570v120h140v-120h-140z" />
    <glyph glyph-name="yacute" unicode="&#xfd;" 
d="M10 490h178l152 -332l152 332h178l-320 -700h-178l79 173zM245 550l110 160h160l-140 -160h-130z" />
    <glyph glyph-name="thorn" unicode="&#xfe;" 
d="M60 -210v870h180v-170h230q150 0 150 -120v-250q0 -120 -150 -120h-230v-210h-180zM240 105h175q25 0 25 20v240q0 20 -25 20h-175v-280z" />
    <glyph glyph-name="ydieresis" unicode="&#xff;" 
d="M10 490h178l152 -332l152 332h178l-320 -700h-178l79 173zM155 570v120h140v-120h-140zM385 570v120h140v-120h-140z" />
    <glyph glyph-name="Amacron" unicode="&#x100;" horiz-adv-x="830" 
d="M5 0l285 660h250l285 -660h-196l-60 140h-308l-60 -140h-196zM313 260h204l-102 235zM240 750v95h350v-95h-350z" />
    <glyph glyph-name="amacron" unicode="&#x101;" horiz-adv-x="650" 
d="M50 120v65q0 120 150 120h210v60q0 20 -25 20h-295v105h350q150 0 150 -120v-370h-390q-150 0 -150 120zM230 125q0 -20 25 -20h155v95h-155q-25 0 -25 -20v-55zM150 580v95h350v-95h-350z" />
    <glyph glyph-name="Abreve" unicode="&#x102;" horiz-adv-x="830" 
d="M5 0l285 660h250l285 -660h-196l-60 140h-308l-60 -140h-196zM313 260h204l-102 235zM260 792v88h100v-83q0 -12 15 -12h80q15 0 15 12v83h100v-88q0 -72 -90 -72h-130q-90 0 -90 72z" />
    <glyph glyph-name="abreve" unicode="&#x103;" horiz-adv-x="650" 
d="M50 120v65q0 120 150 120h210v60q0 20 -25 20h-295v105h350q150 0 150 -120v-370h-390q-150 0 -150 120zM230 125q0 -20 25 -20h155v95h-155q-25 0 -25 -20v-55zM170 622v88h100v-83q0 -12 15 -12h80q15 0 15 12v83h100v-88q0 -72 -90 -72h-130q-90 0 -90 72z" />
    <glyph glyph-name="Aogonek" unicode="&#x104;" horiz-adv-x="830" 
d="M5 0l285 660h250l285 -660h-196l-60 140h-308l-60 -140h-196zM313 260h204l-102 235zM575 -20q0 100 125 100l45 -80q-40 0 -40 -32v-46q0 -32 40 -32h80v-75h-125q-125 0 -125 100v65z" />
    <glyph glyph-name="aogonek" unicode="&#x105;" horiz-adv-x="650" 
d="M50 120v65q0 120 150 120h210v60q0 20 -25 20h-295v105h350q150 0 150 -120v-370h-390q-150 0 -150 120zM230 125q0 -20 25 -20h155v95h-155q-25 0 -25 -20v-55zM340 -20q0 100 125 100l45 -80q-40 0 -40 -32v-46q0 -32 40 -32h80v-75h-125q-125 0 -125 100v65z" />
    <glyph glyph-name="Cacute" unicode="&#x106;" horiz-adv-x="760" 
d="M70 136v388q0 136 170 136h470v-120h-405q-35 0 -35 -28v-364q0 -28 35 -28h405v-120h-470q-170 0 -170 136zM315 720l110 160h160l-140 -160h-130z" />
    <glyph glyph-name="cacute" unicode="&#x107;" horiz-adv-x="610" 
d="M60 120v250q0 120 150 120h360v-105h-305q-25 0 -25 -20v-240q0 -20 25 -20h305v-105h-360q-150 0 -150 120zM235 550l110 160h160l-140 -160h-130z" />
    <glyph glyph-name="Ccircumflex" unicode="&#x108;" horiz-adv-x="760" 
d="M70 136v388q0 136 170 136h470v-120h-405q-35 0 -35 -28v-364q0 -28 35 -28h405v-120h-470q-170 0 -170 136zM215 720l125 160h130l125 -160h-127l-63 75l-63 -75h-127z" />
    <glyph glyph-name="ccircumflex" unicode="&#x109;" horiz-adv-x="610" 
d="M60 120v250q0 120 150 120h360v-105h-305q-25 0 -25 -20v-240q0 -20 25 -20h305v-105h-360q-150 0 -150 120zM135 550l125 160h130l125 -160h-127l-63 75l-63 -75h-127z" />
    <glyph glyph-name="Cdotaccent" unicode="&#x10a;" horiz-adv-x="760" 
d="M70 136v388q0 136 170 136h470v-120h-405q-35 0 -35 -28v-364q0 -28 35 -28h405v-120h-470q-170 0 -170 136zM325 740v120h160v-120h-160z" />
    <glyph glyph-name="cdotaccent" unicode="&#x10b;" horiz-adv-x="610" 
d="M60 120v250q0 120 150 120h360v-105h-305q-25 0 -25 -20v-240q0 -20 25 -20h305v-105h-360q-150 0 -150 120zM245 570v120h160v-120h-160z" />
    <glyph glyph-name="Ccaron" unicode="&#x10c;" horiz-adv-x="760" 
d="M70 136v388q0 136 170 136h470v-120h-405q-35 0 -35 -28v-364q0 -28 35 -28h405v-120h-470q-170 0 -170 136zM215 880h127l63 -75l63 75h127l-125 -160h-130z" />
    <glyph glyph-name="ccaron" unicode="&#x10d;" horiz-adv-x="610" 
d="M60 120v250q0 120 150 120h360v-105h-305q-25 0 -25 -20v-240q0 -20 25 -20h305v-105h-360q-150 0 -150 120zM135 710h127l63 -75l63 75h127l-125 -160h-130z" />
    <glyph glyph-name="Dcaron" unicode="&#x10e;" horiz-adv-x="820" 
d="M70 0v660h350q340 0 340 -272v-116q0 -272 -340 -272h-350zM270 120h110q180 0 180 144v132q0 144 -180 144h-110v-420zM205 880h127l63 -75l63 75h127l-125 -160h-130z" />
    <glyph glyph-name="dcaron" unicode="&#x10f;" horiz-adv-x="820" 
d="M660 500l35 160h140l-65 -160h-110zM60 120v250q0 120 150 120h230v170h180v-660h-410q-150 0 -150 120zM240 125q0 -20 25 -20h175v280h-175q-25 0 -25 -20v-240z" />
    <glyph glyph-name="Dcroat" unicode="&#x110;" horiz-adv-x="840" 
d="M10 295v100h80v265h350q340 0 340 -272v-116q0 -272 -340 -272h-350v295h-80zM290 120h110q180 0 180 144v132q0 144 -180 144h-110v-145h150v-100h-150v-175z" />
    <glyph glyph-name="dcroat" unicode="&#x111;" horiz-adv-x="700" 
d="M60 120v250q0 120 150 120h230v45h-180v80h180v45h180v-45h70v-80h-70v-535h-410q-150 0 -150 120zM240 125q0 -20 25 -20h175v280h-175q-25 0 -25 -20v-240z" />
    <glyph glyph-name="Emacron" unicode="&#x112;" horiz-adv-x="760" 
d="M70 0v660h640v-120h-440v-135h390v-120h-390v-165h440v-120h-640zM215 750v95h350v-95h-350z" />
    <glyph glyph-name="emacron" unicode="&#x113;" horiz-adv-x="660" 
d="M60 120v250q0 120 150 120h240q150 0 150 -120v-170h-360v-75q0 -20 25 -20h315v-105h-370q-150 0 -150 120zM240 305h180v60q0 20 -25 20h-130q-25 0 -25 -20v-60zM155 580v95h350v-95h-350z" />
    <glyph glyph-name="Ebreve" unicode="&#x114;" horiz-adv-x="760" 
d="M70 0v660h640v-120h-440v-135h390v-120h-390v-165h440v-120h-640zM235 792v88h100v-83q0 -12 15 -12h80q15 0 15 12v83h100v-88q0 -72 -90 -72h-130q-90 0 -90 72z" />
    <glyph glyph-name="ebreve" unicode="&#x115;" horiz-adv-x="660" 
d="M60 120v250q0 120 150 120h240q150 0 150 -120v-170h-360v-75q0 -20 25 -20h315v-105h-370q-150 0 -150 120zM240 305h180v60q0 20 -25 20h-130q-25 0 -25 -20v-60zM175 622v88h100v-83q0 -12 15 -12h80q15 0 15 12v83h100v-88q0 -72 -90 -72h-130q-90 0 -90 72z" />
    <glyph glyph-name="Edotaccent" unicode="&#x116;" horiz-adv-x="760" 
d="M70 0v660h640v-120h-440v-135h390v-120h-390v-165h440v-120h-640zM310 740v120h160v-120h-160z" />
    <glyph glyph-name="edotaccent" unicode="&#x117;" horiz-adv-x="660" 
d="M60 120v250q0 120 150 120h240q150 0 150 -120v-170h-360v-75q0 -20 25 -20h315v-105h-370q-150 0 -150 120zM240 305h180v60q0 20 -25 20h-130q-25 0 -25 -20v-60zM250 570v120h160v-120h-160z" />
    <glyph glyph-name="Eogonek" unicode="&#x118;" horiz-adv-x="760" 
d="M70 0v660h640v-120h-440v-135h390v-120h-390v-165h440v-120h-640zM460 -20q0 100 125 100l45 -80q-40 0 -40 -32v-46q0 -32 40 -32h80v-75h-125q-125 0 -125 100v65z" />
    <glyph glyph-name="eogonek" unicode="&#x119;" horiz-adv-x="660" 
d="M60 120v250q0 120 150 120h240q150 0 150 -120v-170h-360v-75q0 -20 25 -20h315v-105h-370q-150 0 -150 120zM240 305h180v60q0 20 -25 20h-130q-25 0 -25 -20v-60zM330 -20q0 100 125 100l45 -80q-40 0 -40 -32v-46q0 -32 40 -32h80v-75h-125q-125 0 -125 100v65z" />
    <glyph glyph-name="Ecaron" unicode="&#x11a;" horiz-adv-x="760" 
d="M70 0v660h640v-120h-440v-135h390v-120h-390v-165h440v-120h-640zM200 880h127l63 -75l63 75h127l-125 -160h-130z" />
    <glyph glyph-name="ecaron" unicode="&#x11b;" horiz-adv-x="660" 
d="M60 120v250q0 120 150 120h240q150 0 150 -120v-170h-360v-75q0 -20 25 -20h315v-105h-370q-150 0 -150 120zM240 305h180v60q0 20 -25 20h-130q-25 0 -25 -20v-60zM140 710h127l63 -75l63 75h127l-125 -160h-130z" />
    <glyph glyph-name="Gcircumflex" unicode="&#x11c;" horiz-adv-x="820" 
d="M70 136v388q0 136 170 136h470v-120h-405q-35 0 -35 -28v-364q0 -28 35 -28h245v170h-130v120h330v-410h-510q-170 0 -170 136zM220 720l125 160h130l125 -160h-127l-63 75l-63 -75h-127z" />
    <glyph glyph-name="gcircumflex" unicode="&#x11d;" 
d="M60 120v250q0 120 150 120h410v-580q0 -120 -150 -120h-390v105h320q40 0 40 32v73h-230q-150 0 -150 120zM240 125q0 -20 25 -20h175v280h-175q-25 0 -25 -20v-240zM150 550l125 160h130l125 -160h-127l-63 75l-63 -75h-127z" />
    <glyph glyph-name="Gbreve" unicode="&#x11e;" horiz-adv-x="820" 
d="M70 136v388q0 136 170 136h470v-120h-405q-35 0 -35 -28v-364q0 -28 35 -28h245v170h-130v120h330v-410h-510q-170 0 -170 136zM255 792v88h100v-83q0 -12 15 -12h80q15 0 15 12v83h100v-88q0 -72 -90 -72h-130q-90 0 -90 72z" />
    <glyph glyph-name="gbreve" unicode="&#x11f;" 
d="M60 120v250q0 120 150 120h410v-580q0 -120 -150 -120h-390v105h320q40 0 40 32v73h-230q-150 0 -150 120zM240 125q0 -20 25 -20h175v280h-175q-25 0 -25 -20v-240zM185 622v88h100v-83q0 -12 15 -12h80q15 0 15 12v83h100v-88q0 -72 -90 -72h-130q-90 0 -90 72z" />
    <glyph glyph-name="Gdotaccent" unicode="&#x120;" horiz-adv-x="820" 
d="M70 136v388q0 136 170 136h470v-120h-405q-35 0 -35 -28v-364q0 -28 35 -28h245v170h-130v120h330v-410h-510q-170 0 -170 136zM330 740v120h160v-120h-160z" />
    <glyph glyph-name="gdotaccent" unicode="&#x121;" 
d="M60 120v250q0 120 150 120h410v-580q0 -120 -150 -120h-390v105h320q40 0 40 32v73h-230q-150 0 -150 120zM240 125q0 -20 25 -20h175v280h-175q-25 0 -25 -20v-240zM260 570v120h160v-120h-160z" />
    <glyph glyph-name="uni0122" unicode="&#x122;" horiz-adv-x="820" 
d="M340 -210l35 160h140l-65 -160h-110zM70 136v388q0 136 170 136h470v-120h-405q-35 0 -35 -28v-364q0 -28 35 -28h245v170h-130v120h330v-410h-510q-170 0 -170 136z" />
    <glyph glyph-name="uni0123" unicode="&#x123;" 
d="M275 550l65 160h110l-35 -160h-140zM60 120v250q0 120 150 120h410v-580q0 -120 -150 -120h-390v105h320q40 0 40 32v73h-230q-150 0 -150 120zM240 125q0 -20 25 -20h175v280h-175q-25 0 -25 -20v-240z" />
    <glyph glyph-name="Hcircumflex" unicode="&#x124;" horiz-adv-x="830" 
d="M70 0v660h200v-255h290v255h200v-660h-200v285h-290v-285h-200zM225 720l125 160h130l125 -160h-127l-63 75l-63 -75h-127z" />
    <glyph glyph-name="hcircumflex" unicode="&#x125;" 
d="M60 0v660h180v-170h230q150 0 150 -120v-370h-180v365q0 20 -25 20h-175v-385h-180zM150 720l125 160h130l125 -160h-127l-63 75l-63 -75h-127z" />
    <glyph glyph-name="Hbar" unicode="&#x126;" horiz-adv-x="870" 
d="M10 485v100h80v75h200v-75h290v75h200v-75h80v-100h-80v-485h-200v285h-290v-285h-200v485h-80zM290 405h290v80h-290v-80z" />
    <glyph glyph-name="hbar" unicode="&#x127;" horiz-adv-x="700" 
d="M10 535v80h70v45h180v-45h180v-80h-180v-45h230q150 0 150 -120v-370h-180v365q0 20 -25 20h-175v-385h-180v535h-70z" />
    <glyph glyph-name="Itilde" unicode="&#x128;" horiz-adv-x="340" 
d="M70 0v660h200v-660h-200zM-20 785l65 65q30 30 69 30q41 0 71 -30l24 -24q8 -8 16 -8t16 8l54 54l65 -65l-65 -65q-30 -30 -69 -30q-41 0 -71 30l-24 24q-8 8 -16 8t-16 -8l-54 -54z" />
    <glyph glyph-name="itilde" unicode="&#x129;" horiz-adv-x="320" 
d="M70 0v490h180v-490h-180zM-30 615l65 65q30 30 69 30q41 0 71 -30l24 -24q8 -8 16 -8t16 8l54 54l65 -65l-65 -65q-30 -30 -69 -30q-41 0 -71 30l-24 24q-8 8 -16 8t-16 -8l-54 -54z" />
    <glyph glyph-name="Imacron" unicode="&#x12a;" horiz-adv-x="340" 
d="M70 0v660h200v-660h-200zM-5 750v95h350v-95h-350z" />
    <glyph glyph-name="imacron" unicode="&#x12b;" horiz-adv-x="320" 
d="M70 0v490h180v-490h-180zM-15 580v95h350v-95h-350z" />
    <glyph glyph-name="Ibreve" unicode="&#x12c;" horiz-adv-x="340" 
d="M70 0v660h200v-660h-200zM15 792v88h100v-83q0 -12 15 -12h80q15 0 15 12v83h100v-88q0 -72 -90 -72h-130q-90 0 -90 72z" />
    <glyph glyph-name="ibreve" unicode="&#x12d;" horiz-adv-x="320" 
d="M70 0v490h180v-490h-180zM5 622v88h100v-83q0 -12 15 -12h80q15 0 15 12v83h100v-88q0 -72 -90 -72h-130q-90 0 -90 72z" />
    <glyph glyph-name="Iogonek" unicode="&#x12e;" horiz-adv-x="340" 
d="M70 0v660h200v-660h-200zM25 -20q0 100 125 100l45 -80q-40 0 -40 -32v-46q0 -32 40 -32h80v-75h-125q-125 0 -125 100v65z" />
    <glyph glyph-name="iogonek" unicode="&#x12f;" horiz-adv-x="300" 
d="M60 0v490h180v-490h-180zM60 560v100h180v-100h-180zM15 -20q0 100 125 100l45 -80q-40 0 -40 -32v-46q0 -32 40 -32h80v-75h-125q-125 0 -125 100v65z" />
    <glyph glyph-name="Idotaccent" unicode="&#x130;" horiz-adv-x="340" 
d="M70 0v660h200v-660h-200zM90 740v120h160v-120h-160z" />
    <glyph glyph-name="dotlessi" unicode="&#x131;" horiz-adv-x="300" 
d="M60 0v490h180v-490h-180z" />
    <glyph glyph-name="IJ" unicode="&#x132;" horiz-adv-x="1090" 
d="M70 0v660h200v-660h-200zM380 160v135h200v-119q0 -56 70 -56h135q35 0 35 28v512h200v-524q0 -136 -170 -136h-270q-200 0 -200 160z" />
    <glyph glyph-name="ij" unicode="&#x133;" horiz-adv-x="600" 
d="M60 0v490h180v-490h-180zM60 560v100h180v-100h-180zM250 -105h70q40 0 40 32v563h180v-580q0 -120 -150 -120h-140v105zM360 560v100h180v-100h-180z" />
    <glyph glyph-name="Jcircumflex" unicode="&#x134;" horiz-adv-x="750" 
d="M40 160v135h200v-119q0 -56 70 -56h135q35 0 35 28v512h200v-524q0 -136 -170 -136h-270q-200 0 -200 160zM390 720l125 160h130l125 -160h-127l-63 75l-63 -75h-127z" />
    <glyph glyph-name="jcircumflex" unicode="&#x135;" horiz-adv-x="320" 
d="M-40 -105h70q40 0 40 32v563h180v-580q0 -120 -150 -120h-140v105zM-30 550l125 160h130l125 -160h-127l-63 75l-63 -75h-127z" />
    <glyph glyph-name="uni0136" unicode="&#x136;" horiz-adv-x="800" 
d="M305 -210l35 160h140l-65 -160h-110zM70 0v660h200v-255l265 255h245l-283 -273l293 -387h-224l-199 263l-97 -94v-169h-200z" />
    <glyph glyph-name="uni0137" unicode="&#x137;" horiz-adv-x="660" 
d="M235 -210l35 160h140l-65 -160h-110zM60 0v660h180v-350l185 180h215l-211 -205l221 -285h-195l-137 177l-78 -76v-101h-180z" />
    <glyph glyph-name="kgreenlandic" unicode="&#x138;" horiz-adv-x="660" 
d="M60 0v490h180v-180l185 180h215l-211 -205l221 -285h-195l-137 177l-78 -76v-101h-180z" />
    <glyph glyph-name="Lacute" unicode="&#x139;" horiz-adv-x="700" 
d="M70 0v660h200v-540h410v-120h-610zM80 720l110 160h160l-140 -160h-130z" />
    <glyph glyph-name="lacute" unicode="&#x13a;" horiz-adv-x="300" 
d="M60 0v660h180v-660h-180zM50 720l110 160h160l-140 -160h-130z" />
    <glyph glyph-name="uni013B" unicode="&#x13b;" horiz-adv-x="700" 
d="M310 -210l35 160h140l-65 -160h-110zM70 0v660h200v-540h410v-120h-610z" />
    <glyph glyph-name="uni013C" unicode="&#x13c;" horiz-adv-x="300" 
d="M45 -210l35 160h140l-65 -160h-110zM60 0v660h180v-660h-180z" />
    <glyph glyph-name="Lcaron" unicode="&#x13d;" horiz-adv-x="700" 
d="M370 500l35 160h140l-65 -160h-110zM70 0v660h200v-540h410v-120h-610z" />
    <glyph glyph-name="lcaron" unicode="&#x13e;" horiz-adv-x="440" 
d="M280 500l35 160h140l-65 -160h-110zM60 0v660h180v-660h-180z" />
    <glyph glyph-name="Ldot" unicode="&#x13f;" horiz-adv-x="700" 
d="M70 0v660h200v-540h410v-120h-610zM415 300v120h160v-120h-160z" />
    <glyph glyph-name="ldot" unicode="&#x140;" horiz-adv-x="520" 
d="M60 0v660h180v-660h-180zM330 305v120h160v-120h-160z" />
    <glyph glyph-name="Lslash" unicode="&#x141;" horiz-adv-x="760" 
d="M0 268l110 55v337h200v-237l143 71l47 -94l-190 -95v-185h430v-120h-630v206l-63 -32z" />
    <glyph glyph-name="lslash" unicode="&#x142;" horiz-adv-x="400" 
d="M0 290l110 54v316h180v-229l71 35l39 -81l-110 -54v-331h-180v243l-71 -34z" />
    <glyph glyph-name="Nacute" unicode="&#x143;" horiz-adv-x="840" 
d="M70 0v660h215l285 -396v396h200v-660h-215l-285 396v-396h-200zM325 720l110 160h160l-140 -160h-130z" />
    <glyph glyph-name="nacute" unicode="&#x144;" 
d="M60 0v490h410q150 0 150 -120v-370h-180v365q0 20 -25 20h-175v-385h-180zM245 550l110 160h160l-140 -160h-130z" />
    <glyph glyph-name="uni0145" unicode="&#x145;" horiz-adv-x="840" 
d="M335 -210l35 160h140l-65 -160h-110zM70 0v660h215l285 -396v396h200v-660h-215l-285 396v-396h-200z" />
    <glyph glyph-name="uni0146" unicode="&#x146;" 
d="M250 -210l35 160h140l-65 -160h-110zM60 0v490h410q150 0 150 -120v-370h-180v365q0 20 -25 20h-175v-385h-180z" />
    <glyph glyph-name="Ncaron" unicode="&#x147;" horiz-adv-x="840" 
d="M70 0v660h215l285 -396v396h200v-660h-215l-285 396v-396h-200zM230 880h127l63 -75l63 75h127l-125 -160h-130z" />
    <glyph glyph-name="ncaron" unicode="&#x148;" 
d="M60 0v490h410q150 0 150 -120v-370h-180v365q0 20 -25 20h-175v-385h-180zM150 710h127l63 -75l63 75h127l-125 -160h-130z" />
    <glyph glyph-name="Eng" unicode="&#x14a;" horiz-adv-x="830" 
d="M70 0v660h520q170 0 170 -136v-598q0 -136 -170 -136h-190v120h110q50 0 50 40v562q0 28 -35 28h-255v-540h-200z" />
    <glyph glyph-name="eng" unicode="&#x14b;" 
d="M60 0v490h410q150 0 150 -120v-460q0 -120 -150 -120h-150v105h80q40 0 40 32v438q0 20 -25 20h-175v-385h-180z" />
    <glyph glyph-name="Omacron" unicode="&#x14c;" horiz-adv-x="830" 
d="M70 136v388q0 136 170 136h350q170 0 170 -136v-388q0 -136 -170 -136h-350q-170 0 -170 136zM270 148q0 -28 35 -28h220q35 0 35 28v364q0 28 -35 28h-220q-35 0 -35 -28v-364zM240 750v95h350v-95h-350z" />
    <glyph glyph-name="omacron" unicode="&#x14d;" 
d="M60 120v250q0 120 150 120h260q150 0 150 -120v-250q0 -120 -150 -120h-260q-150 0 -150 120zM240 125q0 -20 25 -20h150q25 0 25 20v240q0 20 -25 20h-150q-25 0 -25 -20v-240zM165 580v95h350v-95h-350z" />
    <glyph glyph-name="Obreve" unicode="&#x14e;" horiz-adv-x="830" 
d="M70 136v388q0 136 170 136h350q170 0 170 -136v-388q0 -136 -170 -136h-350q-170 0 -170 136zM270 148q0 -28 35 -28h220q35 0 35 28v364q0 28 -35 28h-220q-35 0 -35 -28v-364zM260 792v88h100v-83q0 -12 15 -12h80q15 0 15 12v83h100v-88q0 -72 -90 -72h-130
q-90 0 -90 72z" />
    <glyph glyph-name="obreve" unicode="&#x14f;" 
d="M60 120v250q0 120 150 120h260q150 0 150 -120v-250q0 -120 -150 -120h-260q-150 0 -150 120zM240 125q0 -20 25 -20h150q25 0 25 20v240q0 20 -25 20h-150q-25 0 -25 -20v-240zM185 622v88h100v-83q0 -12 15 -12h80q15 0 15 12v83h100v-88q0 -72 -90 -72h-130
q-90 0 -90 72z" />
    <glyph glyph-name="Ohungarumlaut" unicode="&#x150;" horiz-adv-x="830" 
d="M70 136v388q0 136 170 136h350q170 0 170 -136v-388q0 -136 -170 -136h-350q-170 0 -170 136zM270 148q0 -28 35 -28h220q35 0 35 28v364q0 28 -35 28h-220q-35 0 -35 -28v-364zM235 720l100 160h145l-130 -160h-115zM440 720l100 160h145l-130 -160h-115z" />
    <glyph glyph-name="ohungarumlaut" unicode="&#x151;" 
d="M60 120v250q0 120 150 120h260q150 0 150 -120v-250q0 -120 -150 -120h-260q-150 0 -150 120zM240 125q0 -20 25 -20h150q25 0 25 20v240q0 20 -25 20h-150q-25 0 -25 -20v-240zM160 550l100 160h145l-130 -160h-115zM365 550l100 160h145l-130 -160h-115z" />
    <glyph glyph-name="OE" unicode="&#x152;" horiz-adv-x="1190" 
d="M70 136v388q0 136 170 136h900v-120h-400v-135h350v-120h-350v-165h400v-120h-900q-170 0 -170 136zM270 148q0 -28 35 -28h235v420h-235q-35 0 -35 -28v-364z" />
    <glyph glyph-name="oe" unicode="&#x153;" horiz-adv-x="1020" 
d="M60 120v250q0 120 150 120h600q150 0 150 -120v-170h-360v-75q0 -20 25 -20h315v-105h-730q-150 0 -150 120zM240 125q0 -20 25 -20h130q25 0 25 20v240q0 20 -25 20h-130q-25 0 -25 -20v-240zM600 305h180v60q0 20 -25 20h-130q-25 0 -25 -20v-60z" />
    <glyph glyph-name="Racute" unicode="&#x154;" horiz-adv-x="790" 
d="M70 0v660h490q170 0 170 -136v-138q0 -120 -135 -136l165 -250h-216l-165 250h-109v-250h-200zM270 370h225q35 0 35 28v114q0 28 -35 28h-225v-170zM305 720l110 160h160l-140 -160h-130z" />
    <glyph glyph-name="racute" unicode="&#x155;" horiz-adv-x="440" 
d="M60 0v370q0 120 150 120h200v-105h-145q-25 0 -25 -20v-365h-180zM140 550l110 160h160l-140 -160h-130z" />
    <glyph glyph-name="uni0156" unicode="&#x156;" horiz-adv-x="790" 
d="M300 -210l35 160h140l-65 -160h-110zM70 0v660h490q170 0 170 -136v-138q0 -120 -135 -136l165 -250h-216l-165 250h-109v-250h-200zM270 370h225q35 0 35 28v114q0 28 -35 28h-225v-170z" />
    <glyph glyph-name="uni0157" unicode="&#x157;" horiz-adv-x="440" 
d="M45 -210l35 160h140l-65 -160h-110zM60 0v370q0 120 150 120h200v-105h-145q-25 0 -25 -20v-365h-180z" />
    <glyph glyph-name="Rcaron" unicode="&#x158;" horiz-adv-x="790" 
d="M70 0v660h490q170 0 170 -136v-138q0 -120 -135 -136l165 -250h-216l-165 250h-109v-250h-200zM270 370h225q35 0 35 28v114q0 28 -35 28h-225v-170zM210 880h127l63 -75l63 75h127l-125 -160h-130z" />
    <glyph glyph-name="rcaron" unicode="&#x159;" horiz-adv-x="440" 
d="M60 0v370q0 120 150 120h200v-105h-145q-25 0 -25 -20v-365h-180zM45 710h127l63 -75l63 75h127l-125 -160h-130z" />
    <glyph glyph-name="Sacute" unicode="&#x15a;" horiz-adv-x="780" 
d="M60 0v120h425q35 0 35 28v109q0 28 -35 28h-255q-170 0 -170 136v103q0 136 170 136h440v-120h-375q-35 0 -35 -28v-79q0 -28 35 -28h255q170 0 170 -136v-133q0 -136 -170 -136h-490zM295 720l110 160h160l-140 -160h-130z" />
    <glyph glyph-name="sacute" unicode="&#x15b;" horiz-adv-x="610" 
d="M50 0v105h305q25 0 25 20v55q0 20 -25 20h-155q-150 0 -150 120v50q0 120 150 120h320v-105h-265q-25 0 -25 -20v-40q0 -20 25 -20h155q150 0 150 -120v-65q0 -120 -150 -120h-360zM210 550l110 160h160l-140 -160h-130z" />
    <glyph glyph-name="Scircumflex" unicode="&#x15c;" horiz-adv-x="780" 
d="M60 0v120h425q35 0 35 28v109q0 28 -35 28h-255q-170 0 -170 136v103q0 136 170 136h440v-120h-375q-35 0 -35 -28v-79q0 -28 35 -28h255q170 0 170 -136v-133q0 -136 -170 -136h-490zM200 720l125 160h130l125 -160h-127l-63 75l-63 -75h-127z" />
    <glyph glyph-name="scircumflex" unicode="&#x15d;" horiz-adv-x="610" 
d="M50 0v105h305q25 0 25 20v55q0 20 -25 20h-155q-150 0 -150 120v50q0 120 150 120h320v-105h-265q-25 0 -25 -20v-40q0 -20 25 -20h155q150 0 150 -120v-65q0 -120 -150 -120h-360zM115 550l125 160h130l125 -160h-127l-63 75l-63 -75h-127z" />
    <glyph glyph-name="Scedilla" unicode="&#x15e;" horiz-adv-x="780" 
d="M60 0v120h425q35 0 35 28v109q0 28 -35 28h-255q-170 0 -170 136v103q0 136 170 136h440v-120h-375q-35 0 -35 -28v-79q0 -28 35 -28h255q170 0 170 -136v-133q0 -136 -170 -136h-490zM265 -110h90q40 0 40 32v78h130v-85q0 -100 -125 -100h-135v75z" />
    <glyph glyph-name="scedilla" unicode="&#x15f;" horiz-adv-x="610" 
d="M50 0v105h305q25 0 25 20v55q0 20 -25 20h-155q-150 0 -150 120v50q0 120 150 120h320v-105h-265q-25 0 -25 -20v-40q0 -20 25 -20h155q150 0 150 -120v-65q0 -120 -150 -120h-360zM155 -110h90q40 0 40 32v78h130v-85q0 -100 -125 -100h-135v75z" />
    <glyph glyph-name="Scaron" unicode="&#x160;" horiz-adv-x="780" 
d="M60 0v120h425q35 0 35 28v109q0 28 -35 28h-255q-170 0 -170 136v103q0 136 170 136h440v-120h-375q-35 0 -35 -28v-79q0 -28 35 -28h255q170 0 170 -136v-133q0 -136 -170 -136h-490zM200 880h127l63 -75l63 75h127l-125 -160h-130z" />
    <glyph glyph-name="scaron" unicode="&#x161;" horiz-adv-x="610" 
d="M50 0v105h305q25 0 25 20v55q0 20 -25 20h-155q-150 0 -150 120v50q0 120 150 120h320v-105h-265q-25 0 -25 -20v-40q0 -20 25 -20h155q150 0 150 -120v-65q0 -120 -150 -120h-360zM115 710h127l63 -75l63 75h127l-125 -160h-130z" />
    <glyph glyph-name="uni0162" unicode="&#x162;" horiz-adv-x="780" 
d="M20 540v120h740v-120h-270v-540h-200v540h-270zM230 -110h90q40 0 40 32v78h130v-85q0 -100 -125 -100h-135v75z" />
    <glyph glyph-name="uni0163" unicode="&#x163;" horiz-adv-x="450" 
d="M60 120v540h180v-170h170v-105h-170v-260q0 -20 25 -20h145v-105h-200q-150 0 -150 120zM100 -110h90q40 0 40 32v78h130v-85q0 -100 -125 -100h-135v75z" />
    <glyph glyph-name="Tcaron" unicode="&#x164;" horiz-adv-x="780" 
d="M20 540v120h740v-120h-270v-540h-200v540h-270zM200 880h127l63 -75l63 75h127l-125 -160h-130z" />
    <glyph glyph-name="tcaron" unicode="&#x165;" horiz-adv-x="450" 
d="M305 580l35 160h140l-65 -160h-110zM60 120v540h180v-170h170v-105h-170v-260q0 -20 25 -20h145v-105h-200q-150 0 -150 120z" />
    <glyph glyph-name="Tbar" unicode="&#x166;" horiz-adv-x="780" 
d="M20 540v120h740v-120h-270v-145h150v-100h-150v-295h-200v295h-150v100h150v145h-270z" />
    <glyph glyph-name="tbar" unicode="&#x167;" horiz-adv-x="470" 
d="M10 215v80h70v365h180v-170h170v-105h-170v-90h160v-80h-160v-90q0 -20 25 -20h145v-105h-200q-150 0 -150 120v95h-70z" />
    <glyph glyph-name="Utilde" unicode="&#x168;" horiz-adv-x="830" 
d="M70 136v524h200v-512q0 -28 35 -28h220q35 0 35 28v512h200v-524q0 -136 -170 -136h-350q-170 0 -170 136zM225 785l65 65q30 30 69 30q41 0 71 -30l24 -24q8 -8 16 -8t16 8l54 54l65 -65l-65 -65q-30 -30 -69 -30q-41 0 -71 30l-24 24q-8 8 -16 8t-16 -8l-54 -54z" />
    <glyph glyph-name="utilde" unicode="&#x169;" 
d="M60 120v370h180v-365q0 -20 25 -20h175v385h180v-490h-410q-150 0 -150 120zM150 615l65 65q30 30 69 30q41 0 71 -30l24 -24q8 -8 16 -8t16 8l54 54l65 -65l-65 -65q-30 -30 -69 -30q-41 0 -71 30l-24 24q-8 8 -16 8t-16 -8l-54 -54z" />
    <glyph glyph-name="Umacron" unicode="&#x16a;" horiz-adv-x="830" 
d="M70 136v524h200v-512q0 -28 35 -28h220q35 0 35 28v512h200v-524q0 -136 -170 -136h-350q-170 0 -170 136zM240 750v95h350v-95h-350z" />
    <glyph glyph-name="umacron" unicode="&#x16b;" 
d="M60 120v370h180v-365q0 -20 25 -20h175v385h180v-490h-410q-150 0 -150 120zM165 580v95h350v-95h-350z" />
    <glyph glyph-name="Ubreve" unicode="&#x16c;" horiz-adv-x="830" 
d="M70 136v524h200v-512q0 -28 35 -28h220q35 0 35 28v512h200v-524q0 -136 -170 -136h-350q-170 0 -170 136zM260 792v88h100v-83q0 -12 15 -12h80q15 0 15 12v83h100v-88q0 -72 -90 -72h-130q-90 0 -90 72z" />
    <glyph glyph-name="ubreve" unicode="&#x16d;" 
d="M60 120v370h180v-365q0 -20 25 -20h175v385h180v-490h-410q-150 0 -150 120zM185 622v88h100v-83q0 -12 15 -12h80q15 0 15 12v83h100v-88q0 -72 -90 -72h-130q-90 0 -90 72z" />
    <glyph glyph-name="Uring" unicode="&#x16e;" horiz-adv-x="830" 
d="M70 136v524h200v-512q0 -28 35 -28h220q35 0 35 28v512h200v-524q0 -136 -170 -136h-350q-170 0 -170 136zM265 757v61q0 72 90 72h120q90 0 90 -72v-61q0 -72 -90 -72h-120q-90 0 -90 72zM365 757q0 -12 15 -12h70q15 0 15 12v61q0 12 -15 12h-70q-15 0 -15 -12v-61z
" />
    <glyph glyph-name="uring" unicode="&#x16f;" 
d="M60 120v370h180v-365q0 -20 25 -20h175v385h180v-490h-410q-150 0 -150 120zM190 622v61q0 72 90 72h120q90 0 90 -72v-61q0 -72 -90 -72h-120q-90 0 -90 72zM290 622q0 -12 15 -12h70q15 0 15 12v61q0 12 -15 12h-70q-15 0 -15 -12v-61z" />
    <glyph glyph-name="Uhungarumlaut" unicode="&#x170;" horiz-adv-x="830" 
d="M70 136v524h200v-512q0 -28 35 -28h220q35 0 35 28v512h200v-524q0 -136 -170 -136h-350q-170 0 -170 136zM235 720l100 160h145l-130 -160h-115zM440 720l100 160h145l-130 -160h-115z" />
    <glyph glyph-name="uhungarumlaut" unicode="&#x171;" 
d="M60 120v370h180v-365q0 -20 25 -20h175v385h180v-490h-410q-150 0 -150 120zM160 550l100 160h145l-130 -160h-115zM365 550l100 160h145l-130 -160h-115z" />
    <glyph glyph-name="Uogonek" unicode="&#x172;" horiz-adv-x="830" 
d="M70 136v524h200v-512q0 -28 35 -28h220q35 0 35 28v512h200v-524q0 -136 -170 -136h-350q-170 0 -170 136zM410 -20q0 100 125 100l45 -80q-40 0 -40 -32v-46q0 -32 40 -32h80v-75h-125q-125 0 -125 100v65z" />
    <glyph glyph-name="uogonek" unicode="&#x173;" 
d="M60 120v370h180v-365q0 -20 25 -20h175v385h180v-490h-410q-150 0 -150 120zM370 -20q0 100 125 100l45 -80q-40 0 -40 -32v-46q0 -32 40 -32h80v-75h-125q-125 0 -125 100v65z" />
    <glyph glyph-name="Wcircumflex" unicode="&#x174;" horiz-adv-x="1200" 
d="M15 660h195l131 -465l154 465h210l154 -465l131 465h195l-185 -660h-255l-145 437l-145 -437h-255zM410 720l125 160h130l125 -160h-127l-63 75l-63 -75h-127z" />
    <glyph glyph-name="wcircumflex" unicode="&#x175;" horiz-adv-x="930" 
d="M10 490h170l101 -320l101 320h166l101 -320l101 320h170l-155 -490h-205l-95 301l-95 -301h-205zM275 550l125 160h130l125 -160h-127l-63 75l-63 -75h-127z" />
    <glyph glyph-name="Ycircumflex" unicode="&#x176;" horiz-adv-x="810" 
d="M5 660h216l184 -255l184 255h216l-300 -415v-245h-200v245zM215 720l125 160h130l125 -160h-127l-63 75l-63 -75h-127z" />
    <glyph glyph-name="ycircumflex" unicode="&#x177;" 
d="M10 490h178l152 -332l152 332h178l-320 -700h-178l79 173zM150 550l125 160h130l125 -160h-127l-63 75l-63 -75h-127z" />
    <glyph glyph-name="Ydieresis" unicode="&#x178;" horiz-adv-x="810" 
d="M5 660h216l184 -255l184 255h216l-300 -415v-245h-200v245zM220 740v120h140v-120h-140zM450 740v120h140v-120h-140z" />
    <glyph glyph-name="Zacute" unicode="&#x179;" horiz-adv-x="750" 
d="M40 0v120l415 420h-405v120h650v-120l-415 -420h425v-120h-670zM280 720l110 160h160l-140 -160h-130z" />
    <glyph glyph-name="zacute" unicode="&#x17a;" horiz-adv-x="620" 
d="M40 0v105l303 280h-293v105h520v-105l-303 -280h313v-105h-540zM215 550l110 160h160l-140 -160h-130z" />
    <glyph glyph-name="Zdotaccent" unicode="&#x17b;" horiz-adv-x="750" 
d="M40 0v120l415 420h-405v120h650v-120l-415 -420h425v-120h-670zM295 740v120h160v-120h-160z" />
    <glyph glyph-name="zdotaccent" unicode="&#x17c;" horiz-adv-x="620" 
d="M40 0v105l303 280h-293v105h520v-105l-303 -280h313v-105h-540zM230 570v120h160v-120h-160z" />
    <glyph glyph-name="Zcaron" unicode="&#x17d;" horiz-adv-x="750" 
d="M40 0v120l415 420h-405v120h650v-120l-415 -420h425v-120h-670zM185 880h127l63 -75l63 75h127l-125 -160h-130z" />
    <glyph glyph-name="zcaron" unicode="&#x17e;" horiz-adv-x="620" 
d="M40 0v105l303 280h-293v105h520v-105l-303 -280h313v-105h-540zM120 710h127l63 -75l63 75h127l-125 -160h-130z" />
    <glyph glyph-name="florin" unicode="&#x192;" horiz-adv-x="740" 
d="M95 -105h125q25 0 25 20v625q0 120 150 120h200v-105h-145q-25 0 -25 -20v-45h170v-105h-170v-475q0 -120 -150 -120h-180v105z" />
    <glyph glyph-name="Aringacute" unicode="&#x1fa;" horiz-adv-x="830" 
d="M5 0l285 660h250l285 -660h-196l-60 140h-308l-60 -140h-196zM313 260h204l-102 235zM265 757v61q0 72 90 72h120q90 0 90 -72v-61q0 -72 -90 -72h-120q-90 0 -90 72zM365 757q0 -12 15 -12h70q15 0 15 12v61q0 12 -15 12h-70q-15 0 -15 -12v-61zM585 730l110 160h160
l-140 -160h-130z" />
    <glyph glyph-name="aringacute" unicode="&#x1fb;" horiz-adv-x="650" 
d="M50 120v65q0 120 150 120h210v60q0 20 -25 20h-295v105h350q150 0 150 -120v-370h-390q-150 0 -150 120zM230 125q0 -20 25 -20h155v95h-155q-25 0 -25 -20v-55zM175 622v61q0 72 90 72h120q90 0 90 -72v-61q0 -72 -90 -72h-120q-90 0 -90 72zM275 622q0 -12 15 -12h70
q15 0 15 12v61q0 12 -15 12h-70q-15 0 -15 -12v-61zM225 730l110 160h160l-140 -160h-130z" />
    <glyph glyph-name="AEacute" unicode="&#x1fc;" horiz-adv-x="1150" 
d="M5 0l285 660h810v-120h-400v-135h350v-120h-350v-165h400v-120h-600v140h-239l-60 -140h-196zM313 260h187v280h-66zM515 720l110 160h160l-140 -160h-130z" />
    <glyph glyph-name="aeacute" unicode="&#x1fd;" horiz-adv-x="1010" 
d="M50 120v65q0 120 150 120h210v60q0 20 -25 20h-295v105h710q150 0 150 -120v-170h-360v-75q0 -20 25 -20h315v-105h-730q-150 0 -150 120zM230 125q0 -20 25 -20h155v95h-155q-25 0 -25 -20v-55zM590 305h180v60q0 20 -25 20h-130q-25 0 -25 -20v-60zM405 550l110 160
h160l-140 -160h-130z" />
    <glyph glyph-name="Oslashacute" unicode="&#x1fe;" horiz-adv-x="830" 
d="M70 136v388q0 136 170 136h350q170 0 170 -136v-388q0 -136 -170 -136h-350q-170 0 -170 136zM270 257l251 283h-216q-35 0 -35 -28v-255zM309 120h216q35 0 35 28v255zM320 720l110 160h160l-140 -160h-130z" />
    <glyph glyph-name="oslashacute" unicode="&#x1ff;" 
d="M60 120v250q0 120 150 120h260q150 0 150 -120v-250q0 -120 -150 -120h-260q-150 0 -150 120zM240 216l174 169h-149q-25 0 -25 -20v-149zM266 105h149q25 0 25 20v149zM245 550l110 160h160l-140 -160h-130z" />
    <glyph glyph-name="uni0218" unicode="&#x218;" horiz-adv-x="780" 
d="M305 -210l35 160h140l-65 -160h-110zM60 0v120h425q35 0 35 28v109q0 28 -35 28h-255q-170 0 -170 136v103q0 136 170 136h440v-120h-375q-35 0 -35 -28v-79q0 -28 35 -28h255q170 0 170 -136v-133q0 -136 -170 -136h-490z" />
    <glyph glyph-name="uni0219" unicode="&#x219;" horiz-adv-x="610" 
d="M215 -210l35 160h140l-65 -160h-110zM50 0v105h305q25 0 25 20v55q0 20 -25 20h-155q-150 0 -150 120v50q0 120 150 120h320v-105h-265q-25 0 -25 -20v-40q0 -20 25 -20h155q150 0 150 -120v-65q0 -120 -150 -120h-360z" />
    <glyph glyph-name="uni021A" unicode="&#x21a;" horiz-adv-x="780" 
d="M285 -210l35 160h140l-65 -160h-110zM20 540v120h740v-120h-270v-540h-200v540h-270z" />
    <glyph glyph-name="uni021B" unicode="&#x21b;" horiz-adv-x="450" 
d="M150 -210l35 160h140l-65 -160h-110zM60 120v540h180v-170h170v-105h-170v-260q0 -20 25 -20h145v-105h-200q-150 0 -150 120z" />
    <glyph glyph-name="uni0237" unicode="&#x237;" horiz-adv-x="300" 
d="M-50 -105h70q40 0 40 32v563h180v-580q0 -120 -150 -120h-140v105z" />
    <glyph glyph-name="circumflex" unicode="&#x2c6;" horiz-adv-x="500" 
d="M60 550l125 160h130l125 -160h-127l-63 75l-63 -75h-127z" />
    <glyph glyph-name="caron" unicode="&#x2c7;" horiz-adv-x="500" 
d="M60 710h127l63 -75l63 75h127l-125 -160h-130z" />
    <glyph glyph-name="uni02C9" unicode="&#x2c9;" horiz-adv-x="500" 
d="M75 580v95h350v-95h-350z" />
    <glyph glyph-name="breve" unicode="&#x2d8;" horiz-adv-x="500" 
d="M95 622v88h100v-83q0 -12 15 -12h80q15 0 15 12v83h100v-88q0 -72 -90 -72h-130q-90 0 -90 72z" />
    <glyph glyph-name="dotaccent" unicode="&#x2d9;" horiz-adv-x="500" 
d="M170 570v120h160v-120h-160z" />
    <glyph glyph-name="ring" unicode="&#x2da;" horiz-adv-x="500" 
d="M100 622v61q0 72 90 72h120q90 0 90 -72v-61q0 -72 -90 -72h-120q-90 0 -90 72zM200 622q0 -12 15 -12h70q15 0 15 12v61q0 12 -15 12h-70q-15 0 -15 -12v-61z" />
    <glyph glyph-name="ogonek" unicode="&#x2db;" horiz-adv-x="500" 
d="M125 -20q0 100 125 100l45 -80q-40 0 -40 -32v-46q0 -32 40 -32h80v-75h-125q-125 0 -125 100v65z" />
    <glyph glyph-name="tilde" unicode="&#x2dc;" horiz-adv-x="500" 
d="M60 615l65 65q30 30 69 30q41 0 71 -30l24 -24q8 -8 16 -8t16 8l54 54l65 -65l-65 -65q-30 -30 -69 -30q-41 0 -71 30l-24 24q-8 8 -16 8t-16 -8l-54 -54z" />
    <glyph glyph-name="hungarumlaut" unicode="&#x2dd;" horiz-adv-x="500" 
d="M70 550l100 160h145l-130 -160h-115zM275 550l100 160h145l-130 -160h-115z" />
    <glyph glyph-name="uni037A" unicode="&#x37a;" horiz-adv-x="500" 
d="M190 -50h120v-160h-120v160z" />
    <glyph glyph-name="uni037E" unicode="&#x37e;" horiz-adv-x="340" 
d="M75 340v150h190v-150h-190zM10 -130l70 280h180l-115 -280h-135z" />
    <glyph glyph-name="tonos" unicode="&#x384;" horiz-adv-x="500" 
d="M155 550l110 160h160l-140 -160h-130z" />
    <glyph glyph-name="dieresistonos" unicode="&#x385;" horiz-adv-x="500" 
d="M65 570v120h140v-120h-140zM295 570v120h140v-120h-140zM160 730l110 160h160l-140 -160h-130z" />
    <glyph glyph-name="Alphatonos" unicode="&#x386;" horiz-adv-x="850" 
d="M25 0l285 660h250l285 -660h-196l-60 140h-308l-60 -140h-196zM333 260h204l-102 235zM-10 500l110 160h160l-140 -160h-130z" />
    <glyph glyph-name="anoteleia" unicode="&#x387;" horiz-adv-x="340" 
d="M75 340v150h190v-150h-190z" />
    <glyph glyph-name="Epsilontonos" unicode="&#x388;" horiz-adv-x="970" 
d="M280 0v660h640v-120h-440v-135h390v-120h-390v-165h440v-120h-640zM-20 500l110 160h160l-140 -160h-130z" />
    <glyph glyph-name="Etatonos" unicode="&#x389;" horiz-adv-x="1040" 
d="M280 0v660h200v-255h290v255h200v-660h-200v285h-290v-285h-200zM-20 500l110 160h160l-140 -160h-130z" />
    <glyph glyph-name="Iotatonos" unicode="&#x38a;" horiz-adv-x="550" 
d="M280 0v660h200v-660h-200zM-20 500l110 160h160l-140 -160h-130z" />
    <glyph glyph-name="Omicrontonos" unicode="&#x38c;" horiz-adv-x="1010" 
d="M250 136v388q0 136 170 136h350q170 0 170 -136v-388q0 -136 -170 -136h-350q-170 0 -170 136zM450 148q0 -28 35 -28h220q35 0 35 28v364q0 28 -35 28h-220q-35 0 -35 -28v-364zM-20 500l110 160h160l-140 -160h-130z" />
    <glyph glyph-name="Upsilontonos" unicode="&#x38e;" horiz-adv-x="1070" 
d="M265 660h216l184 -255l184 255h216l-300 -415v-245h-200v245zM-20 500l110 160h160l-140 -160h-130z" />
    <glyph glyph-name="Omegatonos" unicode="&#x38f;" horiz-adv-x="1010" 
d="M230 0v120h107l-59 69q-28 33 -28 76v259q0 136 170 136h350q170 0 170 -136v-259q0 -43 -28 -76l-59 -69h107v-120h-315v130l82 95q13 15 13 30v257q0 28 -35 28h-220q-35 0 -35 -28v-257q0 -15 13 -30l82 -95v-130h-315zM-20 500l110 160h160l-140 -160h-130z" />
    <glyph glyph-name="iotadieresistonos" unicode="&#x390;" horiz-adv-x="320" 
d="M70 0v490h180v-490h-180zM-25 570v120h140v-120h-140zM205 570v120h140v-120h-140zM70 730l110 160h160l-140 -160h-130z" />
    <glyph glyph-name="Alpha" unicode="&#x391;" horiz-adv-x="830" 
d="M5 0l285 660h250l285 -660h-196l-60 140h-308l-60 -140h-196zM313 260h204l-102 235z" />
    <glyph glyph-name="Beta" unicode="&#x392;" horiz-adv-x="800" 
d="M70 0v660h490q170 0 170 -136v-58q0 -84 -65 -116q75 -30 75 -121v-93q0 -136 -170 -136h-500zM270 120h235q35 0 35 28v109q0 28 -35 28h-235v-165zM270 405h225q35 0 35 28v79q0 28 -35 28h-225v-135z" />
    <glyph glyph-name="Gamma" unicode="&#x393;" horiz-adv-x="690" 
d="M70 0v660h600v-120h-400v-540h-200z" />
    <glyph glyph-name="uni0394" unicode="&#x394;" horiz-adv-x="830" 
d="M5 0l285 660h250l285 -660h-820zM260 120h310l-155 360z" />
    <glyph glyph-name="Epsilon" unicode="&#x395;" horiz-adv-x="760" 
d="M70 0v660h640v-120h-440v-135h390v-120h-390v-165h440v-120h-640z" />
    <glyph glyph-name="Zeta" unicode="&#x396;" horiz-adv-x="750" 
d="M40 0v120l415 420h-405v120h650v-120l-415 -420h425v-120h-670z" />
    <glyph glyph-name="Eta" unicode="&#x397;" horiz-adv-x="830" 
d="M70 0v660h200v-255h290v255h200v-660h-200v285h-290v-285h-200z" />
    <glyph glyph-name="Theta" unicode="&#x398;" horiz-adv-x="830" 
d="M70 136v388q0 136 170 136h350q170 0 170 -136v-388q0 -136 -170 -136h-350q-170 0 -170 136zM270 148q0 -28 35 -28h220q35 0 35 28v364q0 28 -35 28h-220q-35 0 -35 -28v-364zM320 285v120h190v-120h-190z" />
    <glyph glyph-name="Iota" unicode="&#x399;" horiz-adv-x="340" 
d="M70 0v660h200v-660h-200z" />
    <glyph glyph-name="Kappa" unicode="&#x39a;" horiz-adv-x="800" 
d="M70 0v660h200v-255l265 255h245l-283 -273l293 -387h-224l-199 263l-97 -94v-169h-200z" />
    <glyph glyph-name="Lambda" unicode="&#x39b;" horiz-adv-x="830" 
d="M5 0l285 660h250l285 -660h-203l-207 480l-207 -480h-203z" />
    <glyph glyph-name="Mu" unicode="&#x39c;" horiz-adv-x="1040" 
d="M70 0v660h245l205 -461l205 461h245v-660h-200v348l-155 -348h-190l-155 348v-348h-200z" />
    <glyph glyph-name="Nu" unicode="&#x39d;" horiz-adv-x="840" 
d="M70 0v660h215l285 -396v396h200v-660h-215l-285 396v-396h-200z" />
    <glyph glyph-name="Xi" unicode="&#x39e;" horiz-adv-x="750" 
d="M50 0v130h650v-130h-650zM50 530v130h650v-130h-650zM120 280v130h510v-130h-510z" />
    <glyph glyph-name="Omicron" unicode="&#x39f;" horiz-adv-x="830" 
d="M70 136v388q0 136 170 136h350q170 0 170 -136v-388q0 -136 -170 -136h-350q-170 0 -170 136zM270 148q0 -28 35 -28h220q35 0 35 28v364q0 28 -35 28h-220q-35 0 -35 -28v-364z" />
    <glyph glyph-name="Pi" unicode="&#x3a0;" horiz-adv-x="830" 
d="M70 0v660h690v-660h-200v540h-290v-540h-200z" />
    <glyph glyph-name="Rho" unicode="&#x3a1;" horiz-adv-x="780" 
d="M70 0v660h490q170 0 170 -136v-153q0 -136 -170 -136h-290v-235h-200zM270 355h225q35 0 35 28v129q0 28 -35 28h-225v-185z" />
    <glyph glyph-name="Sigma" unicode="&#x3a3;" horiz-adv-x="740" 
d="M50 0v115l197 222l-197 208v115h640v-120h-399l189 -200l-195 -220h405v-120h-640z" />
    <glyph glyph-name="Tau" unicode="&#x3a4;" horiz-adv-x="780" 
d="M20 540v120h740v-120h-270v-540h-200v540h-270z" />
    <glyph glyph-name="Upsilon" unicode="&#x3a5;" horiz-adv-x="810" 
d="M5 660h216l184 -255l184 255h216l-300 -415v-245h-200v245z" />
    <glyph glyph-name="Phi" unicode="&#x3a6;" horiz-adv-x="1000" 
d="M60 206v248q0 136 170 136h170v70h200v-70h170q170 0 170 -136v-248q0 -136 -170 -136h-170v-70h-200v70h-170q-170 0 -170 136zM260 218q0 -28 35 -28h105v280h-105q-35 0 -35 -28v-224zM600 190h105q35 0 35 28v224q0 28 -35 28h-105v-280z" />
    <glyph glyph-name="Chi" unicode="&#x3a7;" horiz-adv-x="800" 
d="M10 0l278 336l-268 324h223l157 -189l157 189h223l-268 -324l278 -336h-223l-167 201l-167 -201h-223z" />
    <glyph glyph-name="Psi" unicode="&#x3a8;" horiz-adv-x="1000" 
d="M60 286v374h200v-362q0 -28 35 -28h105v390h200v-390h105q35 0 35 28v362h200v-374q0 -136 -170 -136h-170v-150h-200v150h-170q-170 0 -170 136z" />
    <glyph glyph-name="uni03A9" unicode="&#x3a9;" horiz-adv-x="830" 
d="M50 0v120h107l-59 69q-28 33 -28 76v259q0 136 170 136h350q170 0 170 -136v-259q0 -43 -28 -76l-59 -69h107v-120h-315v130l82 95q13 15 13 30v257q0 28 -35 28h-220q-35 0 -35 -28v-257q0 -15 13 -30l82 -95v-130h-315z" />
    <glyph glyph-name="Iotadieresis" unicode="&#x3aa;" horiz-adv-x="340" 
d="M70 0v660h200v-660h-200zM-15 740v120h140v-120h-140zM215 740v120h140v-120h-140z" />
    <glyph glyph-name="Upsilondieresis" unicode="&#x3ab;" horiz-adv-x="810" 
d="M5 660h216l184 -255l184 255h216l-300 -415v-245h-200v245zM220 740v120h140v-120h-140zM450 740v120h140v-120h-140z" />
    <glyph glyph-name="alphatonos" unicode="&#x3ac;" horiz-adv-x="750" 
d="M50 192v106q0 192 240 192h320v-385h120v-105h-440q-240 0 -240 192zM230 189q0 -84 105 -84h95v280h-95q-105 0 -105 -84v-112zM275 550l110 160h160l-140 -160h-130z" />
    <glyph glyph-name="epsilontonos" unicode="&#x3ad;" horiz-adv-x="600" 
d="M60 120v27q0 82 70 108q-70 27 -70 112q0 123 150 123h350v-105h-295q-25 0 -25 -20v-40q0 -20 25 -20h225v-105h-225q-25 0 -25 -20v-55q0 -20 25 -20h295v-105h-350q-150 0 -150 120zM230 550l110 160h160l-140 -160h-130z" />
    <glyph glyph-name="etatonos" unicode="&#x3ae;" 
d="M60 0v490h410q150 0 150 -120v-580h-180v575q0 20 -25 20h-175v-385h-180zM245 550l110 160h160l-140 -160h-130z" />
    <glyph glyph-name="iotatonos" unicode="&#x3af;" horiz-adv-x="300" 
d="M60 0v490h180v-490h-180zM50 550l110 160h160l-140 -160h-130z" />
    <glyph glyph-name="upsilondieresistonos" unicode="&#x3b0;" 
d="M60 120v370h180v-365q0 -20 25 -20h150q25 0 25 20v365h180v-370q0 -120 -150 -120h-260q-150 0 -150 120zM155 570v120h140v-120h-140zM385 570v120h140v-120h-140zM250 730l110 160h160l-140 -160h-130z" />
    <glyph glyph-name="alpha" unicode="&#x3b1;" horiz-adv-x="750" 
d="M50 192v106q0 192 240 192h320v-385h120v-105h-440q-240 0 -240 192zM230 189q0 -84 105 -84h95v280h-95q-105 0 -105 -84v-112z" />
    <glyph glyph-name="beta" unicode="&#x3b2;" 
d="M60 -210v750q0 120 150 120h230q150 0 150 -120v-79q0 -72 -55 -101q85 -22 85 -113v-127q0 -120 -150 -120h-230v-210h-180zM240 105h175q25 0 25 20v150q0 20 -25 20h-95v105h65q25 0 25 20v115q0 20 -25 20h-120q-25 0 -25 -20v-430z" />
    <glyph glyph-name="gamma" unicode="&#x3b3;" 
d="M10 490h178l152 -332l152 332h178l-240 -525v-175h-180v175z" />
    <glyph glyph-name="delta" unicode="&#x3b4;" 
d="M60 120v190q0 120 150 120h128l-213 125v105h460v-105h-215l174 -102q76 -45 76 -124v-209q0 -120 -150 -120h-260q-150 0 -150 120zM240 125q0 -20 25 -20h150q25 0 25 20v200h-175q-25 0 -25 -20v-180z" />
    <glyph glyph-name="epsilon" unicode="&#x3b5;" horiz-adv-x="600" 
d="M60 120v27q0 82 70 108q-70 27 -70 112q0 123 150 123h350v-105h-295q-25 0 -25 -20v-40q0 -20 25 -20h225v-105h-225q-25 0 -25 -20v-55q0 -20 25 -20h295v-105h-350q-150 0 -150 120z" />
    <glyph glyph-name="zeta" unicode="&#x3b6;" horiz-adv-x="620" 
d="M60 120v182q0 53 60 97l211 156h-241v105h480v-105l-310 -229q-20 -15 -20 -33v-168q0 -20 25 -20h315v-265h-150v160h-220q-150 0 -150 120z" />
    <glyph glyph-name="eta" unicode="&#x3b7;" 
d="M60 0v490h410q150 0 150 -120v-580h-180v575q0 20 -25 20h-175v-385h-180z" />
    <glyph glyph-name="theta" unicode="&#x3b8;" 
d="M60 120v420q0 120 150 120h260q150 0 150 -120v-420q0 -120 -150 -120h-260q-150 0 -150 120zM240 125q0 -20 25 -20h150q25 0 25 20v170h-200v-170zM240 400h200v135q0 20 -25 20h-150q-25 0 -25 -20v-135z" />
    <glyph glyph-name="iota" unicode="&#x3b9;" horiz-adv-x="300" 
d="M60 0v490h180v-490h-180z" />
    <glyph glyph-name="kappa" unicode="&#x3ba;" horiz-adv-x="660" 
d="M60 0v490h180v-180l185 180h215l-211 -205l221 -285h-195l-137 177l-78 -76v-101h-180z" />
    <glyph glyph-name="lambda" unicode="&#x3bb;" horiz-adv-x="640" 
d="M10 0l221 468l-91 192h179l311 -660h-179l-131 278l-131 -278h-179z" />
    <glyph glyph-name="uni03BC" unicode="&#x3bc;" 
d="M60 -210v700h180v-385h175q25 0 25 20v365h180v-370q0 -120 -150 -120h-230v-210h-180z" />
    <glyph glyph-name="nu" unicode="&#x3bd;" 
d="M10 490h178l152 -332l152 332h178l-224 -490h-212z" />
    <glyph glyph-name="xi" unicode="&#x3be;" horiz-adv-x="620" 
d="M60 120v122q0 82 70 108q-70 26 -70 108v82q0 120 150 120h370v-105h-315q-25 0 -25 -20v-115q0 -20 25 -20h245v-105h-245q-25 0 -25 -20v-150q0 -20 25 -20h315v-265h-150v160h-220q-150 0 -150 120z" />
    <glyph glyph-name="omicron" unicode="&#x3bf;" 
d="M60 120v250q0 120 150 120h260q150 0 150 -120v-250q0 -120 -150 -120h-260q-150 0 -150 120zM240 125q0 -20 25 -20h150q25 0 25 20v240q0 20 -25 20h-150q-25 0 -25 -20v-240z" />
    <glyph glyph-name="pi" unicode="&#x3c0;" 
d="M60 0v490h560v-490h-180v385h-200v-385h-180z" />
    <glyph glyph-name="rho" unicode="&#x3c1;" 
d="M60 -210v580q0 120 150 120h260q150 0 150 -120v-250q0 -120 -150 -120h-230v-210h-180zM240 105h175q25 0 25 20v240q0 20 -25 20h-150q-25 0 -25 -20v-260z" />
    <glyph glyph-name="sigma1" unicode="&#x3c2;" horiz-adv-x="620" 
d="M60 120v250q0 120 150 120h370v-105h-315q-25 0 -25 -20v-240q0 -20 25 -20h315v-265h-150v160h-220q-150 0 -150 120z" />
    <glyph glyph-name="sigma" unicode="&#x3c3;" horiz-adv-x="780" 
d="M60 120v250q0 120 150 120h540v-105h-130v-265q0 -120 -150 -120h-260q-150 0 -150 120zM240 125q0 -20 25 -20h150q25 0 25 20v260h-175q-25 0 -25 -20v-240z" />
    <glyph glyph-name="tau" unicode="&#x3c4;" horiz-adv-x="640" 
d="M30 390v100h580v-100h-200v-390h-180v390h-200z" />
    <glyph glyph-name="upsilon" unicode="&#x3c5;" 
d="M60 120v370h180v-365q0 -20 25 -20h150q25 0 25 20v365h180v-370q0 -120 -150 -120h-260q-150 0 -150 120z" />
    <glyph glyph-name="phi" unicode="&#x3c6;" horiz-adv-x="900" 
d="M60 120v370h180v-365q0 -20 25 -20h95v385h330q150 0 150 -120v-250q0 -120 -150 -120h-150v-210h-180v210h-150q-150 0 -150 120zM540 105h95q25 0 25 20v240q0 20 -25 20h-95v-280z" />
    <glyph glyph-name="chi" unicode="&#x3c7;" horiz-adv-x="650" 
d="M10 -210l223 354l-218 346h184l126 -200l126 200h184l-218 -346l223 -354h-184l-131 208l-131 -208h-184z" />
    <glyph glyph-name="psi" unicode="&#x3c8;" horiz-adv-x="900" 
d="M60 120v370h180v-365q0 -20 25 -20h95v385h180v-385h95q25 0 25 20v365h180v-370q0 -120 -150 -120h-150v-210h-180v210h-150q-150 0 -150 120z" />
    <glyph glyph-name="omega" unicode="&#x3c9;" horiz-adv-x="900" 
d="M60 120v370h180v-365q0 -20 25 -20h70q25 0 25 20v225h180v-225q0 -20 25 -20h70q25 0 25 20v365h180v-370q0 -120 -150 -120h-117q-86 0 -123 40q-37 -40 -123 -40h-117q-150 0 -150 120z" />
    <glyph glyph-name="iotadieresis" unicode="&#x3ca;" horiz-adv-x="320" 
d="M70 0v490h180v-490h-180zM-25 570v120h140v-120h-140zM205 570v120h140v-120h-140z" />
    <glyph glyph-name="upsilondieresis" unicode="&#x3cb;" 
d="M60 120v370h180v-365q0 -20 25 -20h150q25 0 25 20v365h180v-370q0 -120 -150 -120h-260q-150 0 -150 120zM155 570v120h140v-120h-140zM385 570v120h140v-120h-140z" />
    <glyph glyph-name="omicrontonos" unicode="&#x3cc;" 
d="M60 120v250q0 120 150 120h260q150 0 150 -120v-250q0 -120 -150 -120h-260q-150 0 -150 120zM240 125q0 -20 25 -20h150q25 0 25 20v240q0 20 -25 20h-150q-25 0 -25 -20v-240zM245 550l110 160h160l-140 -160h-130z" />
    <glyph glyph-name="upsilontonos" unicode="&#x3cd;" 
d="M60 120v370h180v-365q0 -20 25 -20h150q25 0 25 20v365h180v-370q0 -120 -150 -120h-260q-150 0 -150 120zM245 550l110 160h160l-140 -160h-130z" />
    <glyph glyph-name="omegatonos" unicode="&#x3ce;" horiz-adv-x="900" 
d="M60 120v370h180v-365q0 -20 25 -20h70q25 0 25 20v225h180v-225q0 -20 25 -20h70q25 0 25 20v365h180v-370q0 -120 -150 -120h-117q-86 0 -123 40q-37 -40 -123 -40h-117q-150 0 -150 120zM355 550l110 160h160l-140 -160h-130z" />
    <glyph glyph-name="uni0400" unicode="&#x400;" horiz-adv-x="760" 
d="M70 0v660h640v-120h-440v-135h390v-120h-390v-165h440v-120h-640zM215 880h160l110 -160h-130z" />
    <glyph glyph-name="uni0401" unicode="&#x401;" horiz-adv-x="760" 
d="M70 0v660h640v-120h-440v-135h390v-120h-390v-165h440v-120h-640zM205 740v120h140v-120h-140zM435 740v120h140v-120h-140z" />
    <glyph glyph-name="uni0402" unicode="&#x402;" horiz-adv-x="1000" 
d="M20 540v120h740v-120h-270v-135h280q170 0 170 -136v-343q0 -136 -170 -136h-190v120h110q50 0 50 40v307q0 28 -35 28h-215v-285h-200v540h-270z" />
    <glyph glyph-name="uni0403" unicode="&#x403;" horiz-adv-x="690" 
d="M70 0v660h600v-120h-400v-540h-200zM285 720l110 160h160l-140 -160h-130z" />
    <glyph glyph-name="uni0404" unicode="&#x404;" horiz-adv-x="760" 
d="M60 272v116q0 272 340 272h310v-120h-270q-175 0 -180 -135h360v-120h-360v-21q0 -144 180 -144h270v-120h-310q-340 0 -340 272z" />
    <glyph glyph-name="uni0405" unicode="&#x405;" horiz-adv-x="780" 
d="M60 0v120h425q35 0 35 28v109q0 28 -35 28h-255q-170 0 -170 136v103q0 136 170 136h440v-120h-375q-35 0 -35 -28v-79q0 -28 35 -28h255q170 0 170 -136v-133q0 -136 -170 -136h-490z" />
    <glyph glyph-name="uni0406" unicode="&#x406;" horiz-adv-x="340" 
d="M70 0v660h200v-660h-200z" />
    <glyph glyph-name="uni0407" unicode="&#x407;" horiz-adv-x="340" 
d="M70 0v660h200v-660h-200zM-15 740v120h140v-120h-140zM215 740v120h140v-120h-140z" />
    <glyph glyph-name="uni0408" unicode="&#x408;" horiz-adv-x="750" 
d="M40 160v135h200v-119q0 -56 70 -56h135q35 0 35 28v512h200v-524q0 -136 -170 -136h-270q-200 0 -200 160z" />
    <glyph glyph-name="uni0409" unicode="&#x409;" horiz-adv-x="1230" 
d="M20 0l215 660h495v-255h280q170 0 170 -136v-133q0 -136 -170 -136h-480v540h-137l-176 -540h-197zM730 120h215q35 0 35 28v109q0 28 -35 28h-215v-165z" />
    <glyph glyph-name="uni040A" unicode="&#x40a;" horiz-adv-x="1240" 
d="M70 0v660h200v-255h270v255h200v-255h280q170 0 170 -136v-133q0 -136 -170 -136h-480v285h-270v-285h-200zM740 120h215q35 0 35 28v109q0 28 -35 28h-215v-165z" />
    <glyph glyph-name="uni040B" unicode="&#x40b;" horiz-adv-x="1000" 
d="M20 540v120h740v-120h-270v-135h280q170 0 170 -136v-269h-200v257q0 28 -35 28h-215v-285h-200v540h-270z" />
    <glyph glyph-name="uni040C" unicode="&#x40c;" horiz-adv-x="800" 
d="M70 0v660h200v-255l265 255h245l-283 -273l293 -387h-224l-199 263l-97 -94v-169h-200zM310 720l110 160h160l-140 -160h-130z" />
    <glyph glyph-name="uni040D" unicode="&#x40d;" horiz-adv-x="840" 
d="M70 0v660h200v-396l285 396h215v-660h-200v396l-285 -396h-215zM245 880h160l110 -160h-130z" />
    <glyph glyph-name="uni040E" unicode="&#x40e;" horiz-adv-x="770" 
d="M5 660h213l172 -289l165 289h210l-375 -660h-210l106 188zM235 792v88h100v-83q0 -12 15 -12h80q15 0 15 12v83h100v-88q0 -72 -90 -72h-130q-90 0 -90 72z" />
    <glyph glyph-name="uni040F" unicode="&#x40f;" horiz-adv-x="830" 
d="M70 0v660h200v-545h290v545h200v-660h-260v-180h-170v180h-260z" />
    <glyph glyph-name="uni0410" unicode="&#x410;" horiz-adv-x="830" 
d="M5 0l285 660h250l285 -660h-196l-60 140h-308l-60 -140h-196zM313 260h204l-102 235z" />
    <glyph glyph-name="uni0411" unicode="&#x411;" horiz-adv-x="790" 
d="M70 0v660h610v-120h-410v-135h290q170 0 170 -136v-133q0 -136 -170 -136h-490zM270 120h225q35 0 35 28v109q0 28 -35 28h-225v-165z" />
    <glyph glyph-name="uni0412" unicode="&#x412;" horiz-adv-x="800" 
d="M70 0v660h490q170 0 170 -136v-58q0 -84 -65 -116q75 -30 75 -121v-93q0 -136 -170 -136h-500zM270 120h235q35 0 35 28v109q0 28 -35 28h-235v-165zM270 405h225q35 0 35 28v79q0 28 -35 28h-225v-135z" />
    <glyph glyph-name="uni0413" unicode="&#x413;" horiz-adv-x="690" 
d="M70 0v660h600v-120h-400v-540h-200z" />
    <glyph glyph-name="uni0414" unicode="&#x414;" horiz-adv-x="930" 
d="M20 120h109l176 540h495v-540h110v-300h-170v180h-550v-180h-170v300zM326 120h274v420h-137z" />
    <glyph glyph-name="uni0415" unicode="&#x415;" horiz-adv-x="760" 
d="M70 0v660h640v-120h-440v-135h390v-120h-390v-165h440v-120h-640z" />
    <glyph glyph-name="uni0416" unicode="&#x416;" horiz-adv-x="1180" 
d="M10 0l293 387l-283 273h245l225 -217v217h200v-217l225 217h245l-283 -273l293 -387h-224l-199 263l-57 -55v-208h-200v208l-57 55l-199 -263h-224z" />
    <glyph glyph-name="uni0417" unicode="&#x417;" horiz-adv-x="760" 
d="M50 0v120h405q35 0 35 28v109q0 28 -35 28h-315v120h315q35 0 35 28v79q0 28 -35 28h-405v120h470q170 0 170 -136v-55q0 -87 -71 -119q71 -32 71 -119v-95q0 -136 -170 -136h-470z" />
    <glyph glyph-name="uni0418" unicode="&#x418;" horiz-adv-x="840" 
d="M70 0v660h200v-396l285 396h215v-660h-200v396l-285 -396h-215z" />
    <glyph glyph-name="uni0419" unicode="&#x419;" horiz-adv-x="840" 
d="M70 0v660h200v-396l285 396h215v-660h-200v396l-285 -396h-215zM265 792v88h100v-83q0 -12 15 -12h80q15 0 15 12v83h100v-88q0 -72 -90 -72h-130q-90 0 -90 72z" />
    <glyph glyph-name="uni041A" unicode="&#x41a;" horiz-adv-x="800" 
d="M70 0v660h200v-255l265 255h245l-283 -273l293 -387h-224l-199 263l-97 -94v-169h-200z" />
    <glyph glyph-name="uni041B" unicode="&#x41b;" horiz-adv-x="820" 
d="M20 0l215 660h515v-660h-200v540h-157l-176 -540h-197z" />
    <glyph glyph-name="uni041C" unicode="&#x41c;" horiz-adv-x="1040" 
d="M70 0v660h245l205 -461l205 461h245v-660h-200v348l-155 -348h-190l-155 348v-348h-200z" />
    <glyph glyph-name="uni041D" unicode="&#x41d;" horiz-adv-x="830" 
d="M70 0v660h200v-255h290v255h200v-660h-200v285h-290v-285h-200z" />
    <glyph glyph-name="uni041E" unicode="&#x41e;" horiz-adv-x="830" 
d="M70 136v388q0 136 170 136h350q170 0 170 -136v-388q0 -136 -170 -136h-350q-170 0 -170 136zM270 148q0 -28 35 -28h220q35 0 35 28v364q0 28 -35 28h-220q-35 0 -35 -28v-364z" />
    <glyph glyph-name="uni041F" unicode="&#x41f;" horiz-adv-x="830" 
d="M70 0v660h690v-660h-200v540h-290v-540h-200z" />
    <glyph glyph-name="uni0420" unicode="&#x420;" horiz-adv-x="780" 
d="M70 0v660h490q170 0 170 -136v-153q0 -136 -170 -136h-290v-235h-200zM270 355h225q35 0 35 28v129q0 28 -35 28h-225v-185z" />
    <glyph glyph-name="uni0421" unicode="&#x421;" horiz-adv-x="760" 
d="M70 136v388q0 136 170 136h470v-120h-405q-35 0 -35 -28v-364q0 -28 35 -28h405v-120h-470q-170 0 -170 136z" />
    <glyph glyph-name="uni0422" unicode="&#x422;" horiz-adv-x="780" 
d="M20 540v120h740v-120h-270v-540h-200v540h-270z" />
    <glyph glyph-name="uni0423" unicode="&#x423;" horiz-adv-x="770" 
d="M5 660h213l172 -289l165 289h210l-375 -660h-210l106 188z" />
    <glyph glyph-name="uni0424" unicode="&#x424;" horiz-adv-x="1000" 
d="M60 206v248q0 136 170 136h170v70h200v-70h170q170 0 170 -136v-248q0 -136 -170 -136h-170v-70h-200v70h-170q-170 0 -170 136zM260 218q0 -28 35 -28h105v280h-105q-35 0 -35 -28v-224zM600 190h105q35 0 35 28v224q0 28 -35 28h-105v-280z" />
    <glyph glyph-name="uni0425" unicode="&#x425;" horiz-adv-x="800" 
d="M10 0l278 336l-268 324h223l157 -189l157 189h223l-268 -324l278 -336h-223l-167 201l-167 -201h-223z" />
    <glyph glyph-name="uni0426" unicode="&#x426;" horiz-adv-x="890" 
d="M70 0v660h200v-540h290v540h200v-540h110v-300h-170v180h-630z" />
    <glyph glyph-name="uni0427" unicode="&#x427;" horiz-adv-x="780" 
d="M50 371v289h200v-277q0 -28 35 -28h225v305h200v-660h-200v235h-290q-170 0 -170 136z" />
    <glyph glyph-name="uni0428" unicode="&#x428;" horiz-adv-x="1120" 
d="M70 0v660h200v-540h190v540h200v-540h190v540h200v-660h-980z" />
    <glyph glyph-name="uni0429" unicode="&#x429;" horiz-adv-x="1180" 
d="M70 0v660h200v-540h190v540h200v-540h190v540h200v-540h110v-300h-170v180h-920z" />
    <glyph glyph-name="uni042A" unicode="&#x42a;" horiz-adv-x="960" 
d="M20 545v115h430v-255h290q170 0 170 -136v-133q0 -136 -170 -136h-490v545h-230zM450 120h225q35 0 35 28v109q0 28 -35 28h-225v-165z" />
    <glyph glyph-name="uni042B" unicode="&#x42b;" horiz-adv-x="1090" 
d="M70 0v660h200v-255h290q170 0 170 -136v-133q0 -136 -170 -136h-490zM270 120h225q35 0 35 28v109q0 28 -35 28h-225v-165zM820 0v660h200v-660h-200z" />
    <glyph glyph-name="uni042C" unicode="&#x42c;" horiz-adv-x="780" 
d="M70 0v660h200v-255h290q170 0 170 -136v-133q0 -136 -170 -136h-490zM270 120h225q35 0 35 28v109q0 28 -35 28h-225v-165z" />
    <glyph glyph-name="uni042D" unicode="&#x42d;" horiz-adv-x="760" 
d="M50 0v120h270q180 0 180 144v21h-360v120h360q-5 135 -180 135h-270v120h310q340 0 340 -272v-116q0 -272 -340 -272h-310z" />
    <glyph glyph-name="uni042E" unicode="&#x42e;" horiz-adv-x="1160" 
d="M70 0v660h200v-270h130v134q0 136 170 136h350q170 0 170 -136v-388q0 -136 -170 -136h-350q-170 0 -170 136v134h-130v-270h-200zM600 148q0 -28 35 -28h220q35 0 35 28v364q0 28 -35 28h-220q-35 0 -35 -28v-364z" />
    <glyph glyph-name="uni042F" unicode="&#x42f;" horiz-adv-x="790" 
d="M30 0l165 250q-135 16 -135 136v138q0 136 170 136h490v-660h-200v250h-109l-165 -250h-216zM260 398q0 -28 35 -28h225v170h-225q-35 0 -35 -28v-114z" />
    <glyph glyph-name="uni0430" unicode="&#x430;" horiz-adv-x="650" 
d="M50 120v65q0 120 150 120h210v60q0 20 -25 20h-295v105h350q150 0 150 -120v-370h-390q-150 0 -150 120zM230 125q0 -20 25 -20h155v95h-155q-25 0 -25 -20v-55z" />
    <glyph glyph-name="uni0431" unicode="&#x431;" 
d="M60 120v316q0 224 280 224h220v-105h-215q-91 0 -105 -65h230q150 0 150 -120v-250q0 -120 -150 -120h-260q-150 0 -150 120zM240 125q0 -20 25 -20h150q25 0 25 20v240q0 20 -25 20h-175v-260z" />
    <glyph glyph-name="uni0432" unicode="&#x432;" horiz-adv-x="650" 
d="M60 0v490h380q150 0 150 -124q0 -83 -65 -111q75 -25 75 -110v-25q0 -120 -150 -120h-390zM240 105h155q25 0 25 20v55q0 20 -25 20h-155v-95zM240 305h145q25 0 25 20v40q0 20 -25 20h-145v-80z" />
    <glyph glyph-name="uni0433" unicode="&#x433;" horiz-adv-x="570" 
d="M60 0v490h480v-105h-300v-385h-180z" />
    <glyph glyph-name="uni0434" unicode="&#x434;" horiz-adv-x="760" 
d="M20 105h83l122 385h425v-385h90v-265h-150v160h-420v-160h-150v265zM273 105h197v280h-108z" />
    <glyph glyph-name="uni0435" unicode="&#x435;" horiz-adv-x="660" 
d="M60 120v250q0 120 150 120h240q150 0 150 -120v-170h-360v-75q0 -20 25 -20h315v-105h-370q-150 0 -150 120zM240 305h180v60q0 20 -25 20h-130q-25 0 -25 -20v-60z" />
    <glyph glyph-name="uni0436" unicode="&#x436;" horiz-adv-x="970" 
d="M10 0l221 285l-211 205h215l160 -156v156h180v-156l160 156h215l-211 -205l221 -285h-195l-137 177l-53 -51v-126h-180v126l-53 51l-137 -177h-195z" />
    <glyph glyph-name="uni0437" unicode="&#x437;" horiz-adv-x="600" 
d="M40 0v105h295q25 0 25 20v55q0 20 -25 20h-225v105h225q25 0 25 20v40q0 20 -25 20h-295v105h350q150 0 150 -123q0 -85 -70 -112q70 -26 70 -108v-27q0 -120 -150 -120h-350z" />
    <glyph glyph-name="uni0438" unicode="&#x438;" horiz-adv-x="700" 
d="M60 0v490h180v-270l200 270h200v-490h-180v270l-200 -270h-200z" />
    <glyph glyph-name="uni0439" unicode="&#x439;" horiz-adv-x="700" 
d="M60 0v490h180v-270l200 270h200v-490h-180v270l-200 -270h-200zM195 622v88h100v-83q0 -12 15 -12h80q15 0 15 12v83h100v-88q0 -72 -90 -72h-130q-90 0 -90 72z" />
    <glyph glyph-name="uni043A" unicode="&#x43a;" horiz-adv-x="660" 
d="M60 0v490h180v-180l185 180h215l-211 -205l221 -285h-195l-137 177l-78 -76v-101h-180z" />
    <glyph glyph-name="uni043B" unicode="&#x43b;" horiz-adv-x="690" 
d="M20 0l155 490h455v-490h-180v385h-138l-122 -385h-170z" />
    <glyph glyph-name="uni043C" unicode="&#x43c;" horiz-adv-x="840" 
d="M60 0v490h230l130 -295l130 295h230v-490h-180v237l-105 -237h-150l-105 237v-237h-180z" />
    <glyph glyph-name="uni043D" unicode="&#x43d;" 
d="M60 0v490h180v-185h200v185h180v-490h-180v200h-200v-200h-180z" />
    <glyph glyph-name="uni043E" unicode="&#x43e;" 
d="M60 120v250q0 120 150 120h260q150 0 150 -120v-250q0 -120 -150 -120h-260q-150 0 -150 120zM240 125q0 -20 25 -20h150q25 0 25 20v240q0 20 -25 20h-150q-25 0 -25 -20v-240z" />
    <glyph glyph-name="uni043F" unicode="&#x43f;" 
d="M60 0v490h560v-490h-180v385h-200v-385h-180z" />
    <glyph glyph-name="uni0440" unicode="&#x440;" 
d="M60 -210v700h410q150 0 150 -120v-250q0 -120 -150 -120h-230v-210h-180zM240 105h175q25 0 25 20v240q0 20 -25 20h-175v-280z" />
    <glyph glyph-name="uni0441" unicode="&#x441;" horiz-adv-x="610" 
d="M60 120v250q0 120 150 120h360v-105h-305q-25 0 -25 -20v-240q0 -20 25 -20h305v-105h-360q-150 0 -150 120z" />
    <glyph glyph-name="uni0442" unicode="&#x442;" horiz-adv-x="640" 
d="M30 390v100h580v-100h-200v-390h-180v390h-200z" />
    <glyph glyph-name="uni0443" unicode="&#x443;" 
d="M10 490h178l152 -332l152 332h178l-320 -700h-178l79 173z" />
    <glyph glyph-name="uni0444" unicode="&#x444;" horiz-adv-x="900" 
d="M60 120v250q0 120 150 120h150v170h180v-170h150q150 0 150 -120v-250q0 -120 -150 -120h-150v-210h-180v210h-150q-150 0 -150 120zM240 125q0 -20 25 -20h95v280h-95q-25 0 -25 -20v-240zM540 105h95q25 0 25 20v240q0 20 -25 20h-95v-280z" />
    <glyph glyph-name="uni0445" unicode="&#x445;" horiz-adv-x="650" 
d="M10 0l215 248l-210 242h201l109 -126l109 126h201l-210 -242l215 -248h-201l-114 132l-114 -132h-201z" />
    <glyph glyph-name="uni0446" unicode="&#x446;" horiz-adv-x="730" 
d="M60 0v490h180v-385h200v385h180v-385h90v-265h-150v160h-500z" />
    <glyph glyph-name="uni0447" unicode="&#x447;" horiz-adv-x="650" 
d="M50 290v200h180v-195q0 -20 25 -20h155v215h180v-490h-180v170h-210q-150 0 -150 120z" />
    <glyph glyph-name="uni0448" unicode="&#x448;" horiz-adv-x="940" 
d="M60 0v490h180v-385h140v385h180v-385h140v385h180v-490h-820z" />
    <glyph glyph-name="uni0449" unicode="&#x449;" horiz-adv-x="990" 
d="M60 0v490h180v-385h140v385h180v-385h140v385h180v-385h90v-265h-150v160h-760z" />
    <glyph glyph-name="uni044A" unicode="&#x44a;" horiz-adv-x="770" 
d="M30 390v100h340v-185h210q150 0 150 -120v-65q0 -120 -150 -120h-390v390h-160zM370 105h155q25 0 25 20v55q0 20 -25 20h-155v-95z" />
    <glyph glyph-name="uni044B" unicode="&#x44b;" horiz-adv-x="920" 
d="M60 0v490h180v-185h210q150 0 150 -120v-65q0 -120 -150 -120h-390zM240 105h155q25 0 25 20v55q0 20 -25 20h-155v-95zM680 0v490h180v-490h-180z" />
    <glyph glyph-name="uni044C" unicode="&#x44c;" horiz-adv-x="640" 
d="M60 0v490h180v-185h210q150 0 150 -120v-65q0 -120 -150 -120h-390zM240 105h155q25 0 25 20v55q0 20 -25 20h-155v-95z" />
    <glyph glyph-name="uni044D" unicode="&#x44d;" horiz-adv-x="600" 
d="M40 0v105h225q105 0 105 84v11h-260v105h260q-3 80 -105 80h-225v105h270q240 0 240 -192v-106q0 -192 -240 -192h-270z" />
    <glyph glyph-name="uni044E" unicode="&#x44e;" horiz-adv-x="970" 
d="M60 0v490h180v-185h110v65q0 120 150 120h260q150 0 150 -120v-250q0 -120 -150 -120h-260q-150 0 -150 120v80h-110v-200h-180zM530 125q0 -20 25 -20h150q25 0 25 20v240q0 20 -25 20h-150q-25 0 -25 -20v-240z" />
    <glyph glyph-name="uni044F" unicode="&#x44f;" horiz-adv-x="650" 
d="M30 0l117 175q-97 19 -97 115v80q0 120 150 120h390v-490h-180v170h-78l-114 -170h-188zM230 295q0 -20 25 -20h155v110h-155q-25 0 -25 -20v-70z" />
    <glyph glyph-name="uni0450" unicode="&#x450;" horiz-adv-x="660" 
d="M60 120v250q0 120 150 120h240q150 0 150 -120v-170h-360v-75q0 -20 25 -20h315v-105h-370q-150 0 -150 120zM240 305h180v60q0 20 -25 20h-130q-25 0 -25 -20v-60zM155 710h160l110 -160h-130z" />
    <glyph glyph-name="uni0451" unicode="&#x451;" horiz-adv-x="660" 
d="M60 120v250q0 120 150 120h240q150 0 150 -120v-170h-360v-75q0 -20 25 -20h315v-105h-370q-150 0 -150 120zM240 305h180v60q0 20 -25 20h-130q-25 0 -25 -20v-60zM145 570v120h140v-120h-140zM375 570v120h140v-120h-140z" />
    <glyph glyph-name="uni0452" unicode="&#x452;" horiz-adv-x="700" 
d="M10 535v80h70v45h180v-45h180v-80h-180v-45h230q150 0 150 -120v-460q0 -120 -150 -120h-150v105h80q40 0 40 32v438q0 20 -25 20h-175v-385h-180v535h-70z" />
    <glyph glyph-name="uni0453" unicode="&#x453;" horiz-adv-x="570" 
d="M60 0v490h480v-105h-300v-385h-180zM215 550l110 160h160l-140 -160h-130z" />
    <glyph glyph-name="uni0454" unicode="&#x454;" horiz-adv-x="600" 
d="M50 192v106q0 192 240 192h270v-105h-225q-102 0 -105 -80h260v-105h-260v-11q0 -84 105 -84h225v-105h-270q-240 0 -240 192z" />
    <glyph glyph-name="uni0455" unicode="&#x455;" horiz-adv-x="610" 
d="M50 0v105h305q25 0 25 20v55q0 20 -25 20h-155q-150 0 -150 120v50q0 120 150 120h320v-105h-265q-25 0 -25 -20v-40q0 -20 25 -20h155q150 0 150 -120v-65q0 -120 -150 -120h-360z" />
    <glyph glyph-name="uni0456" unicode="&#x456;" horiz-adv-x="300" 
d="M60 0v490h180v-490h-180zM60 560v100h180v-100h-180z" />
    <glyph glyph-name="uni0457" unicode="&#x457;" horiz-adv-x="320" 
d="M70 0v490h180v-490h-180zM-25 570v120h140v-120h-140zM205 570v120h140v-120h-140z" />
    <glyph glyph-name="uni0458" unicode="&#x458;" horiz-adv-x="300" 
d="M-50 -105h70q40 0 40 32v563h180v-580q0 -120 -150 -120h-140v105zM60 560v100h180v-100h-180z" />
    <glyph glyph-name="uni0459" unicode="&#x459;" horiz-adv-x="990" 
d="M20 0l155 490h425v-185h200q150 0 150 -120v-65q0 -120 -150 -120h-380v385h-108l-122 -385h-170zM600 105h145q25 0 25 20v55q0 20 -25 20h-145v-95z" />
    <glyph glyph-name="uni045A" unicode="&#x45a;" horiz-adv-x="1010" 
d="M60 0v490h180v-185h200v185h180v-185h200q150 0 150 -120v-65q0 -120 -150 -120h-380v200h-200v-200h-180zM620 105h145q25 0 25 20v55q0 20 -25 20h-145v-95z" />
    <glyph glyph-name="uni045B" unicode="&#x45b;" horiz-adv-x="700" 
d="M10 535v80h70v45h180v-45h180v-80h-180v-45h230q150 0 150 -120v-370h-180v365q0 20 -25 20h-175v-385h-180v535h-70z" />
    <glyph glyph-name="uni045C" unicode="&#x45c;" horiz-adv-x="660" 
d="M60 0v490h180v-180l185 180h215l-211 -205l221 -285h-195l-137 177l-78 -76v-101h-180zM240 550l110 160h160l-140 -160h-130z" />
    <glyph glyph-name="uni045D" unicode="&#x45d;" horiz-adv-x="700" 
d="M60 0v490h180v-270l200 270h200v-490h-180v270l-200 -270h-200zM175 710h160l110 -160h-130z" />
    <glyph glyph-name="uni045E" unicode="&#x45e;" 
d="M10 490h178l152 -332l152 332h178l-320 -700h-178l79 173zM185 622v88h100v-83q0 -12 15 -12h80q15 0 15 12v83h100v-88q0 -72 -90 -72h-130q-90 0 -90 72z" />
    <glyph glyph-name="uni045F" unicode="&#x45f;" 
d="M60 0v490h180v-390h200v390h180v-490h-205v-160h-150v160h-205z" />
    <glyph glyph-name="uni0462" unicode="&#x462;" horiz-adv-x="920" 
d="M20 475v120h190v65h200v-65h200v-120h-200v-70h290q170 0 170 -136v-133q0 -136 -170 -136h-490v475h-190zM410 120h225q35 0 35 28v109q0 28 -35 28h-225v-165z" />
    <glyph glyph-name="uni0463" unicode="&#x463;" horiz-adv-x="750" 
d="M30 385v105h140v170h180v-170h150v-105h-150v-80h210q150 0 150 -120v-65q0 -120 -150 -120h-390v385h-140zM350 105h155q25 0 25 20v55q0 20 -25 20h-155v-95z" />
    <glyph glyph-name="uni0472" unicode="&#x472;" horiz-adv-x="830" 
d="M70 136v388q0 136 170 136h350q170 0 170 -136v-388q0 -136 -170 -136h-350q-170 0 -170 136zM270 148q0 -28 35 -28h220q35 0 35 28v137h-290v-137zM270 405h290v107q0 28 -35 28h-220q-35 0 -35 -28v-107z" />
    <glyph glyph-name="uni0473" unicode="&#x473;" 
d="M60 120v250q0 120 150 120h260q150 0 150 -120v-250q0 -120 -150 -120h-260q-150 0 -150 120zM240 125q0 -20 25 -20h150q25 0 25 20v75h-200v-75zM240 305h200v60q0 20 -25 20h-150q-25 0 -25 -20v-60z" />
    <glyph glyph-name="uni0474" unicode="&#x474;" horiz-adv-x="930" 
d="M5 660h203l207 -480l207 480h288v-120h-137l-233 -540h-250z" />
    <glyph glyph-name="uni0475" unicode="&#x475;" horiz-adv-x="760" 
d="M10 490h178l152 -332l152 332h238v-105h-108l-176 -385h-212z" />
    <glyph glyph-name="uni0490" unicode="&#x490;" horiz-adv-x="690" 
d="M70 0v660h430v160h170v-280h-400v-540h-200z" />
    <glyph glyph-name="uni0491" unicode="&#x491;" horiz-adv-x="570" 
d="M60 0v490h330v140h150v-245h-300v-385h-180z" />
    <glyph glyph-name="uni0492" unicode="&#x492;" horiz-adv-x="710" 
d="M10 295v100h80v265h600v-120h-400v-145h150v-100h-150v-295h-200v295h-80z" />
    <glyph glyph-name="uni0493" unicode="&#x493;" horiz-adv-x="590" 
d="M10 215v80h70v195h480v-105h-300v-90h170v-80h-170v-215h-180v215h-70z" />
    <glyph glyph-name="uni0494" unicode="&#x494;" horiz-adv-x="780" 
d="M70 0v660h600v-120h-400v-135h280q170 0 170 -136v-343q0 -136 -170 -136h-190v120h110q50 0 50 40v307q0 28 -35 28h-215v-285h-200z" />
    <glyph glyph-name="uni0495" unicode="&#x495;" horiz-adv-x="650" 
d="M60 0v490h480v-105h-300v-80h210q150 0 150 -120v-275q0 -120 -150 -120h-150v105h80q40 0 40 32v253q0 20 -25 20h-155v-200h-180z" />
    <glyph glyph-name="uni0496" unicode="&#x496;" horiz-adv-x="1220" 
d="M10 0l293 387l-283 273h245l225 -217v217h200v-217l225 217h245l-283 -273l202 -267h121v-300h-170v180h-84l-199 263l-57 -55v-208h-200v208l-57 55l-199 -263h-224z" />
    <glyph glyph-name="uni0497" unicode="&#x497;" horiz-adv-x="990" 
d="M10 0l221 285l-211 205h215l160 -156v156h180v-156l160 156h215l-211 -205l139 -180h92v-265h-150v160h-55l-137 177l-53 -51v-126h-180v126l-53 51l-137 -177h-195z" />
    <glyph glyph-name="uni0498" unicode="&#x498;" horiz-adv-x="760" 
d="M50 0v120h405q35 0 35 28v109q0 28 -35 28h-315v120h315q35 0 35 28v79q0 28 -35 28h-405v120h470q170 0 170 -136v-55q0 -87 -71 -119q71 -32 71 -119v-95q0 -136 -170 -136h-470zM230 -110h90q40 0 40 32v78h130v-85q0 -100 -125 -100h-135v75z" />
    <glyph glyph-name="uni0499" unicode="&#x499;" horiz-adv-x="600" 
d="M40 0v105h295q25 0 25 20v55q0 20 -25 20h-225v105h225q25 0 25 20v40q0 20 -25 20h-295v105h350q150 0 150 -123q0 -85 -70 -112q70 -26 70 -108v-27q0 -120 -150 -120h-350zM140 -110h90q40 0 40 32v78h130v-85q0 -100 -125 -100h-135v75z" />
    <glyph glyph-name="uni049A" unicode="&#x49a;" horiz-adv-x="840" 
d="M70 0v660h200v-255l265 255h245l-283 -273l202 -267h121v-300h-170v180h-84l-199 263l-97 -94v-169h-200z" />
    <glyph glyph-name="uni049B" unicode="&#x49b;" 
d="M60 0v490h180v-180l185 180h215l-211 -205l139 -180h92v-265h-150v160h-55l-137 177l-78 -76v-101h-180z" />
    <glyph glyph-name="uni049C" unicode="&#x49c;" horiz-adv-x="810" 
d="M70 0v660h200v-265l45 43v167h90v-80l140 135h245l-283 -273l293 -387h-224l-171 226v-161h-90v138l-45 -44v-159h-200z" />
    <glyph glyph-name="uni049D" unicode="&#x49d;" 
d="M60 0v490h180v-200l40 39v126h75v-53l90 88h215l-211 -205l221 -285h-195l-120 155v-120h-75v86l-40 -39v-82h-180z" />
    <glyph glyph-name="uni049E" unicode="&#x49e;" horiz-adv-x="830" 
d="M10 510v100h90v50h200v-50h90v-100h-90v-105l265 255h245l-283 -273l293 -387h-224l-199 263l-97 -94v-169h-200v510h-90z" />
    <glyph glyph-name="uni049F" unicode="&#x49f;" horiz-adv-x="690" 
d="M10 375v80h60v35h180v-35h60v-80h-60v-85l205 200h215l-211 -205l221 -285h-195l-137 177l-98 -95v-82h-180v375h-60z" />
    <glyph glyph-name="uni04A0" unicode="&#x4a0;" horiz-adv-x="980" 
d="M20 545v115h430v-255l265 255h245l-283 -273l293 -387h-224l-199 263l-97 -94v-169h-200v545h-230z" />
    <glyph glyph-name="uni04A1" unicode="&#x4a1;" horiz-adv-x="790" 
d="M30 390v100h340v-180l185 180h215l-211 -205l221 -285h-195l-137 177l-78 -76v-101h-180v390h-160z" />
    <glyph glyph-name="uni04A2" unicode="&#x4a2;" horiz-adv-x="890" 
d="M70 0v660h200v-255h290v255h200v-540h110v-300h-170v180h-140v285h-290v-285h-200z" />
    <glyph glyph-name="uni04A3" unicode="&#x4a3;" horiz-adv-x="730" 
d="M60 0v490h180v-185h200v185h180v-385h90v-265h-150v160h-120v200h-200v-200h-180z" />
    <glyph glyph-name="uni04A4" unicode="&#x4a4;" horiz-adv-x="1050" 
d="M70 0v660h200v-255h290v255h470v-120h-270v-540h-200v285h-290v-285h-200z" />
    <glyph glyph-name="uni04A5" unicode="&#x4a5;" horiz-adv-x="850" 
d="M60 0v490h180v-185h200v185h380v-100h-200v-390h-180v200h-200v-200h-180z" />
    <glyph glyph-name="uni04A6" unicode="&#x4a6;" horiz-adv-x="1250" 
d="M70 0v660h670v-255h280q170 0 170 -136v-343q0 -136 -170 -136h-190v120h110q50 0 50 40v307q0 28 -35 28h-215v-285h-200v540h-270v-540h-200z" />
    <glyph glyph-name="uni04A7" unicode="&#x4a7;" horiz-adv-x="1020" 
d="M60 0v490h560v-185h200q150 0 150 -120v-275q0 -120 -150 -120h-150v105h80q40 0 40 32v253q0 20 -25 20h-145v-200h-180v385h-200v-385h-180z" />
    <glyph glyph-name="uni04A8" unicode="&#x4a8;" horiz-adv-x="970" 
d="M70 136v388q0 136 170 136h350v-120h-285q-35 0 -35 -28v-364q0 -28 35 -28h85v184q0 136 170 136h180q170 0 170 -136v-168q0 -136 -170 -136h-500q-170 0 -170 136zM590 120h85q35 0 35 28v144q0 28 -35 28h-50q-35 0 -35 -28v-172z" />
    <glyph glyph-name="uni04A9" unicode="&#x4a9;" horiz-adv-x="780" 
d="M60 120v250q0 120 150 120h250v-105h-195q-25 0 -25 -20v-240q0 -20 25 -20h50v105q0 120 150 120h115q150 0 150 -120v-90q0 -120 -150 -120h-370q-150 0 -150 120zM485 105h50q25 0 25 20v80q0 20 -25 20h-25q-25 0 -25 -20v-100z" />
    <glyph glyph-name="uni04AA" unicode="&#x4aa;" horiz-adv-x="760" 
d="M70 136v388q0 136 170 136h470v-120h-405q-35 0 -35 -28v-364q0 -28 35 -28h405v-120h-470q-170 0 -170 136zM300 -110h90q40 0 40 32v78h130v-85q0 -100 -125 -100h-135v75z" />
    <glyph glyph-name="uni04AB" unicode="&#x4ab;" horiz-adv-x="610" 
d="M60 120v250q0 120 150 120h360v-105h-305q-25 0 -25 -20v-240q0 -20 25 -20h305v-105h-360q-150 0 -150 120zM210 -110h90q40 0 40 32v78h130v-85q0 -100 -125 -100h-135v75z" />
    <glyph glyph-name="uni04AC" unicode="&#x4ac;" horiz-adv-x="780" 
d="M20 540v120h740v-120h-270v-420h110v-300h-170v180h-140v540h-270z" />
    <glyph glyph-name="uni04AD" unicode="&#x4ad;" horiz-adv-x="640" 
d="M30 390v100h580v-100h-200v-285h90v-265h-150v160h-120v390h-200z" />
    <glyph glyph-name="uni04AE" unicode="&#x4ae;" horiz-adv-x="810" 
d="M5 660h216l184 -255l184 255h216l-300 -415v-245h-200v245z" />
    <glyph glyph-name="uni04AF" unicode="&#x4af;" 
d="M10 490h178l152 -332l152 332h178l-240 -525v-175h-180v175z" />
    <glyph glyph-name="uni04B0" unicode="&#x4b0;" horiz-adv-x="810" 
d="M5 660h216l184 -255l184 255h216l-278 -385h138v-100h-160v-175h-200v175h-160v100h138z" />
    <glyph glyph-name="uni04B1" unicode="&#x4b1;" 
d="M10 490h178l152 -332l152 332h178l-224 -490h124v-80h-140v-130h-180v130h-140v80h124z" />
    <glyph glyph-name="uni04B2" unicode="&#x4b2;" horiz-adv-x="840" 
d="M10 0l278 336l-268 324h223l157 -189l157 189h223l-268 -324l179 -216h129v-300h-170v180h-83l-167 201l-167 -201h-223z" />
    <glyph glyph-name="uni04B3" unicode="&#x4b3;" horiz-adv-x="670" 
d="M10 0l215 248l-210 242h201l109 -126l109 126h201l-210 -242l124 -143h101v-265h-150v160h-61l-114 132l-114 -132h-201z" />
    <glyph glyph-name="uni04B4" unicode="&#x4b4;" horiz-adv-x="1060" 
d="M20 540v120h640v-120h-220v-420h290v540h200v-540h110v-300h-170v180h-630v540h-220z" />
    <glyph glyph-name="uni04B5" unicode="&#x4b5;" horiz-adv-x="840" 
d="M30 385v105h460v-105h-140v-280h200v385h180v-385h90v-265h-150v160h-500v385h-140z" />
    <glyph glyph-name="uni04B6" unicode="&#x4b6;" horiz-adv-x="840" 
d="M50 371v289h200v-277q0 -28 35 -28h225v305h200v-540h110v-300h-170v180h-140v235h-290q-170 0 -170 136z" />
    <glyph glyph-name="uni04B7" unicode="&#x4b7;" horiz-adv-x="700" 
d="M50 290v200h180v-195q0 -20 25 -20h155v215h180v-385h90v-265h-150v160h-120v170h-210q-150 0 -150 120z" />
    <glyph glyph-name="uni04B8" unicode="&#x4b8;" horiz-adv-x="780" 
d="M50 371v289h200v-277q0 -28 35 -28h40v140h110v-140h75v305h200v-660h-200v235h-75v-140h-110v140h-105q-170 0 -170 136z" />
    <glyph glyph-name="uni04B9" unicode="&#x4b9;" horiz-adv-x="660" 
d="M50 290v200h180v-195q0 -20 25 -20h25v100h90v-100h50v215h180v-490h-180v170h-50v-100h-90v100h-80q-150 0 -150 120z" />
    <glyph glyph-name="uni04BA" unicode="&#x4ba;" horiz-adv-x="790" 
d="M70 0v660h200v-255h290q170 0 170 -136v-269h-200v257q0 28 -35 28h-225v-285h-200z" />
    <glyph glyph-name="uni04BB" unicode="&#x4bb;" horiz-adv-x="650" 
d="M60 0v490h180v-185h210q150 0 150 -120v-185h-180v180q0 20 -25 20h-155v-200h-180z" />
    <glyph glyph-name="uni04BC" unicode="&#x4bc;" horiz-adv-x="930" 
d="M20 285v120h160v119q0 136 170 136h340q170 0 170 -136v-239h-480v-137q0 -28 35 -28h415v-120h-480q-170 0 -170 136v149h-160zM380 405h280v107q0 28 -35 28h-210q-35 0 -35 -28v-107z" />
    <glyph glyph-name="uni04BD" unicode="&#x4bd;" horiz-adv-x="760" 
d="M30 200v105h130v65q0 120 150 120h240q150 0 150 -120v-170h-360v-75q0 -20 25 -20h315v-105h-370q-150 0 -150 120v80h-130zM340 305h180v60q0 20 -25 20h-130q-25 0 -25 -20v-60z" />
    <glyph glyph-name="uni04C0" unicode="&#x4c0;" horiz-adv-x="340" 
d="M70 0v660h200v-660h-200z" />
    <glyph glyph-name="uni04C1" unicode="&#x4c1;" horiz-adv-x="1180" 
d="M10 0l293 387l-283 273h245l225 -217v217h200v-217l225 217h245l-283 -273l293 -387h-224l-199 263l-57 -55v-208h-200v208l-57 55l-199 -263h-224zM435 792v88h100v-83q0 -12 15 -12h80q15 0 15 12v83h100v-88q0 -72 -90 -72h-130q-90 0 -90 72z" />
    <glyph glyph-name="uni04C2" unicode="&#x4c2;" horiz-adv-x="970" 
d="M10 0l221 285l-211 205h215l160 -156v156h180v-156l160 156h215l-211 -205l221 -285h-195l-137 177l-53 -51v-126h-180v126l-53 51l-137 -177h-195zM330 622v88h100v-83q0 -12 15 -12h80q15 0 15 12v83h100v-88q0 -72 -90 -72h-130q-90 0 -90 72z" />
    <glyph glyph-name="uni04CB" unicode="&#x4cb;" horiz-adv-x="780" 
d="M50 371v289h200v-277q0 -28 35 -28h225v305h200v-660h-140v-180h-170v300h110v115h-290q-170 0 -170 136z" />
    <glyph glyph-name="uni04CC" unicode="&#x4cc;" horiz-adv-x="650" 
d="M50 290v200h180v-195q0 -20 25 -20h155v215h180v-490h-120v-160h-150v265h90v65h-210q-150 0 -150 120z" />
    <glyph glyph-name="uni04CF" unicode="&#x4cf;" horiz-adv-x="300" 
d="M60 0v660h180v-660h-180z" />
    <glyph glyph-name="uni04D0" unicode="&#x4d0;" horiz-adv-x="830" 
d="M5 0l285 660h250l285 -660h-196l-60 140h-308l-60 -140h-196zM313 260h204l-102 235zM260 792v88h100v-83q0 -12 15 -12h80q15 0 15 12v83h100v-88q0 -72 -90 -72h-130q-90 0 -90 72z" />
    <glyph glyph-name="uni04D1" unicode="&#x4d1;" horiz-adv-x="650" 
d="M50 120v65q0 120 150 120h210v60q0 20 -25 20h-295v105h350q150 0 150 -120v-370h-390q-150 0 -150 120zM230 125q0 -20 25 -20h155v95h-155q-25 0 -25 -20v-55zM170 622v88h100v-83q0 -12 15 -12h80q15 0 15 12v83h100v-88q0 -72 -90 -72h-130q-90 0 -90 72z" />
    <glyph glyph-name="uni04D2" unicode="&#x4d2;" horiz-adv-x="830" 
d="M5 0l285 660h250l285 -660h-196l-60 140h-308l-60 -140h-196zM313 260h204l-102 235zM230 740v120h140v-120h-140zM460 740v120h140v-120h-140z" />
    <glyph glyph-name="uni04D3" unicode="&#x4d3;" horiz-adv-x="650" 
d="M50 120v65q0 120 150 120h210v60q0 20 -25 20h-295v105h350q150 0 150 -120v-370h-390q-150 0 -150 120zM230 125q0 -20 25 -20h155v95h-155q-25 0 -25 -20v-55zM140 570v120h140v-120h-140zM370 570v120h140v-120h-140z" />
    <glyph glyph-name="uni04D4" unicode="&#x4d4;" horiz-adv-x="1150" 
d="M5 0l285 660h810v-120h-400v-135h350v-120h-350v-165h400v-120h-600v140h-239l-60 -140h-196zM313 260h187v280h-66z" />
    <glyph glyph-name="uni04D5" unicode="&#x4d5;" horiz-adv-x="1010" 
d="M50 120v65q0 120 150 120h210v60q0 20 -25 20h-295v105h710q150 0 150 -120v-170h-360v-75q0 -20 25 -20h315v-105h-730q-150 0 -150 120zM230 125q0 -20 25 -20h155v95h-155q-25 0 -25 -20v-55zM590 305h180v60q0 20 -25 20h-130q-25 0 -25 -20v-60z" />
    <glyph glyph-name="uni04D6" unicode="&#x4d6;" horiz-adv-x="760" 
d="M70 0v660h640v-120h-440v-135h390v-120h-390v-165h440v-120h-640zM235 792v88h100v-83q0 -12 15 -12h80q15 0 15 12v83h100v-88q0 -72 -90 -72h-130q-90 0 -90 72z" />
    <glyph glyph-name="uni04D7" unicode="&#x4d7;" horiz-adv-x="660" 
d="M60 120v250q0 120 150 120h240q150 0 150 -120v-170h-360v-75q0 -20 25 -20h315v-105h-370q-150 0 -150 120zM240 305h180v60q0 20 -25 20h-130q-25 0 -25 -20v-60zM175 622v88h100v-83q0 -12 15 -12h80q15 0 15 12v83h100v-88q0 -72 -90 -72h-130q-90 0 -90 72z" />
    <glyph glyph-name="uni04D8" unicode="&#x4d8;" horiz-adv-x="820" 
d="M70 136v239h480v137q0 28 -35 28h-415v120h480q170 0 170 -136v-388q0 -136 -170 -136h-340q-170 0 -170 136zM270 148q0 -28 35 -28h210q35 0 35 28v107h-280v-107z" />
    <glyph glyph-name="uni04D9" unicode="&#x4d9;" horiz-adv-x="660" 
d="M60 120v170h360v75q0 20 -25 20h-315v105h370q150 0 150 -120v-250q0 -120 -150 -120h-240q-150 0 -150 120zM240 125q0 -20 25 -20h130q25 0 25 20v60h-180v-60z" />
    <glyph glyph-name="uni04DC" unicode="&#x4dc;" horiz-adv-x="1180" 
d="M10 0l293 387l-283 273h245l225 -217v217h200v-217l225 217h245l-283 -273l293 -387h-224l-199 263l-57 -55v-208h-200v208l-57 55l-199 -263h-224zM405 740v120h140v-120h-140zM635 740v120h140v-120h-140z" />
    <glyph glyph-name="uni04DD" unicode="&#x4dd;" horiz-adv-x="970" 
d="M10 0l221 285l-211 205h215l160 -156v156h180v-156l160 156h215l-211 -205l221 -285h-195l-137 177l-53 -51v-126h-180v126l-53 51l-137 -177h-195zM300 570v120h140v-120h-140zM530 570v120h140v-120h-140z" />
    <glyph glyph-name="uni04DE" unicode="&#x4de;" horiz-adv-x="760" 
d="M50 0v120h405q35 0 35 28v109q0 28 -35 28h-315v120h315q35 0 35 28v79q0 28 -35 28h-405v120h470q170 0 170 -136v-55q0 -87 -71 -119q71 -32 71 -119v-95q0 -136 -170 -136h-470zM185 740v120h140v-120h-140zM415 740v120h140v-120h-140z" />
    <glyph glyph-name="uni04DF" unicode="&#x4df;" horiz-adv-x="600" 
d="M40 0v105h295q25 0 25 20v55q0 20 -25 20h-225v105h225q25 0 25 20v40q0 20 -25 20h-295v105h350q150 0 150 -123q0 -85 -70 -112q70 -26 70 -108v-27q0 -120 -150 -120h-350zM105 570v120h140v-120h-140zM335 570v120h140v-120h-140z" />
    <glyph glyph-name="uni04E0" unicode="&#x4e0;" horiz-adv-x="760" 
d="M50 0v120h405q35 0 35 28v109q0 28 -35 28h-155v120l146 135h-396v120h640v-120l-146 -135q146 -10 146 -136v-133q0 -136 -170 -136h-470z" />
    <glyph glyph-name="uni04E1" unicode="&#x4e1;" horiz-adv-x="600" 
d="M40 0v105h295q25 0 25 20v55q0 20 -25 20h-115v105l98 80h-278v105h500v-105l-102 -83q102 -18 102 -117v-65q0 -120 -150 -120h-350z" />
    <glyph glyph-name="uni04E2" unicode="&#x4e2;" horiz-adv-x="840" 
d="M70 0v660h200v-396l285 396h215v-660h-200v396l-285 -396h-215zM245 750v95h350v-95h-350z" />
    <glyph glyph-name="uni04E3" unicode="&#x4e3;" horiz-adv-x="700" 
d="M60 0v490h180v-270l200 270h200v-490h-180v270l-200 -270h-200zM175 580v95h350v-95h-350z" />
    <glyph glyph-name="uni04E4" unicode="&#x4e4;" horiz-adv-x="840" 
d="M70 0v660h200v-396l285 396h215v-660h-200v396l-285 -396h-215zM235 740v120h140v-120h-140zM465 740v120h140v-120h-140z" />
    <glyph glyph-name="uni04E5" unicode="&#x4e5;" horiz-adv-x="700" 
d="M60 0v490h180v-270l200 270h200v-490h-180v270l-200 -270h-200zM165 570v120h140v-120h-140zM395 570v120h140v-120h-140z" />
    <glyph glyph-name="uni04E6" unicode="&#x4e6;" horiz-adv-x="830" 
d="M70 136v388q0 136 170 136h350q170 0 170 -136v-388q0 -136 -170 -136h-350q-170 0 -170 136zM270 148q0 -28 35 -28h220q35 0 35 28v364q0 28 -35 28h-220q-35 0 -35 -28v-364zM230 740v120h140v-120h-140zM460 740v120h140v-120h-140z" />
    <glyph glyph-name="uni04E7" unicode="&#x4e7;" 
d="M60 120v250q0 120 150 120h260q150 0 150 -120v-250q0 -120 -150 -120h-260q-150 0 -150 120zM240 125q0 -20 25 -20h150q25 0 25 20v240q0 20 -25 20h-150q-25 0 -25 -20v-240zM155 570v120h140v-120h-140zM385 570v120h140v-120h-140z" />
    <glyph glyph-name="uni04E8" unicode="&#x4e8;" horiz-adv-x="830" 
d="M70 136v388q0 136 170 136h350q170 0 170 -136v-388q0 -136 -170 -136h-350q-170 0 -170 136zM270 148q0 -28 35 -28h220q35 0 35 28v147h-290v-147zM270 395h290v117q0 28 -35 28h-220q-35 0 -35 -28v-117z" />
    <glyph glyph-name="uni04E9" unicode="&#x4e9;" 
d="M60 120v250q0 120 150 120h260q150 0 150 -120v-250q0 -120 -150 -120h-260q-150 0 -150 120zM240 125q0 -20 25 -20h150q25 0 25 20v85h-200v-85zM240 295h200v70q0 20 -25 20h-150q-25 0 -25 -20v-70z" />
    <glyph glyph-name="uni04EE" unicode="&#x4ee;" horiz-adv-x="770" 
d="M5 660h213l172 -289l165 289h210l-375 -660h-210l106 188zM215 750v95h350v-95h-350z" />
    <glyph glyph-name="uni04EF" unicode="&#x4ef;" 
d="M10 490h178l152 -332l152 332h178l-320 -700h-178l79 173zM165 580v95h350v-95h-350z" />
    <glyph glyph-name="uni04F0" unicode="&#x4f0;" horiz-adv-x="770" 
d="M5 660h213l172 -289l165 289h210l-375 -660h-210l106 188zM205 740v120h140v-120h-140zM435 740v120h140v-120h-140z" />
    <glyph glyph-name="uni04F1" unicode="&#x4f1;" 
d="M10 490h178l152 -332l152 332h178l-320 -700h-178l79 173zM155 570v120h140v-120h-140zM385 570v120h140v-120h-140z" />
    <glyph glyph-name="uni04F2" unicode="&#x4f2;" horiz-adv-x="770" 
d="M5 660h213l172 -289l165 289h210l-375 -660h-210l106 188zM210 720l100 160h145l-130 -160h-115zM415 720l100 160h145l-130 -160h-115z" />
    <glyph glyph-name="uni04F3" unicode="&#x4f3;" 
d="M10 490h178l152 -332l152 332h178l-320 -700h-178l79 173zM160 550l100 160h145l-130 -160h-115zM365 550l100 160h145l-130 -160h-115z" />
    <glyph glyph-name="uni04F4" unicode="&#x4f4;" horiz-adv-x="780" 
d="M50 371v289h200v-277q0 -28 35 -28h225v305h200v-660h-200v235h-290q-170 0 -170 136zM195 740v120h140v-120h-140zM425 740v120h140v-120h-140z" />
    <glyph glyph-name="uni04F5" unicode="&#x4f5;" horiz-adv-x="650" 
d="M50 290v200h180v-195q0 -20 25 -20h155v215h180v-490h-180v170h-210q-150 0 -150 120zM135 570v120h140v-120h-140zM365 570v120h140v-120h-140z" />
    <glyph glyph-name="uni04F6" unicode="&#x4f6;" horiz-adv-x="690" 
d="M70 0v660h600v-120h-400v-420h110v-300h-170v180h-140z" />
    <glyph glyph-name="uni04F7" unicode="&#x4f7;" horiz-adv-x="570" 
d="M60 0v490h480v-105h-300v-280h90v-265h-150v160h-120z" />
    <glyph glyph-name="uni04F8" unicode="&#x4f8;" horiz-adv-x="1090" 
d="M70 0v660h200v-255h290q170 0 170 -136v-133q0 -136 -170 -136h-490zM270 120h225q35 0 35 28v109q0 28 -35 28h-225v-165zM820 0v660h200v-660h-200zM360 740v120h140v-120h-140zM590 740v120h140v-120h-140z" />
    <glyph glyph-name="uni04F9" unicode="&#x4f9;" horiz-adv-x="920" 
d="M60 0v490h180v-185h210q150 0 150 -120v-65q0 -120 -150 -120h-390zM240 105h155q25 0 25 20v55q0 20 -25 20h-155v-95zM680 0v490h180v-490h-180zM280 570v120h140v-120h-140zM510 570v120h140v-120h-140z" />
    <glyph glyph-name="uni0524" unicode="&#x524;" horiz-adv-x="890" 
d="M70 0v660h690v-540h110v-300h-170v180h-140v540h-290v-540h-200z" />
    <glyph glyph-name="uni0525" unicode="&#x525;" horiz-adv-x="730" 
d="M60 0v490h560v-385h90v-265h-150v160h-120v385h-200v-385h-180z" />
    <glyph glyph-name="uni1E02" unicode="&#x1e02;" horiz-adv-x="800" 
d="M70 0v660h490q170 0 170 -136v-58q0 -84 -65 -116q75 -30 75 -121v-93q0 -136 -170 -136h-500zM270 120h235q35 0 35 28v109q0 28 -35 28h-235v-165zM270 405h225q35 0 35 28v79q0 28 -35 28h-225v-135zM325 740v120h160v-120h-160z" />
    <glyph glyph-name="uni1E03" unicode="&#x1e03;" 
d="M60 0v660h180v-170h230q150 0 150 -120v-250q0 -120 -150 -120h-410zM240 105h175q25 0 25 20v240q0 20 -25 20h-175v-280zM260 740v120h160v-120h-160z" />
    <glyph glyph-name="uni1E0A" unicode="&#x1e0a;" horiz-adv-x="820" 
d="M70 0v660h350q340 0 340 -272v-116q0 -272 -340 -272h-350zM270 120h110q180 0 180 144v132q0 144 -180 144h-110v-420zM315 740v120h160v-120h-160z" />
    <glyph glyph-name="uni1E0B" unicode="&#x1e0b;" 
d="M60 120v250q0 120 150 120h230v170h180v-660h-410q-150 0 -150 120zM240 125q0 -20 25 -20h175v280h-175q-25 0 -25 -20v-240zM260 740v120h160v-120h-160z" />
    <glyph glyph-name="uni1E1E" unicode="&#x1e1e;" horiz-adv-x="730" 
d="M70 0v660h630v-120h-430v-145h380v-120h-380v-275h-200zM305 740v120h160v-120h-160z" />
    <glyph glyph-name="uni1E1F" unicode="&#x1e1f;" horiz-adv-x="440" 
d="M60 0v540q0 120 150 120h200v-105h-145q-25 0 -25 -20v-45h170v-105h-170v-385h-180zM155 740v120h160v-120h-160z" />
    <glyph glyph-name="uni1E40" unicode="&#x1e40;" horiz-adv-x="1040" 
d="M70 0v660h245l205 -461l205 461h245v-660h-200v348l-155 -348h-190l-155 348v-348h-200zM440 740v120h160v-120h-160z" />
    <glyph glyph-name="uni1E41" unicode="&#x1e41;" horiz-adv-x="960" 
d="M60 0v490h690q150 0 150 -120v-370h-180v365q0 20 -25 20h-125v-385h-180v365q0 20 -25 20h-125v-385h-180zM400 570v120h160v-120h-160z" />
    <glyph glyph-name="uni1E56" unicode="&#x1e56;" horiz-adv-x="780" 
d="M70 0v660h490q170 0 170 -136v-153q0 -136 -170 -136h-290v-235h-200zM270 355h225q35 0 35 28v129q0 28 -35 28h-225v-185zM320 740v120h160v-120h-160z" />
    <glyph glyph-name="uni1E57" unicode="&#x1e57;" 
d="M60 -210v700h410q150 0 150 -120v-250q0 -120 -150 -120h-230v-210h-180zM240 105h175q25 0 25 20v240q0 20 -25 20h-175v-280zM260 570v120h160v-120h-160z" />
    <glyph glyph-name="uni1E60" unicode="&#x1e60;" horiz-adv-x="780" 
d="M60 0v120h425q35 0 35 28v109q0 28 -35 28h-255q-170 0 -170 136v103q0 136 170 136h440v-120h-375q-35 0 -35 -28v-79q0 -28 35 -28h255q170 0 170 -136v-133q0 -136 -170 -136h-490zM310 740v120h160v-120h-160z" />
    <glyph glyph-name="uni1E61" unicode="&#x1e61;" horiz-adv-x="610" 
d="M50 0v105h305q25 0 25 20v55q0 20 -25 20h-155q-150 0 -150 120v50q0 120 150 120h320v-105h-265q-25 0 -25 -20v-40q0 -20 25 -20h155q150 0 150 -120v-65q0 -120 -150 -120h-360zM225 570v120h160v-120h-160z" />
    <glyph glyph-name="uni1E6A" unicode="&#x1e6a;" horiz-adv-x="780" 
d="M20 540v120h740v-120h-270v-540h-200v540h-270zM310 740v120h160v-120h-160z" />
    <glyph glyph-name="uni1E6B" unicode="&#x1e6b;" horiz-adv-x="450" 
d="M60 120v540h180v-170h170v-105h-170v-260q0 -20 25 -20h145v-105h-200q-150 0 -150 120zM155 740v120h160v-120h-160z" />
    <glyph glyph-name="Wgrave" unicode="&#x1e80;" horiz-adv-x="1200" 
d="M15 660h195l131 -465l154 465h210l154 -465l131 465h195l-185 -660h-255l-145 437l-145 -437h-255zM425 880h160l110 -160h-130z" />
    <glyph glyph-name="wgrave" unicode="&#x1e81;" horiz-adv-x="930" 
d="M10 490h170l101 -320l101 320h166l101 -320l101 320h170l-155 -490h-205l-95 301l-95 -301h-205zM290 710h160l110 -160h-130z" />
    <glyph glyph-name="Wacute" unicode="&#x1e82;" horiz-adv-x="1200" 
d="M15 660h195l131 -465l154 465h210l154 -465l131 465h195l-185 -660h-255l-145 437l-145 -437h-255zM505 720l110 160h160l-140 -160h-130z" />
    <glyph glyph-name="wacute" unicode="&#x1e83;" horiz-adv-x="930" 
d="M10 490h170l101 -320l101 320h166l101 -320l101 320h170l-155 -490h-205l-95 301l-95 -301h-205zM370 550l110 160h160l-140 -160h-130z" />
    <glyph glyph-name="Wdieresis" unicode="&#x1e84;" horiz-adv-x="1200" 
d="M15 660h195l131 -465l154 465h210l154 -465l131 465h195l-185 -660h-255l-145 437l-145 -437h-255zM415 740v120h140v-120h-140zM645 740v120h140v-120h-140z" />
    <glyph glyph-name="wdieresis" unicode="&#x1e85;" horiz-adv-x="930" 
d="M10 490h170l101 -320l101 320h166l101 -320l101 320h170l-155 -490h-205l-95 301l-95 -301h-205zM280 570v120h140v-120h-140zM510 570v120h140v-120h-140z" />
    <glyph glyph-name="uni1E9E" unicode="&#x1e9e;" horiz-adv-x="820" 
d="M70 0v524q0 136 170 136h440v-120l-99 -135h9q170 0 170 -136v-133q0 -136 -170 -136h-225v120h160q35 0 35 28v109q0 28 -35 28h-160v120l99 135h-159q-35 0 -35 -28v-512h-200z" />
    <glyph glyph-name="Ygrave" unicode="&#x1ef2;" horiz-adv-x="810" 
d="M5 660h216l184 -255l184 255h216l-300 -415v-245h-200v245zM230 880h160l110 -160h-130z" />
    <glyph glyph-name="ygrave" unicode="&#x1ef3;" 
d="M10 490h178l152 -332l152 332h178l-320 -700h-178l79 173zM165 710h160l110 -160h-130z" />
    <glyph glyph-name="uni2007" unicode="&#x2007;" horiz-adv-x="740" 
 />
    <glyph glyph-name="uni2008" unicode="&#x2008;" horiz-adv-x="340" 
 />
    <glyph glyph-name="uni2009" unicode="&#x2009;" horiz-adv-x="200" 
 />
    <glyph glyph-name="uni200A" unicode="&#x200a;" horiz-adv-x="100" 
 />
    <glyph glyph-name="figuredash" unicode="&#x2012;" horiz-adv-x="740" 
d="M160 225v120h420v-120h-420z" />
    <glyph glyph-name="endash" unicode="&#x2013;" horiz-adv-x="640" 
d="M40 225v120h560v-120h-560z" />
    <glyph glyph-name="emdash" unicode="&#x2014;" horiz-adv-x="1000" 
d="M40 225v120h920v-120h-920z" />
    <glyph glyph-name="uni2015" unicode="&#x2015;" horiz-adv-x="1000" 
d="M0 225v120h1000v-120h-1000z" />
    <glyph glyph-name="quoteleft" unicode="&#x2018;" horiz-adv-x="340" 
d="M40 380l115 280h135l-70 -280h-180z" />
    <glyph glyph-name="quoteright" unicode="&#x2019;" horiz-adv-x="340" 
d="M50 380l70 280h180l-115 -280h-135z" />
    <glyph glyph-name="quotesinglbase" unicode="&#x201a;" horiz-adv-x="340" 
d="M25 -130l70 280h180l-115 -280h-135z" />
    <glyph glyph-name="quotereversed" unicode="&#x201b;" horiz-adv-x="340" 
d="M40 660h180l70 -280h-135z" />
    <glyph glyph-name="quotedblleft" unicode="&#x201c;" horiz-adv-x="600" 
d="M40 380l115 280h135l-70 -280h-180zM300 380l115 280h135l-70 -280h-180z" />
    <glyph glyph-name="quotedblright" unicode="&#x201d;" horiz-adv-x="600" 
d="M310 380l70 280h180l-115 -280h-135zM50 380l70 280h180l-115 -280h-135z" />
    <glyph glyph-name="quotedblbase" unicode="&#x201e;" horiz-adv-x="600" 
d="M25 -130l70 280h180l-115 -280h-135zM285 -130l70 280h180l-115 -280h-135z" />
    <glyph glyph-name="uni201F" unicode="&#x201f;" horiz-adv-x="600" 
d="M40 660h180l70 -280h-135zM300 660h180l70 -280h-135z" />
    <glyph glyph-name="dagger" unicode="&#x2020;" horiz-adv-x="640" 
d="M50 385v105h180v170h180v-170h180v-105h-180v-490h-180v490h-180z" />
    <glyph glyph-name="daggerdbl" unicode="&#x2021;" horiz-adv-x="640" 
d="M50 65v105h180v215h-180v105h180v170h180v-170h180v-105h-180v-215h180v-105h-180v-170h-180v170h-180z" />
    <glyph glyph-name="bullet" unicode="&#x2022;" horiz-adv-x="430" 
d="M75 180v260h280v-260h-280z" />
    <glyph glyph-name="ellipsis" unicode="&#x2026;" horiz-adv-x="1020" 
d="M75 0v150h190v-150h-190zM415 0v150h190v-150h-190zM755 0v150h190v-150h-190z" />
    <glyph glyph-name="uni202F" unicode="&#x202f;" horiz-adv-x="200" 
 />
    <glyph glyph-name="perthousand" unicode="&#x2030;" horiz-adv-x="1570" 
d="M40 364v212q0 84 105 84h170q105 0 105 -84v-212q0 -84 -105 -84h-170q-105 0 -105 84zM180 376q0 -16 20 -16h60q20 0 20 16v188q0 16 -20 16h-60q-20 0 -20 -16v-188zM295 0l362 660h158l-362 -660h-158zM690 84v212q0 84 105 84h170q105 0 105 -84v-212
q0 -84 -105 -84h-170q-105 0 -105 84zM830 96q0 -16 20 -16h60q20 0 20 16v188q0 16 -20 16h-60q-20 0 -20 -16v-188zM1150 84v212q0 84 105 84h170q105 0 105 -84v-212q0 -84 -105 -84h-170q-105 0 -105 84zM1290 96q0 -16 20 -16h60q20 0 20 16v188q0 16 -20 16h-60
q-20 0 -20 -16v-188z" />
    <glyph glyph-name="minute" unicode="&#x2032;" horiz-adv-x="300" 
d="M70 380v280h160v-280h-160z" />
    <glyph glyph-name="second" unicode="&#x2033;" horiz-adv-x="560" 
d="M70 380v280h160v-280h-160zM330 380v280h160v-280h-160z" />
    <glyph glyph-name="guilsinglleft" unicode="&#x2039;" horiz-adv-x="440" 
d="M30 260l195 210h175l-185 -210l185 -210h-175z" />
    <glyph glyph-name="guilsinglright" unicode="&#x203a;" horiz-adv-x="440" 
d="M40 50l185 210l-185 210h175l195 -210l-195 -210h-175z" />
    <glyph glyph-name="uni203D" unicode="&#x203d;" horiz-adv-x="740" 
d="M40 540v120h480q170 0 170 -136v-103q0 -136 -170 -136h-110v-60h-200v315h-170zM210 0v150h200v-150h-200zM410 405h45q35 0 35 28v79q0 28 -35 28h-45v-135z" />
    <glyph glyph-name="uni203E" unicode="&#x203e;" horiz-adv-x="640" 
d="M0 850h640v-105h-640v105z" />
    <glyph glyph-name="fraction" unicode="&#x2044;" horiz-adv-x="190" 
d="M-165 0l362 660h158l-362 -660h-158z" />
    <glyph glyph-name="uni2070" unicode="&#x2070;" horiz-adv-x="460" 
d="M40 364v212q0 84 105 84h170q105 0 105 -84v-212q0 -84 -105 -84h-170q-105 0 -105 84zM180 376q0 -16 20 -16h60q20 0 20 16v188q0 16 -20 16h-60q-20 0 -20 -16v-188z" />
    <glyph glyph-name="uni2074" unicode="&#x2074;" horiz-adv-x="460" 
d="M40 345v80l205 235h175v-380h-140v65h-240zM188 425h92v105z" />
    <glyph glyph-name="uni2075" unicode="&#x2075;" horiz-adv-x="460" 
d="M40 280v80h220q20 0 20 16v43q0 16 -20 16h-220v225h360v-80h-220v-65h135q105 0 105 -84v-67q0 -84 -105 -84h-275z" />
    <glyph glyph-name="uni2076" unicode="&#x2076;" horiz-adv-x="460" 
d="M40 364v196q0 100 125 100h225v-80h-180q-30 0 -30 -24v-41h135q105 0 105 -84v-67q0 -84 -105 -84h-170q-105 0 -105 84zM180 376q0 -16 20 -16h60q20 0 20 16v43q0 16 -20 16h-80v-59z" />
    <glyph glyph-name="uni2077" unicode="&#x2077;" horiz-adv-x="460" 
d="M40 580v80h380v-80l-164 -300h-159l164 300h-221z" />
    <glyph glyph-name="uni2078" unicode="&#x2078;" horiz-adv-x="460" 
d="M40 364v35q0 58 50 76q-50 18 -50 76v25q0 84 105 84h170q105 0 105 -84v-25q0 -58 -50 -76q50 -18 50 -76v-35q0 -84 -105 -84h-170q-105 0 -105 84zM180 376q0 -16 20 -16h60q20 0 20 16v43q0 16 -20 16h-60q-20 0 -20 -16v-43zM180 531q0 -16 20 -16h60q20 0 20 16v33
q0 16 -20 16h-60q-20 0 -20 -16v-33z" />
    <glyph glyph-name="uni2079" unicode="&#x2079;" horiz-adv-x="460" 
d="M40 519v57q0 84 105 84h170q105 0 105 -84v-196q0 -100 -125 -100h-235v80h190q30 0 30 24v51h-135q-105 0 -105 84zM180 531q0 -16 20 -16h80v49q0 16 -20 16h-60q-20 0 -20 -16v-33z" />
    <glyph glyph-name="uni207A" unicode="&#x207a;" horiz-adv-x="460" 
d="M55 400v90h115v110h120v-110h115v-90h-115v-110h-120v110h-115z" />
    <glyph glyph-name="uni207B" unicode="&#x207b;" horiz-adv-x="460" 
d="M55 400v90h350v-90h-350z" />
    <glyph glyph-name="uni207C" unicode="&#x207c;" horiz-adv-x="460" 
d="M55 320v90h350v-90h-350zM55 480v90h350v-90h-350z" />
    <glyph glyph-name="uni207D" unicode="&#x207d;" horiz-adv-x="290" 
d="M55 420q0 138 85 240h115q-80 -110 -80 -240t80 -240h-115q-85 102 -85 240z" />
    <glyph glyph-name="uni207E" unicode="&#x207e;" horiz-adv-x="290" 
d="M35 180q80 110 80 240t-80 240h115q85 -102 85 -240t-85 -240h-115z" />
    <glyph glyph-name="uni207F" unicode="&#x207f;" horiz-adv-x="460" 
d="M40 330v330h275q105 0 105 -84v-246h-140v234q0 16 -20 16h-80v-250h-140z" />
    <glyph glyph-name="uni2080" unicode="&#x2080;" horiz-adv-x="460" 
d="M40 84v212q0 84 105 84h170q105 0 105 -84v-212q0 -84 -105 -84h-170q-105 0 -105 84zM180 96q0 -16 20 -16h60q20 0 20 16v188q0 16 -20 16h-60q-20 0 -20 -16v-188z" />
    <glyph glyph-name="uni2081" unicode="&#x2081;" horiz-adv-x="460" 
d="M85 300v80h250v-380h-140v300h-110z" />
    <glyph glyph-name="uni2082" unicode="&#x2082;" horiz-adv-x="460" 
d="M40 0v151q0 84 105 84h115q20 0 20 16v33q0 16 -20 16h-195v80h250q105 0 105 -84v-57q0 -84 -105 -84h-115q-20 0 -20 -16v-59h240v-80h-380z" />
    <glyph glyph-name="uni2083" unicode="&#x2083;" horiz-adv-x="460" 
d="M50 0v80h210q20 0 20 16v43q0 16 -20 16h-160v80h160q20 0 20 16v33q0 16 -20 16h-210v80h265q105 0 105 -84v-25q0 -58 -50 -76q50 -18 50 -76v-35q0 -84 -105 -84h-265z" />
    <glyph glyph-name="uni2084" unicode="&#x2084;" horiz-adv-x="460" 
d="M40 65v80l205 235h175v-380h-140v65h-240zM188 145h92v105z" />
    <glyph glyph-name="uni2085" unicode="&#x2085;" horiz-adv-x="460" 
d="M40 0v80h220q20 0 20 16v43q0 16 -20 16h-220v225h360v-80h-220v-65h135q105 0 105 -84v-67q0 -84 -105 -84h-275z" />
    <glyph glyph-name="uni2086" unicode="&#x2086;" horiz-adv-x="460" 
d="M40 84v196q0 100 125 100h225v-80h-180q-30 0 -30 -24v-41h135q105 0 105 -84v-67q0 -84 -105 -84h-170q-105 0 -105 84zM180 96q0 -16 20 -16h60q20 0 20 16v43q0 16 -20 16h-80v-59z" />
    <glyph glyph-name="uni2087" unicode="&#x2087;" horiz-adv-x="460" 
d="M40 300v80h380v-80l-164 -300h-159l164 300h-221z" />
    <glyph glyph-name="uni2088" unicode="&#x2088;" horiz-adv-x="460" 
d="M40 84v35q0 58 50 76q-50 18 -50 76v25q0 84 105 84h170q105 0 105 -84v-25q0 -58 -50 -76q50 -18 50 -76v-35q0 -84 -105 -84h-170q-105 0 -105 84zM180 96q0 -16 20 -16h60q20 0 20 16v43q0 16 -20 16h-60q-20 0 -20 -16v-43zM180 251q0 -16 20 -16h60q20 0 20 16v33
q0 16 -20 16h-60q-20 0 -20 -16v-33z" />
    <glyph glyph-name="uni2089" unicode="&#x2089;" horiz-adv-x="460" 
d="M40 239v57q0 84 105 84h170q105 0 105 -84v-196q0 -100 -125 -100h-235v80h190q30 0 30 24v51h-135q-105 0 -105 84zM180 251q0 -16 20 -16h80v49q0 16 -20 16h-60q-20 0 -20 -16v-33z" />
    <glyph glyph-name="uni208A" unicode="&#x208a;" horiz-adv-x="460" 
d="M55 120v90h115v110h120v-110h115v-90h-115v-110h-120v110h-115z" />
    <glyph glyph-name="uni208B" unicode="&#x208b;" horiz-adv-x="460" 
d="M55 120v90h350v-90h-350z" />
    <glyph glyph-name="uni208C" unicode="&#x208c;" horiz-adv-x="460" 
d="M55 40v90h350v-90h-350zM55 200v90h350v-90h-350z" />
    <glyph glyph-name="uni208D" unicode="&#x208d;" horiz-adv-x="290" 
d="M55 140q0 138 85 240h115q-80 -110 -80 -240t80 -240h-115q-85 102 -85 240z" />
    <glyph glyph-name="uni208E" unicode="&#x208e;" horiz-adv-x="290" 
d="M35 -100q80 110 80 240t-80 240h115q85 -102 85 -240t-85 -240h-115z" />
    <glyph glyph-name="lira" unicode="&#x20a4;" horiz-adv-x="740" 
d="M30 0v120h100v90h-100v90h100v60h-100v90h100v74q0 136 170 136h350v-120h-285q-35 0 -35 -28v-62h220v-90h-220v-60h220v-90h-220v-90h360v-120h-660z" />
    <glyph glyph-name="uni20A6" unicode="&#x20a6;" horiz-adv-x="890" 
d="M20 210v90h100v60h-100v90h100v210h220l230 -375v375h200v-210h100v-90h-100v-60h100v-90h-100v-210h-220l-230 375v-375h-200v210h-100z" />
    <glyph glyph-name="uni20A9" unicode="&#x20a9;" horiz-adv-x="1200" 
d="M20 210v90h130l-15 60h-115v90h91l-56 210h194l113 -424l133 424h210l133 -424l113 424h194l-56 -210h91v-90h-115l-15 -60h130v-90h-154l-56 -210h-235l-135 428l-135 -428h-235l-56 210h-154z" />
    <glyph glyph-name="dong" unicode="&#x20ab;" horiz-adv-x="740" 
d="M80 -65h560v-80h-560v80zM80 120v250q0 120 150 120h230v45h-180v80h180v45h180v-45h70v-80h-70v-535h-410q-150 0 -150 120zM260 125q0 -20 25 -20h175v280h-175q-25 0 -25 -20v-240z" />
    <glyph glyph-name="Euro" unicode="&#x20ac;" horiz-adv-x="740" 
d="M20 210v90h90v60h-90v90h90v74q0 136 170 136h420v-120h-355q-35 0 -35 -28v-62h250v-90h-250v-60h250v-90h-250v-62q0 -28 35 -28h355v-120h-420q-170 0 -170 136v74h-90z" />
    <glyph glyph-name="uni20AF" unicode="&#x20af;" horiz-adv-x="1450" 
d="M70 0v660h350q340 0 340 -272v-116q0 -272 -340 -272h-350zM270 120h110q180 0 180 144v132q0 144 -180 144h-110v-420zM830 -210v580q0 120 150 120h260q150 0 150 -120v-250q0 -120 -150 -120h-230v-210h-180zM1010 105h175q25 0 25 20v240q0 20 -25 20h-150
q-25 0 -25 -20v-260z" />
    <glyph glyph-name="uni20B1" unicode="&#x20b1;" horiz-adv-x="850" 
d="M20 320v90h100v60h-100v90h100v100h440q147 0 166 -100h104v-90h-100v-60h100v-90h-104q-19 -100 -166 -100h-240v-220h-200v320h-100zM320 340h175q35 0 35 28v144q0 28 -35 28h-175v-200z" />
    <glyph glyph-name="uni20B9" unicode="&#x20b9;" horiz-adv-x="740" 
d="M45 240v120h315q35 0 35 28v17h-350v90h350v17q0 28 -35 28h-315v120h650v-90h-106q6 -21 6 -75h100v-90h-100v-29q0 -120 -135 -136l158 -240h-216l-158 240h-199z" />
    <glyph glyph-name="uni20BA" unicode="&#x20ba;" horiz-adv-x="740" 
d="M20 195v93l90 24v62l-90 -24v93l90 24v193h200v-139l180 48v-93l-180 -48v-62l180 48v-93l-180 -49v-152h120q70 0 70 56v94h200v-110q0 -160 -200 -160h-390v219z" />
    <glyph glyph-name="uni20BD" unicode="&#x20bd;" horiz-adv-x="770" 
d="M20 95v90h100v60h-100v120h100v295h440q170 0 170 -136v-143q0 -136 -170 -136h-240v-60h275v-90h-275v-95h-200v95h-100zM320 365h175q35 0 35 28v119q0 28 -35 28h-175v-175z" />
    <glyph glyph-name="uni20BF" unicode="&#x20bf;" horiz-adv-x="740" 
d="M50 0v660h130v120h120v-120h70v120h120v-120h20q170 0 170 -136v-58q0 -84 -65 -116q75 -30 75 -121v-93q0 -136 -170 -136h-30v-120h-120v120h-70v-120h-120v120h-130zM250 120h205q35 0 35 28v109q0 28 -35 28h-205v-165zM250 405h195q35 0 35 28v79q0 28 -35 28h-195
v-135z" />
    <glyph glyph-name="uni2105" unicode="&#x2105;" horiz-adv-x="1110" 
d="M40 414v162q0 84 105 84h245v-80h-190q-20 0 -20 -16v-138q0 -16 20 -16h190v-80h-245q-105 0 -105 84zM285 0l362 660h158l-362 -660h-158zM680 84v162q0 84 105 84h180q105 0 105 -84v-162q0 -84 -105 -84h-180q-105 0 -105 84zM820 96q0 -16 20 -16h70q20 0 20 16v138
q0 16 -20 16h-70q-20 0 -20 -16v-138z" />
    <glyph glyph-name="uni2113" unicode="&#x2113;" horiz-adv-x="370" 
d="M60 120v540h180v-523q0 -32 40 -32h60v-105h-130q-150 0 -150 120z" />
    <glyph glyph-name="uni2116" unicode="&#x2116;" horiz-adv-x="1280" 
d="M70 0v660h215l285 -396v396h200v-660h-215l-285 396v-396h-200zM840 414v162q0 84 105 84h170q105 0 105 -84v-162q0 -84 -105 -84h-170q-105 0 -105 84zM980 426q0 -16 20 -16h60q20 0 20 16v138q0 16 -20 16h-60q-20 0 -20 -16v-138z" />
    <glyph glyph-name="uni2117" unicode="&#x2117;" horiz-adv-x="960" 
d="M60 84v492q0 84 105 84h630q105 0 105 -84v-492q0 -84 -105 -84h-630q-105 0 -105 84zM200 96q0 -16 20 -16h520q20 0 20 16v468q0 16 -20 16h-520q-20 0 -20 -16v-468zM280 140v380h295q105 0 105 -84v-87q0 -84 -105 -84h-155v-125h-140zM420 345h100q20 0 20 16v63
q0 16 -20 16h-100v-95z" />
    <glyph glyph-name="trademark" unicode="&#x2122;" horiz-adv-x="1120" 
d="M20 580v80h440v-80h-150v-300h-140v300h-150zM520 280v380h170l110 -235l110 235h170v-380h-140v180l-85 -180h-110l-85 180v-180h-140z" />
    <glyph glyph-name="Omega" unicode="&#x2126;" horiz-adv-x="830" 
d="M50 0v120h107l-59 69q-28 33 -28 76v259q0 136 170 136h350q170 0 170 -136v-259q0 -43 -28 -76l-59 -69h107v-120h-315v130l82 95q13 15 13 30v257q0 28 -35 28h-220q-35 0 -35 -28v-257q0 -15 13 -30l82 -95v-130h-315z" />
    <glyph glyph-name="estimated" unicode="&#x212e;" horiz-adv-x="810" 
d="M38 330q0 137 107.5 233.5t259.5 96.5t259.5 -96.5t107.5 -251.5h-579v-179q90 -93 212 -93q129 0 219 100h81q-117 -140 -300 -140q-152 0 -259.5 96.5t-107.5 233.5zM193 348h424v179q-90 93 -212 93t-212 -93v-179z" />
    <glyph glyph-name="oneeighth" unicode="&#x215b;" horiz-adv-x="1040" 
d="M40 580v80h250v-380h-140v300h-110zM225 0l362 660h158l-362 -660h-158zM620 84v35q0 58 50 76q-50 18 -50 76v25q0 84 105 84h170q105 0 105 -84v-25q0 -58 -50 -76q50 -18 50 -76v-35q0 -84 -105 -84h-170q-105 0 -105 84zM760 96q0 -16 20 -16h60q20 0 20 16v43
q0 16 -20 16h-60q-20 0 -20 -16v-43zM760 251q0 -16 20 -16h60q20 0 20 16v33q0 16 -20 16h-60q-20 0 -20 -16v-33z" />
    <glyph glyph-name="threeeighths" unicode="&#x215c;" horiz-adv-x="1110" 
d="M50 280v80h210q20 0 20 16v43q0 16 -20 16h-160v80h160q20 0 20 16v33q0 16 -20 16h-210v80h265q105 0 105 -84v-25q0 -58 -50 -76q50 -18 50 -76v-35q0 -84 -105 -84h-265zM295 0l362 660h158l-362 -660h-158zM690 84v35q0 58 50 76q-50 18 -50 76v25q0 84 105 84h170
q105 0 105 -84v-25q0 -58 -50 -76q50 -18 50 -76v-35q0 -84 -105 -84h-170q-105 0 -105 84zM830 96q0 -16 20 -16h60q20 0 20 16v43q0 16 -20 16h-60q-20 0 -20 -16v-43zM830 251q0 -16 20 -16h60q20 0 20 16v33q0 16 -20 16h-60q-20 0 -20 -16v-33z" />
    <glyph glyph-name="fiveeighths" unicode="&#x215d;" horiz-adv-x="1110" 
d="M40 280v80h220q20 0 20 16v43q0 16 -20 16h-220v225h360v-80h-220v-65h135q105 0 105 -84v-67q0 -84 -105 -84h-275zM295 0l362 660h158l-362 -660h-158zM690 84v35q0 58 50 76q-50 18 -50 76v25q0 84 105 84h170q105 0 105 -84v-25q0 -58 -50 -76q50 -18 50 -76v-35
q0 -84 -105 -84h-170q-105 0 -105 84zM830 96q0 -16 20 -16h60q20 0 20 16v43q0 16 -20 16h-60q-20 0 -20 -16v-43zM830 251q0 -16 20 -16h60q20 0 20 16v33q0 16 -20 16h-60q-20 0 -20 -16v-33z" />
    <glyph glyph-name="seveneighths" unicode="&#x215e;" horiz-adv-x="1060" 
d="M40 580v80h380v-80l-164 -300h-159l164 300h-221zM245 0l362 660h158l-362 -660h-158zM640 84v35q0 58 50 76q-50 18 -50 76v25q0 84 105 84h170q105 0 105 -84v-25q0 -58 -50 -76q50 -18 50 -76v-35q0 -84 -105 -84h-170q-105 0 -105 84zM780 96q0 -16 20 -16h60
q20 0 20 16v43q0 16 -20 16h-60q-20 0 -20 -16v-43zM780 251q0 -16 20 -16h60q20 0 20 16v33q0 16 -20 16h-60q-20 0 -20 -16v-33z" />
    <glyph glyph-name="arrowleft" unicode="&#x2190;" horiz-adv-x="750" 
d="M40 285l245 250h195l-150 -170h370v-160h-370l150 -170h-195z" />
    <glyph glyph-name="arrowup" unicode="&#x2191;" horiz-adv-x="620" 
d="M60 220v195l250 245l250 -245v-195l-170 150v-370h-160v370z" />
    <glyph glyph-name="arrowright" unicode="&#x2192;" horiz-adv-x="750" 
d="M50 205v160h370l-150 170h195l245 -250l-245 -250h-195l150 170h-370z" />
    <glyph glyph-name="arrowdown" unicode="&#x2193;" horiz-adv-x="620" 
d="M60 245v195l170 -150v370h160v-370l170 150v-195l-250 -245z" />
    <glyph glyph-name="partialdiff" unicode="&#x2202;" 
d="M60 120v250q0 120 150 120h230q-14 65 -105 65h-215v105h220q280 0 280 -224v-316q0 -120 -150 -120h-260q-150 0 -150 120zM240 125q0 -20 25 -20h150q25 0 25 20v260h-175q-25 0 -25 -20v-240z" />
    <glyph glyph-name="Delta" unicode="&#x2206;" horiz-adv-x="830" 
d="M5 0l285 660h250l285 -660h-820zM260 120h310l-155 360z" />
    <glyph glyph-name="product" unicode="&#x220f;" horiz-adv-x="830" 
d="M70 -140v800h690v-800h-200v680h-290v-680h-200z" />
    <glyph glyph-name="summation" unicode="&#x2211;" horiz-adv-x="780" 
d="M70 -20l240 280l-240 280v120h640v-120h-413l240 -280l-240 -280h413v-120h-640v120z" />
    <glyph glyph-name="minus" unicode="&#x2212;" horiz-adv-x="740" 
d="M85 225v120h570v-120h-570z" />
    <glyph glyph-name="uni2215" unicode="&#x2215;" horiz-adv-x="190" 
d="M-165 0l362 660h158l-362 -660h-158z" />
    <glyph glyph-name="uni2219" unicode="&#x2219;" horiz-adv-x="340" 
d="M75 210v150h190v-150h-190z" />
    <glyph glyph-name="radical" unicode="&#x221a;" horiz-adv-x="740" 
d="M60 315v100h251l84 -250l195 585h140l-250 -750h-182l-106 315h-132z" />
    <glyph glyph-name="infinity" unicode="&#x221e;" horiz-adv-x="900" 
d="M60 184v222q0 84 105 84h197q62 0 88 -30q26 30 88 30h197q105 0 105 -84v-222q0 -84 -105 -84h-197q-62 0 -88 30q-26 -30 -88 -30h-197q-105 0 -105 84zM200 211q0 -16 20 -16h130q20 0 20 16v168q0 16 -20 16h-130q-20 0 -20 -16v-168zM530 211q0 -16 20 -16h130
q20 0 20 16v168q0 16 -20 16h-130q-20 0 -20 -16v-168z" />
    <glyph glyph-name="orthogonal" unicode="&#x221f;" horiz-adv-x="740" 
d="M80 0v590h130v-470h460v-120h-590z" />
    <glyph glyph-name="integral" unicode="&#x222b;" horiz-adv-x="540" 
d="M40 -105h115q25 0 25 20v625q0 120 150 120h170v-105h-115q-25 0 -25 -20v-625q0 -120 -150 -120h-170v105z" />
    <glyph glyph-name="approxequal" unicode="&#x2248;" horiz-adv-x="740" 
d="M85 57v140l95 57q40 24 75 24t75 -24l125 -75q15 -9 30 -9t30 9l140 84v-140l-95 -57q-40 -24 -75 -24t-75 24l-125 75q-15 9 -30 9t-30 -9zM85 307v140l95 57q40 24 75 24t75 -24l125 -75q15 -9 30 -9t30 9l140 84v-140l-95 -57q-40 -24 -75 -24t-75 24l-125 75
q-15 9 -30 9t-30 -9z" />
    <glyph glyph-name="notequal" unicode="&#x2260;" horiz-adv-x="740" 
d="M85 100v120h190l65 130h-255v120h315l60 120l100 -50l-35 -70h130v-120h-190l-65 -130h255v-120h-315l-60 -120l-100 50l35 70h-130z" />
    <glyph glyph-name="lessequal" unicode="&#x2264;" horiz-adv-x="740" 
d="M95 0v120h550v-120h-550zM95 340v100l550 200v-132l-325 -118l325 -118v-132z" />
    <glyph glyph-name="greaterequal" unicode="&#x2265;" horiz-adv-x="740" 
d="M95 0v120h550v-120h-550zM95 140v132l325 118l-325 118v132l550 -200v-100z" />
    <glyph glyph-name="lozenge" unicode="&#x25ca;" 
d="M40 330l300 400l300 -400l-300 -400zM200 330l140 -185l140 185l-140 185z" />
    <glyph glyph-name="uni2770" unicode="&#x2770;" horiz-adv-x="630" 
d="M60 225l310 435h220l-220 -435l220 -435h-220z" />
    <glyph glyph-name="uni2771" unicode="&#x2771;" horiz-adv-x="630" 
d="M40 -210l220 435l-220 435h220l310 -435l-310 -435h-220z" />
    <glyph glyph-name="uni2772" unicode="&#x2772;" horiz-adv-x="470" 
d="M70 -58v606l297 152l53 -90l-180 -140v-450l180 -140l-53 -90z" />
    <glyph glyph-name="uni2773" unicode="&#x2773;" horiz-adv-x="470" 
d="M50 -120l180 140v450l-180 140l53 90l297 -152v-606l-297 -152z" />
    <glyph glyph-name="uniEFFD" unicode="&#xeffd;" horiz-adv-x="1200" 
d="M780 0v150h190v-150h-190zM825 580v80h250v-380h-140v300h-110zM60 120v120l375 420h245v-660h-200v120h-420zM283 240h197v222z" />
    <glyph glyph-name="uniFB00" unicode="&#xfb00;" horiz-adv-x="880" 
d="M60 0v540q0 120 150 120h200v-105h-145q-25 0 -25 -20v-45h170v-105h-170v-385h-180zM500 0v540q0 120 150 120h200v-105h-145q-25 0 -25 -20v-45h170v-105h-170v-385h-180z" />
    <glyph glyph-name="uniFB01" unicode="&#xfb01;" horiz-adv-x="740" 
d="M60 0v540q0 120 150 120h200v-105h-145q-25 0 -25 -20v-45h170v-105h-170v-385h-180zM500 0v490h180v-490h-180zM500 560v100h180v-100h-180z" />
    <glyph glyph-name="uniFB02" unicode="&#xfb02;" horiz-adv-x="740" 
d="M60 0v540q0 120 150 120h200v-105h-145q-25 0 -25 -20v-45h170v-105h-170v-385h-180zM500 0v660h180v-660h-180z" />
    <glyph glyph-name="uniFB03" unicode="&#xfb03;" horiz-adv-x="1180" 
d="M60 0v540q0 120 150 120h200v-105h-145q-25 0 -25 -20v-45h170v-105h-170v-385h-180zM500 0v540q0 120 150 120h200v-105h-145q-25 0 -25 -20v-45h170v-105h-170v-385h-180zM940 0v490h180v-490h-180zM940 560v100h180v-100h-180z" />
    <glyph glyph-name="uniFB04" unicode="&#xfb04;" horiz-adv-x="1180" 
d="M60 0v540q0 120 150 120h200v-105h-145q-25 0 -25 -20v-45h170v-105h-170v-385h-180zM500 0v540q0 120 150 120h200v-105h-145q-25 0 -25 -20v-45h170v-105h-170v-385h-180zM940 0v660h180v-660h-180z" />
    <glyph glyph-name="Eng.loclSM" horiz-adv-x="840" 
d="M70 0v660h215l285 -391v391h200v-734q0 -136 -170 -136h-190v120h110q50 0 50 40v37l-300 412v-399h-200z" />
    <glyph glyph-name="space.frac" horiz-adv-x="50" 
 />
    <glyph glyph-name="uni00A0.frac" horiz-adv-x="50" 
 />
    <glyph glyph-name="zero.numr" horiz-adv-x="460" 
d="M40 364v212q0 84 105 84h170q105 0 105 -84v-212q0 -84 -105 -84h-170q-105 0 -105 84zM180 376q0 -16 20 -16h60q20 0 20 16v188q0 16 -20 16h-60q-20 0 -20 -16v-188z" />
    <glyph glyph-name="one.numr" horiz-adv-x="460" 
d="M85 580v80h250v-380h-140v300h-110z" />
    <glyph glyph-name="two.numr" horiz-adv-x="460" 
d="M40 280v151q0 84 105 84h115q20 0 20 16v33q0 16 -20 16h-195v80h250q105 0 105 -84v-57q0 -84 -105 -84h-115q-20 0 -20 -16v-59h240v-80h-380z" />
    <glyph glyph-name="three.numr" horiz-adv-x="460" 
d="M50 280v80h210q20 0 20 16v43q0 16 -20 16h-160v80h160q20 0 20 16v33q0 16 -20 16h-210v80h265q105 0 105 -84v-25q0 -58 -50 -76q50 -18 50 -76v-35q0 -84 -105 -84h-265z" />
    <glyph glyph-name="four.numr" horiz-adv-x="460" 
d="M40 345v80l205 235h175v-380h-140v65h-240zM188 425h92v105z" />
    <glyph glyph-name="five.numr" horiz-adv-x="460" 
d="M40 280v80h220q20 0 20 16v43q0 16 -20 16h-220v225h360v-80h-220v-65h135q105 0 105 -84v-67q0 -84 -105 -84h-275z" />
    <glyph glyph-name="six.numr" horiz-adv-x="460" 
d="M40 364v196q0 100 125 100h225v-80h-180q-30 0 -30 -24v-41h135q105 0 105 -84v-67q0 -84 -105 -84h-170q-105 0 -105 84zM180 376q0 -16 20 -16h60q20 0 20 16v43q0 16 -20 16h-80v-59z" />
    <glyph glyph-name="seven.numr" horiz-adv-x="460" 
d="M40 580v80h380v-80l-164 -300h-159l164 300h-221z" />
    <glyph glyph-name="eight.numr" horiz-adv-x="460" 
d="M40 364v35q0 58 50 76q-50 18 -50 76v25q0 84 105 84h170q105 0 105 -84v-25q0 -58 -50 -76q50 -18 50 -76v-35q0 -84 -105 -84h-170q-105 0 -105 84zM180 376q0 -16 20 -16h60q20 0 20 16v43q0 16 -20 16h-60q-20 0 -20 -16v-43zM180 531q0 -16 20 -16h60q20 0 20 16v33
q0 16 -20 16h-60q-20 0 -20 -16v-33z" />
    <glyph glyph-name="nine.numr" horiz-adv-x="460" 
d="M40 519v57q0 84 105 84h170q105 0 105 -84v-196q0 -100 -125 -100h-235v80h190q30 0 30 24v51h-135q-105 0 -105 84zM180 531q0 -16 20 -16h80v49q0 16 -20 16h-60q-20 0 -20 -16v-33z" />
    <glyph glyph-name="slash.frac" horiz-adv-x="190" 
d="M-165 0l362 660h158l-362 -660h-158z" />
    <glyph glyph-name="zero.dnom" horiz-adv-x="460" 
d="M40 84v212q0 84 105 84h170q105 0 105 -84v-212q0 -84 -105 -84h-170q-105 0 -105 84zM180 96q0 -16 20 -16h60q20 0 20 16v188q0 16 -20 16h-60q-20 0 -20 -16v-188z" />
    <glyph glyph-name="one.dnom" horiz-adv-x="460" 
d="M85 300v80h250v-380h-140v300h-110z" />
    <glyph glyph-name="two.dnom" horiz-adv-x="460" 
d="M40 0v151q0 84 105 84h115q20 0 20 16v33q0 16 -20 16h-195v80h250q105 0 105 -84v-57q0 -84 -105 -84h-115q-20 0 -20 -16v-59h240v-80h-380z" />
    <glyph glyph-name="three.dnom" horiz-adv-x="460" 
d="M50 0v80h210q20 0 20 16v43q0 16 -20 16h-160v80h160q20 0 20 16v33q0 16 -20 16h-210v80h265q105 0 105 -84v-25q0 -58 -50 -76q50 -18 50 -76v-35q0 -84 -105 -84h-265z" />
    <glyph glyph-name="four.dnom" horiz-adv-x="460" 
d="M40 65v80l205 235h175v-380h-140v65h-240zM188 145h92v105z" />
    <glyph glyph-name="five.dnom" horiz-adv-x="460" 
d="M40 0v80h220q20 0 20 16v43q0 16 -20 16h-220v225h360v-80h-220v-65h135q105 0 105 -84v-67q0 -84 -105 -84h-275z" />
    <glyph glyph-name="six.dnom" horiz-adv-x="460" 
d="M40 84v196q0 100 125 100h225v-80h-180q-30 0 -30 -24v-41h135q105 0 105 -84v-67q0 -84 -105 -84h-170q-105 0 -105 84zM180 96q0 -16 20 -16h60q20 0 20 16v43q0 16 -20 16h-80v-59z" />
    <glyph glyph-name="seven.dnom" horiz-adv-x="460" 
d="M40 300v80h380v-80l-164 -300h-159l164 300h-221z" />
    <glyph glyph-name="eight.dnom" horiz-adv-x="460" 
d="M40 84v35q0 58 50 76q-50 18 -50 76v25q0 84 105 84h170q105 0 105 -84v-25q0 -58 -50 -76q50 -18 50 -76v-35q0 -84 -105 -84h-170q-105 0 -105 84zM180 96q0 -16 20 -16h60q20 0 20 16v43q0 16 -20 16h-60q-20 0 -20 -16v-43zM180 251q0 -16 20 -16h60q20 0 20 16v33
q0 16 -20 16h-60q-20 0 -20 -16v-33z" />
    <glyph glyph-name="nine.dnom" horiz-adv-x="460" 
d="M40 239v57q0 84 105 84h170q105 0 105 -84v-196q0 -100 -125 -100h-235v80h190q30 0 30 24v51h-135q-105 0 -105 84zM180 251q0 -16 20 -16h80v49q0 16 -20 16h-60q-20 0 -20 -16v-33z" />
    <glyph glyph-name="zero.zero" horiz-adv-x="740" 
d="M60 136v388q0 136 170 136h280q170 0 170 -136v-388q0 -136 -170 -136h-280q-170 0 -170 136zM260 148q0 -28 35 -28h150q35 0 35 28v197l-220 -160v-37zM260 315l220 160v37q0 28 -35 28h-150q-35 0 -35 -28v-197z" />
    <glyph glyph-name="one.pnum" horiz-adv-x="630" 
d="M90 540v120h380v-660h-200v540h-180z" />
    <glyph glyph-name="three.pnum" horiz-adv-x="720" 
d="M60 0v120h365q35 0 35 28v109q0 28 -35 28h-275v120h275q35 0 35 28v79q0 28 -35 28h-365v120h430q170 0 170 -136v-55q0 -87 -71 -119q71 -32 71 -119v-95q0 -136 -170 -136h-430z" />
    <glyph glyph-name="four.pnum" horiz-adv-x="730" 
d="M50 120v120l375 420h245v-660h-200v120h-420zM273 240h197v222z" />
    <glyph glyph-name="seven.pnum" horiz-adv-x="730" 
d="M50 540v120h620v-120l-295 -540h-219l295 540h-401z" />
    <glyph glyph-name="commaaccent" horiz-adv-x="500" 
d="M160 -210l35 160h140l-65 -160h-110z" />
    <glyph glyph-name="caroncommaaccent" horiz-adv-x="500" 
d="M160 500l35 160h140l-65 -160h-110z" />
    <glyph glyph-name="commaaccentrotate" horiz-adv-x="500" 
d="M185 550l65 160h110l-35 -160h-140z" />
    <glyph glyph-name="Jacute" horiz-adv-x="750" 
d="M40 160v135h200v-119q0 -56 70 -56h135q35 0 35 28v512h200v-524q0 -136 -170 -136h-270q-200 0 -200 160zM470 720l110 160h160l-140 -160h-130z" />
    <glyph glyph-name="jacute" horiz-adv-x="300" 
d="M-50 -105h70q40 0 40 32v563h180v-580q0 -120 -150 -120h-140v105zM50 550l110 160h160l-140 -160h-130z" />
    <glyph glyph-name="uni2316" unicode="&#x2316;" horiz-adv-x="910" 
d="M55 280v100h250v-100h-250zM405 -60v240h100v-240h-100zM405 280v100h100v-100h-100zM405 480v240h100v-240h-100zM605 280v100h250v-100h-250z" />
    <glyph glyph-name="filledbox" unicode="&#x25a0;" horiz-adv-x="810" 
d="M75 0v660h660v-660h-660z" />
    <glyph glyph-name="filledrect" unicode="&#x25ac;" horiz-adv-x="810" 
d="M75 165v330h660v-330h-660z" />
    <glyph glyph-name="uni25AE" unicode="&#x25ae;" horiz-adv-x="480" 
d="M75 0v660h330v-660h-330z" />
    <glyph glyph-name="uni25B0" unicode="&#x25b0;" horiz-adv-x="720" 
d="M0 60l360 540h360l-360 -540h-360z" />
    <glyph glyph-name="triagup" unicode="&#x25b2;" horiz-adv-x="810" 
d="M45 0l360 620l360 -620h-720z" />
    <glyph glyph-name="uni25B6" unicode="&#x25b6;" horiz-adv-x="740" 
d="M75 -30v720l620 -360z" />
    <glyph glyph-name="triagdn" unicode="&#x25bc;" horiz-adv-x="810" 
d="M45 660h720l-360 -620z" />
    <glyph glyph-name="uni25C0" unicode="&#x25c0;" horiz-adv-x="740" 
d="M45 330l620 360v-720z" />
    <glyph glyph-name="uni25C6" unicode="&#x25c6;" horiz-adv-x="810" 
d="M45 330l360 360l360 -360l-360 -360z" />
    <glyph glyph-name="H18533" unicode="&#x25cf;" horiz-adv-x="790" 
d="M65 330q0 136 96.5 233t233.5 97t233.5 -97t96.5 -233t-96.5 -233t-233.5 -97t-233.5 97t-96.5 233z" />
    <glyph glyph-name="uni25E2" unicode="&#x25e2;" horiz-adv-x="600" 
d="M45 0l480 480v-480h-480z" />
    <glyph glyph-name="uni25E3" unicode="&#x25e3;" horiz-adv-x="600" 
d="M75 0v480l480 -480h-480z" />
    <glyph glyph-name="uni25E4" unicode="&#x25e4;" horiz-adv-x="600" 
d="M75 180v480h480z" />
    <glyph glyph-name="uni25E5" unicode="&#x25e5;" horiz-adv-x="600" 
d="M45 660h480v-480z" />
    <glyph glyph-name="uni2604" unicode="&#x2604;" horiz-adv-x="820" 
d="M45 760l381 -326l-87 186l259 -244l-89 -57l-167 64l-60 -146l-186 290l192 -140zM310 147l65 159l141 -54l132 85l107 -143q0 -118 -79 -194q-121 0 -194 -40z" />
    <glyph glyph-name="uni2605" unicode="&#x2605;" horiz-adv-x="850" 
d="M45 445h290l90 275l90 -275h290l-235 -170l90 -275l-235 170l-235 -170l90 275z" />
    <glyph glyph-name="uni2620" unicode="&#x2620;" horiz-adv-x="970" 
d="M55 220q0 25 14 41t14 32q0 21 -11 35.5t-11 30.5q0 31 66 35q9 -78 63 -99l80 -110q-75 35 -215 35zM143 29q5 42 38 42q72 0 154 44l14 -50l28 -21q-62 -28 -87 -66t-50 -38q-19 0 -33 40t-64 49zM215 310l33 48l-23 187q0 65 87 120t173 55t173 -55t87 -120l-23 -187
l33 -48l-87 -120l-55 -10l-8 -43l-75 -42h-90l-75 42l-8 43l-55 10zM295 341q0 -87 37 -87q46 0 82.5 21.5t36.5 59.5q0 20 -42.5 37.5t-60.5 17.5q-53 0 -53 -49zM365 119l30 -17v-34l-20 15zM405 63v33l30 -15v-34zM440 193l20 -15l25 15l25 -15l20 15l-45 80zM445 45v35
h35v-35h-35zM490 45v35h35v-35h-35zM519 335q0 -38 36.5 -59.5t82.5 -21.5q37 0 37 87q0 49 -53 49q-18 0 -60.5 -17.5t-42.5 -37.5zM535 47v34l30 15v-33zM575 68v34l30 17l-10 -36zM593 44l28 21l14 50q82 -44 154 -44q33 0 38 -42q-50 -9 -64 -49t-33 -40q-25 0 -50 38
t-87 66zM700 185l80 110q54 21 63 99q66 -4 66 -35q0 -16 -11 -30.5t-11 -35.5q0 -16 14 -32t14 -41q-140 0 -215 -35z" />
    <glyph glyph-name="uni2622" unicode="&#x2622;" horiz-adv-x="910" 
d="M65 330q6 222 195 338l135 -234q-58 -36 -60 -104h-270zM260 -8l135 234q29 -16 60 -16t60 16l135 -234q-90 -52 -195 -52t-195 52zM375 330q0 33 23.5 56.5t56.5 23.5t56.5 -23.5t23.5 -56.5t-23.5 -56.5t-56.5 -23.5t-56.5 23.5t-23.5 56.5zM515 434l135 234
q189 -116 195 -338h-270q-2 68 -60 104z" />
    <glyph glyph-name="uni2623" unicode="&#x2623;" horiz-adv-x="920" 
d="M65 245q0 135 142 215q6 230 208 260q-120 -52 -120 -165q0 -68 48.5 -116.5t116.5 -48.5t116.5 48.5t48.5 116.5q0 113 -120 165q202 -30 208 -260q142 -80 142 -215q0 -51 -21 -93q3 14 3 36q0 72 -49.5 122t-119.5 50q-68 0 -116.5 -48.5t-48.5 -116.5t49 -116.5
t118 -48.5q67 0 118 44q-66 -94 -183 -94q-70 0 -145 45q-75 -45 -145 -45q-117 0 -183 94q51 -44 118 -44q69 0 118 48.5t49 116.5t-48.5 116.5t-116.5 48.5q-70 0 -119.5 -50t-49.5 -122q0 -22 3 -36q-21 42 -21 93zM220 325h65q0 -115 97 -167l-33 -56q-129 72 -129 223z
M331 518q57 37 129 37t129 -37l-32 -57q-45 29 -97 29t-97 -29zM410 315q0 -21 14.5 -35.5t35.5 -14.5t35.5 14.5t14.5 35.5t-14.5 35.5t-35.5 14.5t-35.5 -14.5t-14.5 -35.5zM538 158q97 52 97 167h65q0 -151 -129 -223z" />
    <glyph glyph-name="uni2699" unicode="&#x2699;" horiz-adv-x="830" 
d="M55 290v80l99 28l28 69l-50 89l57 57l89 -50l69 28l28 99h80l28 -99l69 -28l89 50l57 -57l-50 -89l28 -69l99 -28v-80l-99 -28l-28 -69l50 -89l-57 -57l-89 50l-69 -28l-28 -99h-80l-28 99l-69 28l-89 -50l-57 57l50 89l-28 69zM315 330q0 -41 29.5 -70.5t70.5 -29.5
t70.5 29.5t29.5 70.5t-29.5 70.5t-70.5 29.5t-70.5 -29.5t-29.5 -70.5z" />
    <glyph glyph-name="uni269B" unicode="&#x269b;" horiz-adv-x="790" 
d="M65 127q0 88 70 203.5t189 210.5q-61 29 -107 29q-40 0 -63 -22.5t-23 -63.5q0 -36 17 -81l-30 -44q-53 98 -53 174q0 63 35 95t92 32q88 0 203 -70q115 70 203 70q57 0 92 -32t35 -95q0 -88 -70 -203q70 -115 70 -203q0 -63 -35 -95t-92 -32q-76 0 -174 53l44 30
q45 -17 81 -17q40 0 63 22.5t23 63.5q0 46 -29 107q-74 -97 -193.5 -178t-220.5 -81q-57 0 -92 32t-35 95zM131 176q0 -41 23 -63.5t63 -22.5q78 0 179.5 72.5t167.5 167.5q-83 116 -200 189q-97 -70 -165 -168.5t-68 -174.5zM295 340q0 35 25 60t60 25t60 -25t25 -60
t-25 -60t-60 -25t-60 25t-25 60zM436 563q96 -68 170 -162q29 61 29 107q0 41 -23 63.5t-63 22.5q-49 0 -113 -31z" />
    <glyph glyph-name="uni26A0" unicode="&#x26a0;" horiz-adv-x="880" 
d="M55 60l350 600h70l350 -600l-35 -60h-700zM380 75h120v80h-120v-80zM380 225h120v230h-120v-230z" />
    <glyph glyph-name="uni26A1" unicode="&#x26a1;" horiz-adv-x="800" 
d="M55 185l270 475h205l-195 -280l410 85l-430 -525l135 330z" />
    <glyph glyph-name="uni26D4" unicode="&#x26d4;" horiz-adv-x="850" 
d="M75 185v290l205 205h290l205 -205v-290l-205 -205h-290zM175 250h500v160h-500v-160z" />
    <glyph glyph-name="uni2747" unicode="&#x2747;" horiz-adv-x="960" 
d="M65 462q0 33 51 33q24 0 50 -17t26 -33q0 -25 -56 -25q-33 0 -52 12t-19 30zM140 227q0 33 89 36.5t89 64.5q0 27 -37.5 47.5t-37.5 37.5q0 19 71 21t71 42q0 23 -34.5 47.5t-34.5 57.5q0 27 23 27q36 0 53.5 -66.5t77.5 -66.5q58 0 58 71q0 28 -10 60t-10 61q0 53 43 53
q45 0 45 -56q0 -31 -15 -62.5t-15 -61.5q0 -112 98 -112q45 0 69.5 40t53.5 40q49 0 49 -45q0 -29 -74.5 -46.5t-74.5 -96.5q0 -89 104 -99.5t104 -59.5q0 -39 -35 -39q-34 0 -79 38.5t-136 38.5q-65 0 -65 -90q0 -33 19 -56t19 -38q0 -37 -43 -37q-35 0 -38 96.5t-84 96.5
q-74 0 -103.5 -115.5t-95.5 -115.5q-42 0 -42 42q0 57 71 101t71 104q0 51 -57 51q-32 0 -67.5 -17t-53.5 -17q-36 0 -36 23zM685 -15q0 19 13 32t32 13t32 -13t13 -32t-13 -32t-32 -13t-32 13t-13 32z" />
    <glyph glyph-name="uni2748" unicode="&#x2748;" horiz-adv-x="970" 
d="M65 488q0 70 76 70q35 0 73 -62.5t114 -62.5q38 0 60 36.5t46 36.5q26 0 53 -19.5t54 -19.5q35 0 42.5 126.5t69.5 126.5q68 0 68 -67q0 -28 -60 -78.5t-60 -112.5q0 -49 47 -73.5t47 -42.5q0 -29 -42.5 -58t-42.5 -64q0 -64 87 -98t87 -87q0 -60 -77 -60
q-51 0 -91 110.5t-116 110.5q-36 0 -68 -16.5t-55 -16.5q-45 0 -45 45q0 16 7 46t7 49q0 92 -140.5 102t-140.5 79zM79 219q0 54 73 54q70 0 70 -34q0 -20 -29 -43t-59 -23q-55 0 -55 46zM190 7q0 43 54 90.5t77 47.5q13 0 13 -39q0 -69 -25 -117.5t-68 -48.5q-51 0 -51 67z
M355 668q0 52 45 52q52 0 52 -57q0 -29 -12.5 -50.5t-27.5 -21.5q-20 0 -38.5 26.5t-18.5 50.5zM734 350q0 16 37.5 33t70.5 17q63 0 63 -45q0 -43 -56 -43q-40 0 -77.5 10.5t-37.5 27.5z" />
    <glyph glyph-name="uni274C" unicode="&#x274c;" horiz-adv-x="770" 
d="M55 145l185 185l-185 185l145 145l185 -185l185 185l145 -145l-185 -185l185 -185l-145 -145l-185 185l-185 -185z" />
    <glyph glyph-name="uni2764" unicode="&#x2764;" horiz-adv-x="890" 
d="M65 470q0 79 55.5 134.5t134.5 55.5q104 0 190 -105q86 105 190 105q79 0 134.5 -55.5t55.5 -134.5q0 -90 -70 -160l-310 -310l-310 310q-70 70 -70 160z" />
    <glyph glyph-name="uniF000" unicode="&#xf000;" horiz-adv-x="1000" 
d="M250 0v200h200v-200h-200zM50 400v200h200v-200h-200zM251 400v200h199v-200h-199zM750 0v200h200v-200h-200zM550 400v200h200v-200h-200zM751 400v200h199v-200h-199z" />
    <glyph glyph-name="u1F30C" unicode="&#x1f30c;" horiz-adv-x="950" 
d="M55 275q0 152 107.5 268.5t262.5 116.5q129 0 217 -81t88 -209q0 -83 -58 -151.5t-147 -68.5q-80 0 -125 44t-45 111q-30 -8 -30 -60q0 -64 65 -117t150 -53q120 0 215 98.5t95 246.5q0 159 -115 300q160 -135 160 -335q0 -152 -107.5 -268.5t-262.5 -116.5
q-129 0 -217 81t-88 209q0 83 58 151.5t147 68.5q80 0 125 -44t45 -111q30 8 30 60q0 64 -65 117t-150 53q-120 0 -215 -98.5t-95 -246.5q0 -159 115 -300q-160 135 -160 335z" />
    <glyph glyph-name="u1F30D" unicode="&#x1f30d;" horiz-adv-x="910" 
d="M65 330q0 161 114.5 275.5t275.5 114.5t275.5 -114.5t114.5 -275.5t-114.5 -275.5t-275.5 -114.5t-275.5 114.5t-114.5 275.5zM251 353l19 -99l110 -11l47 -192l87 3l113 229l-46 -6l-62 91l15 10l60 -80l63 48l-72 52l121 -17l39 -77l13 113l46 -57q-40 202 -224 298
l-69 -77l-39 20l-70 -43l30 -27l30 45l3 -49l-105 -27v-30l-30 6l-13 -36l27 -6l56 35l28 -37l9 6l-25 38l13 7l37 -47l39 51l53 -19l-5 -14l-61 -4v-22l51 -3l-12 -35l-107 -5l-27 41h-71zM298 601v-16l129 52l-38 16zM342 525l38 -13v36zM564 483l17 14l27 -57h-20z
M574 89l21 -3l30 66l-38 -24z" />
    <glyph glyph-name="u1F30E" unicode="&#x1f30e;" horiz-adv-x="910" 
d="M65 330q0 161 114.5 275.5t275.5 114.5t275.5 -114.5t114.5 -275.5t-114.5 -275.5t-275.5 -114.5t-275.5 114.5t-114.5 275.5zM243 578l65 5l-28 -130l26 -107l8 2l-7 64l41 -88l162 -70l-31 -65l69 -73l-44 -107l21 -12l158 135l41 98l-193 68l-16 -33l-51 22v17l-28 9
l8 28l-18 6l-13 -26l-31 13l6 53l68 14l16 -34l11 4l-12 36l60 83l-20 15l42 31l-83 39v-59l-57 39l32 30l-97 23l-19 21zM381 620l89 -24v-12l29 -13v23l-43 21l-4 30zM461 349l67 -24l23 11l-86 22zM462 636l97 -63l-13 56l-64 26zM549 506l29 5l-26 18z" />
    <glyph glyph-name="u1F30F" unicode="&#x1f30f;" horiz-adv-x="910" 
d="M65 330q0 161 114.5 275.5t275.5 114.5t275.5 -114.5t114.5 -275.5t-114.5 -275.5t-275.5 -114.5t-275.5 114.5t-114.5 275.5zM108 379l59 17l18 81l42 -171l78 74l54 -143l9 2l-17 80l26 -36l30 15l-19 44l92 56l-28 54l25 16l29 -42l14 11l-16 29l45 37l-26 42l41 31
l37 -38v77l-272 11l23 26l-45 -5q-153 -90 -199 -268zM203 511l25 40l20 4l-39 -55zM315 261l45 -72l104 -24l-87 38l-51 65zM395 225l42 -32l25 58l-17 12zM419 102l19 -53l79 17l57 -25l54 46l-37 80l-16 -39l-30 11l8 24zM456 189h35l-23 37zM460 321l34 -64l12 6l-27 70
zM521 419l7 -12l54 35l-23 85l3 -75zM526 216l45 -36l60 -6l-17 30l-85 20zM559 30l3 -15l24 20z" />
    <glyph glyph-name="u1F47D" unicode="&#x1f47d;" horiz-adv-x="770" 
d="M65 400q0 144 86 232t234 88t234 -88t86 -232q0 -125 -34.5 -187t-125 -167.5t-160.5 -105.5t-160.5 105.5t-125 167.5t-34.5 187zM415 150q0 -30 40 -30q54 0 112 51t58 109q0 65 -50 65q-40 0 -100 -75t-60 -120zM145 280q0 -58 58 -109t112 -51q40 0 40 30
q0 45 -60 120t-100 75q-50 0 -50 -65zM320 50q15 -30 65 -30t65 30h-130z" />
    <glyph glyph-name="u1F4A3" unicode="&#x1f4a3;" horiz-adv-x="880" 
d="M65 200q0 113 92 179l28 -135l70 30l85 -35l-15 -105l130 -74q-65 -80 -170 -80q-91 0 -155.5 64t-64.5 156zM102 623h109l5 -89l-72 -45zM261 307l68 413l128 -29zM380 253l276 331l85 -103zM453 119l372 89v-111zM582 303l121 56l-5 -109l-76 -13z" />
    <glyph glyph-name="u1F525" unicode="&#x1f525;" horiz-adv-x="780" 
d="M65 256q0 105 52 180q0 -123 64 -123q72 0 72 65q0 16 -13 76t-13 100q0 136 122 206q-31 -84 -31 -134q0 -167 130 -167q78 0 85 117q45 -49 45 -112q0 -32 -17 -88t-17 -79q0 -65 70 -65q69 0 69 135q32 -62 32 -135q0 -215 -285 -252q147 62 147 187q-38 -65 -81 -65
q-48 0 -56 119.5t-107 197.5q38 -83 38 -142q0 -151 -100 -151q-61 0 -91 100q0 -175 153 -246q-268 54 -268 276z" />
    <glyph glyph-name="u1F52B" unicode="&#x1f52b;" horiz-adv-x="1210" 
d="M65 360l20 180l175 15l15 55q590 0 854 -109l-10 -40l36 -6l-10 -90l-51 -4l-9 -36h-195l-65 -60h-162l-178 -265h-353l-28 47q126 201 126 231q0 35 -27.5 48t-137.5 34zM336 78l17 -28h107l145 225q-7 34 -41 42t-109 8l25 -120l-95 -15z" />
    <glyph glyph-name="u1F601" unicode="&#x1f601;" horiz-adv-x="910" 
d="M75 90v480q0 120 150 120h460q150 0 150 -120v-480q0 -120 -150 -120h-460q-150 0 -150 120zM155 330q2 -138 120 -224v224h-120zM185 490l35 -25q30 55 85 55t85 -55l35 25q-40 85 -120 85t-120 -85zM305 87q62 -34 135 -37v280h-135v-243zM470 50q73 3 135 37v243h-135
v-280zM485 490l35 -25q30 55 85 55t85 -55l35 25q-40 85 -120 85t-120 -85zM635 106q118 86 120 224h-120v-224z" />
    <glyph glyph-name="u1F603" unicode="&#x1f603;" horiz-adv-x="910" 
d="M75 90v480q0 120 150 120h460q150 0 150 -120v-480q0 -120 -150 -120h-460q-150 0 -150 120zM175 270q94 -180 280 -180t280 180l-25 20q-105 -120 -255 -120t-255 120zM255 460q0 -41 20.5 -70.5t49.5 -29.5t49.5 29.5t20.5 70.5t-20.5 70.5t-49.5 29.5t-49.5 -29.5
t-20.5 -70.5zM515 460q0 -41 20.5 -70.5t49.5 -29.5t49.5 29.5t20.5 70.5t-20.5 70.5t-49.5 29.5t-49.5 -29.5t-20.5 -70.5z" />
    <glyph glyph-name="u1F604" unicode="&#x1f604;" horiz-adv-x="910" 
d="M75 90v480q0 120 150 120h460q150 0 150 -120v-480q0 -120 -150 -120h-460q-150 0 -150 120zM155 330q0 -116 87.5 -198t212.5 -82t212.5 82t87.5 198h-600zM185 490l35 -25q30 55 85 55t85 -55l35 25q-40 85 -120 85t-120 -85zM485 490l35 -25q30 55 85 55t85 -55l35 25
q-40 85 -120 85t-120 -85z" />
    <glyph glyph-name="u1F606" unicode="&#x1f606;" horiz-adv-x="910" 
d="M75 90v480q0 120 150 120h460q150 0 150 -120v-480q0 -120 -150 -120h-460q-150 0 -150 120zM155 330q0 -116 87.5 -198t212.5 -82t212.5 82t87.5 198h-600zM195 415l20 -35l200 90v40l-200 90l-20 -35l140 -75zM495 470l200 -90l20 35l-140 75l140 75l-20 35l-200 -90
v-40z" />
    <glyph glyph-name="u1F607" unicode="&#x1f607;" horiz-adv-x="910" 
d="M75 90v480q0 120 150 120h460q150 0 150 -120v-480q0 -120 -150 -120h-460q-150 0 -150 120zM110 775q0 48 101 81.5t244 33.5t244 -33.5t101 -81.5q0 -30 -42 -55h-114q41 17 41 40q0 29 -67.5 49.5t-162.5 20.5t-162.5 -20.5t-67.5 -49.5q0 -23 41 -40h-114
q-42 25 -42 55zM175 270q94 -180 280 -180t280 180l-25 20q-105 -120 -255 -120t-255 120zM185 465q40 -85 120 -85t120 85l-35 25q-30 -55 -85 -55t-85 55zM485 465q40 -85 120 -85t120 85l-35 25q-30 -55 -85 -55t-85 55z" />
    <glyph glyph-name="u1F608" unicode="&#x1f608;" horiz-adv-x="1010" 
d="M55 710q0 103 70 180q12 -152 100 -200h560q88 48 100 200q70 -77 70 -180q0 -100 -70 -170v-450q0 -120 -150 -120h-460q-150 0 -150 120v450q-70 70 -70 170zM210 270q75 -195 295 -195t295 195l-15 15q-125 -60 -280 -60t-280 60zM305 460q0 -41 20.5 -70.5
t49.5 -29.5q55 0 70 85l-100 105q-40 -31 -40 -90zM565 445q15 -85 70 -85q29 0 49.5 29.5t20.5 70.5q0 59 -40 90z" />
    <glyph glyph-name="u1F609" unicode="&#x1f609;" horiz-adv-x="910" 
d="M75 90v480q0 120 150 120h460q150 0 150 -120v-480q0 -120 -150 -120h-460q-150 0 -150 120zM185 250q125 -179 460 -179v39q-275 4 -410 180zM185 450l35 -25q30 55 85 55t85 -55l35 25q-40 85 -120 85t-120 -85zM515 460q0 -41 20.5 -70.5t49.5 -29.5t49.5 29.5
t20.5 70.5t-20.5 70.5t-49.5 29.5t-49.5 -29.5t-20.5 -70.5z" />
    <glyph glyph-name="u1F60A" unicode="&#x1f60a;" horiz-adv-x="910" 
d="M75 90v480q0 120 150 120h460q150 0 150 -120v-480q0 -120 -150 -120h-460q-150 0 -150 120zM160 305q75 -195 295 -195t295 195l-15 15q-125 -60 -280 -60t-280 60zM185 490l35 -25q30 55 85 55t85 -55l35 25q-40 85 -120 85t-120 -85zM485 490l35 -25q30 55 85 55
t85 -55l35 25q-40 85 -120 85t-120 -85z" />
    <glyph glyph-name="u1F60E" unicode="&#x1f60e;" horiz-adv-x="910" 
d="M75 90v480q0 120 150 120h460q150 0 150 -120v-480q0 -120 -150 -120h-460q-150 0 -150 120zM135 560l20 -180l230 -20l45 130h50l45 -130l230 20l20 180h-640zM285 71q335 0 460 179l-50 40q-135 -176 -410 -180v-39z" />
    <glyph glyph-name="u1F610" unicode="&#x1f610;" horiz-adv-x="910" 
d="M75 90v480q0 120 150 120h460q150 0 150 -120v-480q0 -120 -150 -120h-460q-150 0 -150 120zM245 140h420v60h-420v-60zM255 460q0 -41 20.5 -70.5t49.5 -29.5t49.5 29.5t20.5 70.5t-20.5 70.5t-49.5 29.5t-49.5 -29.5t-20.5 -70.5zM515 460q0 -41 20.5 -70.5t49.5 -29.5
t49.5 29.5t20.5 70.5t-20.5 70.5t-49.5 29.5t-49.5 -29.5t-20.5 -70.5z" />
    <glyph glyph-name="u1F612" unicode="&#x1f612;" horiz-adv-x="910" 
d="M75 90v480q0 120 150 120h460q150 0 150 -120v-480q0 -120 -150 -120h-460q-150 0 -150 120zM165 475h90q5 -115 70 -115q74 0 75 160h-235v-45zM245 140h420v60h-420v-60zM460 475h90q5 -115 70 -115q74 0 75 160h-235v-45z" />
    <glyph glyph-name="u1F615" unicode="&#x1f615;" horiz-adv-x="910" 
d="M75 90v480q0 120 150 120h460q150 0 150 -120v-480q0 -120 -150 -120h-460q-150 0 -150 120zM245 460q0 -48 23.5 -81.5t56.5 -33.5t56.5 33.5t23.5 81.5t-23.5 81.5t-56.5 33.5t-56.5 -33.5t-23.5 -81.5zM293 137l24 -55l383 173l-25 55zM520 460q0 -39 19 -67t46 -28
t46 28t19 67t-19 67t-46 28t-46 -28t-19 -67z" />
    <glyph glyph-name="u1F618" unicode="&#x1f618;" horiz-adv-x="1320" 
d="M75 90v480q0 120 150 120h460q150 0 150 -120v-480q0 -120 -150 -120h-460q-150 0 -150 120zM185 450l35 -25q30 55 85 55t85 -55l35 25q-40 85 -120 85t-120 -85zM425 20q185 35 185 90q0 35 -58 60q58 25 58 60q0 55 -185 90v-42q123 -26 123 -50q0 -22 -63 -39v-38
q63 -17 63 -39q0 -24 -123 -50v-42zM515 460q0 -41 20.5 -70.5t49.5 -29.5t49.5 29.5t20.5 70.5t-20.5 70.5t-49.5 29.5t-49.5 -29.5t-20.5 -70.5zM895 685q0 40 27.5 67.5t67.5 27.5q52 0 95 -52q43 52 95 52q40 0 67.5 -28t27.5 -67q0 -45 -35 -80l-155 -155l-155 155
q-35 35 -35 80z" />
    <glyph glyph-name="u1F61B" unicode="&#x1f61b;" horiz-adv-x="910" 
d="M75 90v480q0 120 150 120h460q150 0 150 -120v-480q0 -120 -150 -120h-460q-150 0 -150 120zM185 295q90 -107 230 -123l16 -94q4 -27 27 -42t59.5 -15t70 21.5t33.5 56.5l-17 103q73 34 121 93l-25 25q-98 -80 -245 -80t-245 80zM255 460q0 -41 20.5 -70.5t49.5 -29.5
t49.5 29.5t20.5 70.5t-20.5 70.5t-49.5 29.5t-49.5 -29.5t-20.5 -70.5zM502 196l23 4l21 -119l-24 -4zM515 460q0 -41 20.5 -70.5t49.5 -29.5t49.5 29.5t20.5 70.5t-20.5 70.5t-49.5 29.5t-49.5 -29.5t-20.5 -70.5z" />
    <glyph glyph-name="u1F61D" unicode="&#x1f61d;" horiz-adv-x="910" 
d="M75 90v480q0 120 150 120h460q150 0 150 -120v-480q0 -120 -150 -120h-460q-150 0 -150 120zM185 175l25 -25q83 66 190 77l21 -127q5 -27 27.5 -42t59 -15t70 21.5t33.5 56.5l-14 87q56 -21 103 -58l25 25q-107 125 -270 125t-270 -125zM195 395l20 -35l200 90v40
l-200 90l-20 -35l140 -75zM487 246l23 4l26 -147l-24 -4zM495 450l200 -90l20 35l-140 75l140 75l-20 35l-200 -90v-40z" />
    <glyph glyph-name="u1F61E" unicode="&#x1f61e;" horiz-adv-x="910" 
d="M75 90v480q0 120 150 120h460q150 0 150 -120v-480q0 -120 -150 -120h-460q-150 0 -150 120zM195 120l25 -20q88 90 235 90t235 -90l25 20q-89 150 -260 150t-260 -150zM255 460q0 -41 20.5 -70.5t49.5 -29.5t49.5 29.5t20.5 70.5t-20.5 70.5t-49.5 29.5t-49.5 -29.5
t-20.5 -70.5zM515 460q0 -41 20.5 -70.5t49.5 -29.5t49.5 29.5t20.5 70.5t-20.5 70.5t-49.5 29.5t-49.5 -29.5t-20.5 -70.5z" />
    <glyph glyph-name="u1F61F" unicode="&#x1f61f;" horiz-adv-x="910" 
d="M75 90v480q0 120 150 120h460q150 0 150 -120v-480q0 -120 -150 -120h-460q-150 0 -150 120zM195 120l25 -20q88 90 235 90t235 -90l25 20q-89 150 -260 150t-260 -150zM255 445q15 -85 70 -85q29 0 49.5 29.5t20.5 70.5q0 59 -40 90zM515 460q0 -41 20.5 -70.5
t49.5 -29.5q55 0 70 85l-100 105q-40 -31 -40 -90z" />
    <glyph glyph-name="u1F620" unicode="&#x1f620;" horiz-adv-x="910" 
d="M75 90v480q0 120 150 120h460q150 0 150 -120v-480q0 -120 -150 -120h-460q-150 0 -150 120zM195 120l25 -20q88 90 235 90t235 -90l25 20q-89 150 -260 150t-260 -150zM255 460q0 -41 20.5 -70.5t49.5 -29.5q55 0 70 85l-100 105q-40 -31 -40 -90zM515 445
q15 -85 70 -85q29 0 49.5 29.5t20.5 70.5q0 59 -40 90z" />
    <glyph glyph-name="u1F623" unicode="&#x1f623;" horiz-adv-x="910" 
d="M75 90v480q0 120 150 120h460q150 0 150 -120v-480q0 -120 -150 -120h-460q-150 0 -150 120zM195 120l25 -20q88 90 235 90t235 -90l25 20q-89 150 -260 150t-260 -150zM195 385l20 -35l200 90v40l-200 90l-20 -35l140 -75zM495 440l200 -90l20 35l-140 75l140 75l-20 35
l-200 -90v-40z" />
    <glyph glyph-name="u1F62D" unicode="&#x1f62d;" horiz-adv-x="1550" 
d="M45 432q0 36 34 54t162 57q-61 -119 -82 -146.5t-52 -27.5q-25 0 -43.5 18.5t-18.5 44.5zM80 700q0 33 24 56.5t57 23.5q48 0 214 -125l-213 -37q-34 0 -58 24t-24 58zM395 90v480q0 120 150 120h460q150 0 150 -120v-480q0 -120 -150 -120h-460q-150 0 -150 120z
M485 245q0 -73 35 -119t85 -46q38 0 77.5 32.5t92.5 32.5t92.5 -32.5t77.5 -32.5q50 0 85 46t35 119t-35 119t-85 46q-38 0 -77.5 -32.5t-92.5 -32.5t-92.5 32.5t-77.5 32.5q-50 0 -85 -46t-35 -119zM505 510l35 -25q30 55 85 55t85 -55l35 25q-40 85 -120 85t-120 -85z
M805 510l35 -25q30 55 85 55t85 -55l35 25q-40 85 -120 85t-120 -85zM1175 655q165 125 214 125q33 0 57 -23.5t24 -56.5q0 -34 -24 -58t-58 -24zM1309 543q128 -39 162 -57t34 -54q0 -26 -18.5 -44.5t-43.5 -18.5q-31 0 -52 27.5t-82 146.5z" />
    <glyph glyph-name="u1F62E" unicode="&#x1f62e;" horiz-adv-x="910" 
d="M75 90v480q0 120 150 120h460q150 0 150 -120v-480q0 -120 -150 -120h-460q-150 0 -150 120zM215 70h480q-8 80 -73.5 145t-166.5 65t-166.5 -65t-73.5 -145zM255 460q0 -41 20.5 -70.5t49.5 -29.5t49.5 29.5t20.5 70.5t-20.5 70.5t-49.5 29.5t-49.5 -29.5t-20.5 -70.5z
M515 460q0 -41 20.5 -70.5t49.5 -29.5t49.5 29.5t20.5 70.5t-20.5 70.5t-49.5 29.5t-49.5 -29.5t-20.5 -70.5z" />
    <glyph glyph-name="u1F632" unicode="&#x1f632;" horiz-adv-x="910" 
d="M75 90v480q0 120 150 120h460q150 0 150 -120v-480q0 -120 -150 -120h-460q-150 0 -150 120zM195 460q0 -46 32 -78t78 -32t78 32t32 78t-32 78t-78 32t-78 -32t-32 -78zM215 70h480q-8 80 -73.5 145t-166.5 65t-166.5 -65t-73.5 -145zM265 460q0 16 11.5 28t28.5 12
t28.5 -12t11.5 -28t-11.5 -28t-28.5 -12t-28.5 12t-11.5 28zM495 460q0 -46 32 -78t78 -32t78 32t32 78t-32 78t-78 32t-78 -32t-32 -78zM565 460q0 16 11.5 28t28.5 12t28.5 -12t11.5 -28t-11.5 -28t-28.5 -12t-28.5 12t-11.5 28z" />
    <glyph glyph-name="u1F634" unicode="&#x1f634;" horiz-adv-x="1380" 
d="M75 90v480q0 120 150 120h460q150 0 150 -120v-480q0 -120 -150 -120h-460q-150 0 -150 120zM185 465q40 -85 120 -85t120 85l-35 25q-30 -55 -85 -55t-85 55zM345 125q0 -31 32 -53t78 -22t78 22t32 53t-32 53t-78 22t-78 -22t-32 -53zM485 465q40 -85 120 -85t120 85
l-35 25q-30 -55 -85 -55t-85 55zM885 530v30l105 100h-100v30h160v-30l-100 -100h105v-30h-170zM1105 530v40l145 140h-135v40h215v-40l-145 -140h150v-40h-230z" />
    <glyph glyph-name="u1F635" unicode="&#x1f635;" horiz-adv-x="910" 
d="M75 90v480q0 120 150 120h460q150 0 150 -120v-480q0 -120 -150 -120h-460q-150 0 -150 120zM185 165l25 -25q47 37 103 58l-14 -87q0 -35 33.5 -56.5t70.5 -21.5t59 15t27 42l21 127q107 -11 190 -77l25 25q-107 125 -270 125t-270 -125zM195 390l30 -30l75 70l75 -70
l30 30l-70 75l70 75l-30 30l-75 -70l-75 70l-30 -30l70 -75zM374 93l26 147l23 -4l-25 -147zM505 390l30 -30l75 70l75 -70l30 30l-70 75l70 75l-30 30l-75 -70l-75 70l-30 -30l70 -75z" />
    <glyph glyph-name="u1F680" unicode="&#x1f680;" horiz-adv-x="900" 
d="M55 -120l155 240l85 -85zM130 285l45 75l236 35l164 175q159 95 265 95q0 -106 -95 -265l-175 -164l-35 -236l-75 -45l-35 145l-75 -35l-110 110l35 75z" />
    </font>
</defs>
</svg>
